<?xml version="1.0" encoding="UTF-8"?>
<svg width="144px" height="144px" viewBox="0 0 144 144" version="1.1" xmlns="http://www.w3.org/2000/svg" xmlns:xlink="http://www.w3.org/1999/xlink">
    <!-- Generator: Sketch 46 (44423) - http://www.bohemiancoding.com/sketch -->
    <title>analytics</title>
    <desc>Created with Sketch.</desc>
    <defs></defs>
    <g id="Page-1" stroke="none" stroke-width="1" fill="none" fill-rule="evenodd">
        <g id="analytics" fill-rule="nonzero" fill="#333333">
            <path d="M28.25,75.125 L3.25,75.125 C1.525,75.125 0.125,73.725 0.125,72 C0.125,70.275 1.525,68.875 3.25,68.875 L28.25,68.875 C29.975,68.875 31.375,70.275 31.375,72 C31.375,73.725 29.975,75.125 28.25,75.125 Z" id="Shape"></path>
            <path d="M140.75,75.125 L115.75,75.125 C114.025,75.125 112.625,73.725 112.625,72 C112.625,70.275 114.025,68.875 115.75,68.875 L140.75,68.875 C142.475,68.875 143.875,70.275 143.875,72 C143.875,73.725 142.475,75.125 140.75,75.125 Z" id="Shape"></path>
            <path d="M72,112.625 C70.275,112.625 68.875,111.225 68.875,109.5 L68.875,3.25 C68.875,1.525 70.275,0.125 72,0.125 C73.725,0.125 75.125,1.525 75.125,3.25 L75.125,109.5 C75.125,111.225 73.725,112.625 72,112.625 Z" id="Shape"></path>
            <path d="M72,125.125 C51.55625,125.125 44.825,98.8125 38.3125,73.36875 C32.25,49.65 25.975,25.125 9.5,25.125 C7.775,25.125 6.375,23.725 6.375,22 C6.375,20.275 7.775,18.875 9.5,18.875 C30.825,18.875 37.7125,45.79375 44.36875,71.81875 C50.55625,96.01875 56.40625,118.875 72,118.875 C73.725,118.875 75.125,120.275 75.125,122 C75.125,123.725 73.725,125.125 72,125.125 Z" id="Shape"></path>
            <path d="M72,125.125 C70.275,125.125 68.875,123.725 68.875,122 C68.875,120.275 70.275,118.875 72,118.875 C88.475,118.875 94.75,94.35 100.8125,70.63125 C107.325,45.1875 114.05625,18.875 134.5,18.875 C136.225,18.875 137.625,20.275 137.625,22 C137.625,23.725 136.225,25.125 134.5,25.125 C118.90625,25.125 113.05625,47.98125 106.86875,72.18125 C100.2125,98.20625 93.325,125.125 72,125.125 Z" id="Shape"></path>
            <path d="M72,143.875 C70.275,143.875 68.875,142.475 68.875,140.75 L68.875,134.5 C68.875,132.775 70.275,131.375 72,131.375 C73.725,131.375 75.125,132.775 75.125,134.5 L75.125,140.75 C75.125,142.475 73.725,143.875 72,143.875 Z" id="Shape"></path>
            <path d="M90.75,75.125 L53.25,75.125 C51.525,75.125 50.125,73.725 50.125,72 C50.125,70.275 51.525,68.875 53.25,68.875 L90.75,68.875 C92.475,68.875 93.875,70.275 93.875,72 C93.875,73.725 92.475,75.125 90.75,75.125 Z" id="Shape"></path>
        </g>
    </g>
</svg>