<?xml version="1.0" encoding="UTF-8"?>
<svg width="144px" height="151px" viewBox="0 0 144 151" version="1.1" xmlns="http://www.w3.org/2000/svg" xmlns:xlink="http://www.w3.org/1999/xlink">
    <!-- Generator: Sketch 46 (44423) - http://www.bohemiancoding.com/sketch -->
    <title>data</title>
    <desc>Created with Sketch.</desc>
    <defs></defs>
    <g id="Page-1" stroke="none" stroke-width="1" fill="none" fill-rule="evenodd">
        <g id="data" fill-rule="nonzero" fill="#333333">
            <path d="M18.24,12.48 C15.0588398,12.48 12.48,9.90116016 12.48,6.72 C12.48,3.53883984 15.0588398,0.96 18.24,0.96 C21.4211602,0.96 24,3.53883984 24,6.72 C24,9.90116016 21.4211602,12.48 18.24,12.48 Z M18.24,2.88 C16.1192266,2.88 14.4,4.59922656 14.4,6.72 C14.4,8.84077344 16.1192266,10.56 18.24,10.56 C20.3607734,10.56 22.08,8.84077344 22.08,6.72 C22.08,4.59922656 20.3607734,2.88 18.24,2.88 Z" id="Shape"></path>
            <circle id="Oval" cx="25.92" cy="25.92" r="5.76"></circle>
            <path d="M41.28,43.2 C38.0988398,43.2 35.52,40.6211602 35.52,37.44 C35.52,34.2588398 38.0988398,31.68 41.28,31.68 C44.4611602,31.68 47.04,34.2588398 47.04,37.44 C47.04,40.6211602 44.4611602,43.2 41.28,43.2 Z M41.28,33.6 C39.1592266,33.6 37.44,35.3192266 37.44,37.44 C37.44,39.5607734 39.1592266,41.28 41.28,41.28 C43.4007734,41.28 45.12,39.5607734 45.12,37.44 C45.12,35.3192266 43.4007734,33.6 41.28,33.6 Z" id="Shape"></path>
            <circle id="Oval" cx="47.04" cy="79.68" r="5.76"></circle>
            <circle id="Oval" cx="73.92" cy="54.72" r="5.76"></circle>
            <path d="M6.72,33.6 C3.53883984,33.6 0.96,31.0211602 0.96,27.84 C0.96,24.6588398 3.53883984,22.08 6.72,22.08 C9.90116016,22.08 12.48,24.6588398 12.48,27.84 C12.48,31.0211602 9.90116016,33.6 6.72,33.6 Z M6.72,24 C4.59922656,24 2.88,25.7192266 2.88,27.84 C2.88,29.9607734 4.59922656,31.68 6.72,31.68 C8.84077344,31.68 10.56,29.9607734 10.56,27.84 C10.56,25.7192266 8.84077344,24 6.72,24 Z" id="Shape"></path>
            <circle id="Oval" cx="120" cy="27.84" r="5.76"></circle>
            <path d="M137.28,33.6 C134.09884,33.6 131.52,31.0211602 131.52,27.84 C131.52,24.6588398 134.09884,22.08 137.28,22.08 C140.46116,22.08 143.04,24.6588398 143.04,27.84 C143.04,31.0211602 140.46116,33.6 137.28,33.6 Z M137.28,24 C135.159227,24 133.44,25.7192266 133.44,27.84 C133.44,29.9607734 135.159227,31.68 137.28,31.68 C139.400773,31.68 141.12,29.9607734 141.12,27.84 C141.12,25.7192266 139.400773,24 137.28,24 Z" id="Shape"></path>
            <path d="M137.28,48.96 C134.09884,48.96 131.52,46.3811602 131.52,43.2 C131.52,40.0188398 134.09884,37.44 137.28,37.44 C140.46116,37.44 143.04,40.0188398 143.04,43.2 C143.04,46.3811602 140.46116,48.96 137.28,48.96 Z M137.28,39.36 C135.159227,39.36 133.44,41.0792266 133.44,43.2 C133.44,45.3207734 135.159227,47.04 137.28,47.04 C139.400773,47.04 141.12,45.3207734 141.12,43.2 C141.12,41.0792266 139.400773,39.36 137.28,39.36 Z" id="Shape"></path>
            <path d="M118.08,58.56 C114.89884,58.56 112.32,55.9811602 112.32,52.8 C112.32,49.6188398 114.89884,47.04 118.08,47.04 C121.26116,47.04 123.84,49.6188398 123.84,52.8 C123.84,55.9811602 121.26116,58.56 118.08,58.56 Z M118.08,48.96 C115.959227,48.96 114.24,50.6792266 114.24,52.8 C114.24,54.9207734 115.959227,56.64 118.08,56.64 C120.200773,56.64 121.92,54.9207734 121.92,52.8 C121.92,50.6792266 120.200773,48.96 118.08,48.96 Z" id="Shape"></path>
            <circle id="Oval" cx="73.92" cy="79.68" r="5.76"></circle>
            <path d="M91.2,125.76 C88.0188398,125.76 85.44,123.18116 85.44,120 C85.44,116.81884 88.0188398,114.24 91.2,114.24 C94.3811602,114.24 96.96,116.81884 96.96,120 C96.96,123.18116 94.3811602,125.76 91.2,125.76 L91.2,125.76 Z M91.2,116.16 C89.0792266,116.16 87.36,117.879227 87.36,120 C87.36,122.120773 89.0792266,123.84 91.2,123.84 C93.3207734,123.84 95.04,122.120773 95.04,120 C95.04,117.879227 93.3207734,116.16 91.2,116.16 Z" id="Shape"></path>
            <path d="M70.08,133.44 C66.8988398,133.44 64.32,130.86116 64.32,127.68 C64.32,124.49884 66.8988398,121.92 70.08,121.92 C73.2611602,121.92 75.84,124.49884 75.84,127.68 C75.84,130.86116 73.2611602,133.44 70.08,133.44 Z M70.08,123.84 C67.9592266,123.84 66.24,125.559227 66.24,127.68 C66.24,129.800773 67.9592266,131.52 70.08,131.52 C72.2007734,131.52 73.92,129.800773 73.92,127.68 C73.92,125.559227 72.2007734,123.84 70.08,123.84 Z" id="Shape"></path>
            <path d="M50.88,144.96 C47.6988398,144.96 45.12,142.38116 45.12,139.2 C45.12,136.01884 47.6988398,133.44 50.88,133.44 C54.0611602,133.44 56.64,136.01884 56.64,139.2 C56.64,142.38116 54.0611602,144.96 50.88,144.96 Z M50.88,135.36 C48.7592266,135.36 47.04,137.079227 47.04,139.2 C47.04,141.320773 48.7592266,143.04 50.88,143.04 C53.0007734,143.04 54.72,141.320773 54.72,139.2 C54.72,137.079227 53.0007734,135.36 50.88,135.36 Z" id="Shape"></path>
            <circle id="Oval" cx="70.08" cy="144.96" r="5.76"></circle>
            <circle id="Oval" cx="70.08" cy="144.96" r="3.84"></circle>
            <path d="M54.8928,59.7696 L48,50.6688 C47.1464356,50.1214635 46.0144054,50.3322144 45.4149964,51.1500521 C44.8155875,51.9678897 44.9554614,53.1108436 45.7344,53.76 L48.8832,58.9056 C35.4432,56.4864 27.5328,48.8256 22.944,35.8656 C22.7142068,35.2173773 22.1560464,34.7409881 21.4797725,34.6158835 C20.8034985,34.4907789 20.1118532,34.7359654 19.6653725,35.2590835 C19.2188918,35.7822016 19.0854068,36.5037773 19.3152,37.152 C24.4032,51.5712 33.6576,60.192 48.6336,62.784 L44.16,67.4304 C43.2321617,67.9605934 42.9098067,69.1425616 43.4400001,70.0704 C43.9701934,70.9982383 45.1521616,71.3205933 46.08,70.7904 L54.6816,62.976 C55.2541031,62.6596575 55.6261763,62.0736225 55.6689121,61.4209311 C55.7116478,60.7682398 55.4191664,60.1386922 54.8928,59.7504 L54.8928,59.7696 Z" id="Shape"></path>
            <path d="M79.776,63.1872 L86.4,53.76 C87.2324036,53.1025602 88.4401602,53.2443964 89.0976,54.0768 C89.7550398,54.9092036 89.6132036,56.1169602 88.7808,56.7744 L85.824,62.0352 C99.168,59.136 106.7904,51.1872 110.9184,38.0352 C111.124185,37.3801178 111.66382,36.8845818 112.334031,36.7352557 C113.004241,36.5859296 113.703205,36.8054996 114.167631,37.3112557 C114.632056,37.8170119 114.791385,38.5321178 114.5856,39.1872 C110.016,53.7792 101.1456,62.784 86.208,65.8752 L90.7584,70.3872 C91.3723252,70.6958775 91.774938,71.3086324 91.8145781,71.9946459 C91.8542181,72.6806595 91.5248632,73.3357099 90.9505781,73.7130459 C90.3762929,74.090382 89.6443252,74.1326775 89.0304,73.824 L80.1408,66.336 C79.5532528,66.0414451 79.1572,65.4668206 79.0910307,64.8129124 C79.0248614,64.1590041 79.2977713,63.516687 79.8144,63.1104 L79.776,63.1872 Z" id="Shape"></path>
            <path d="M65.952,88.6656 L67.2,100.0128 C67.0091304,101.073187 65.9947867,101.77807 64.9344,101.5872 C63.8740133,101.39633 63.1691304,100.381987 63.36,99.3216 L62.112,93.4272 C54.0096,104.4096 53.5296,115.4304 59.1168,127.9872 C59.5462566,128.957454 59.1078538,130.092143 58.1376,130.5216 C57.1673461,130.951057 56.0326566,130.512654 55.6032,129.5424 C49.3824,115.5648 50.1504,102.8928 59.2896,90.7776 L52.8768,90.3936 C51.8817122,90.5922786 50.9038321,89.9823362 50.6445899,89.0012825 C50.3853477,88.0202287 50.9342627,87.0068327 51.8976,86.688 L63.5904,86.4 C64.227177,86.2306628 64.9063074,86.3996838 65.3894285,86.8477397 C65.8725497,87.2957955 66.0921675,87.960291 65.9712,88.608 L65.952,88.6656 Z" id="Shape"></path>
        </g>
    </g>
</svg>