<?xml version="1.0" encoding="UTF-8"?>
<svg width="149px" height="168px" viewBox="0 0 149 168" version="1.1" xmlns="http://www.w3.org/2000/svg" xmlns:xlink="http://www.w3.org/1999/xlink">
    <!-- Generator: Sketch 46 (44423) - http://www.bohemiancoding.com/sketch -->
    <title>empathy</title>
    <desc>Created with Sketch.</desc>
    <defs></defs>
    <g id="Page-1" stroke="none" stroke-width="1" fill="none" fill-rule="evenodd">
        <g id="empathy" fill-rule="nonzero" fill="#333333">
            <path d="M61.0114776,98.270056 C59.8316976,98.270056 58.8204577,98.270056 57.6406777,98.1015161 C55.6181978,97.9329761 54.1013378,96.2475761 54.2698778,94.0565562 C54.4384178,92.0340763 56.1238178,90.5172164 58.3148377,90.6857563 C59.3260776,90.6857563 60.1687776,90.8542963 61.1800176,90.8542963 L61.6856375,90.8542963 C61.6856375,90.8542963 61.6856375,90.8542963 61.6856375,90.8542963 C63.7081175,90.8542963 65.3935174,92.5396963 65.3935174,94.5621762 C65.3935174,96.5846561 63.8766575,98.270056 61.6856375,98.270056 L61.0114776,98.270056 C61.0114776,98.270056 61.0114776,98.270056 61.0114776,98.270056 Z M72.6407371,96.5846561 C70.9553372,96.5846561 69.6070172,95.5734162 69.1013972,93.8880162 C68.5957773,91.8655363 69.6070172,89.8430564 71.6294971,89.3374364 C72.6407371,89.0003564 73.8205171,88.6632764 74.831757,88.3261964 C76.6856969,87.6520365 78.8767169,88.4947364 79.7194168,90.5172164 C80.3935768,92.3711563 79.5508768,94.5621762 77.5283969,95.4048762 C76.348617,95.9104961 75.000297,96.4161161 73.6519771,96.7531961 C73.3148971,96.5846561 72.9778171,96.5846561 72.6407371,96.5846561 Z M47.0226581,95.9104961 C46.6855781,95.9104961 46.1799582,95.9104961 45.8428782,95.7419561 C44.4945582,95.2363362 43.3147783,94.7307162 42.1349983,94.2250962 C40.2810584,93.3823962 39.4383584,91.1913763 40.2810584,89.3374364 C41.1237584,87.4834965 43.3147783,86.6407965 45.1687182,87.4834965 C46.1799582,87.9891165 47.1911981,88.3261964 48.3709781,88.8318164 C50.224918,89.5059764 51.236158,91.6969963 50.561998,93.5509362 C50.056378,94.8992562 48.5395181,95.9104961 47.0226581,95.9104961 Z M85.9553966,90.0115964 C84.7756166,90.0115964 83.7643767,89.5059764 82.9216767,88.4947364 C81.7418967,86.8093365 81.9104367,84.4497766 83.5958367,83.2699966 C84.4385366,82.5958367 85.2812366,81.9216767 86.1239366,81.0789767 C87.6407965,79.7306568 90.0003564,79.7306568 91.3486764,81.2475167 C92.6969963,82.7643767 92.6969963,85.1239366 91.1801364,86.4722565 C90.1688964,87.3149565 89.1576564,88.3261964 87.9778765,89.1688964 C87.4722565,89.6745164 86.6295565,90.0115964 85.9553966,90.0115964 Z M34.2136186,88.3261964 C33.3709187,88.3261964 32.5282187,87.9891165 31.8540587,87.4834965 C30.8428188,86.6407965 29.8315788,85.6295565 28.9888788,84.6183166 C27.6405589,83.1014566 27.6405589,80.7418967 29.1574188,79.3935768 C30.6742788,78.0452569 33.0338387,78.0452569 34.3821586,79.5621168 C35.2248586,80.4048168 35.8990186,81.0789767 36.7417185,81.9216767 C38.2585785,83.2699966 38.4271185,85.6295565 37.0787985,87.1464165 C36.2360986,87.9891165 35.2248586,88.3261964 34.2136186,88.3261964 Z M95.7307162,78.8879568 C95.0565562,78.8879568 94.3823962,78.7194168 93.8767763,78.3823368 C92.0228363,77.3710969 91.5172164,75.011537 92.5284563,73.326137 C93.0340763,72.3148971 93.5396963,71.3036571 94.0453163,70.2924172 C94.8880162,68.4384772 97.0790361,67.5957773 98.9329761,68.4384772 C100.786916,69.2811772 101.629616,71.4721971 100.786916,73.326137 C100.281296,74.505917 99.607136,75.8542369 98.9329761,77.0340169 C98.2588161,78.2137968 96.9104961,78.8879568 95.7307162,78.8879568 Z M25.280999,76.6969369 C23.932679,76.6969369 22.5843591,75.8542369 21.9101991,74.674457 C21.2360392,73.494677 20.7304192,72.1463571 20.2247992,70.9665771 C19.5506392,69.1126372 20.5618792,66.9216173 22.4158191,66.2474573 C24.269759,65.5732973 26.4607789,66.5845373 27.1349389,68.4384772 C27.4720189,69.4497172 27.9776389,70.4609572 28.4832589,71.4721971 C29.3259588,73.326137 28.6517989,75.517157 26.7978589,76.5283969 C26.292239,76.5283969 25.786619,76.6969369 25.280999,76.6969369 Z M100.281296,64.8991374 C100.112756,64.8991374 99.944216,64.8991374 99.944216,64.8991374 C97.9217361,64.7305974 96.4048762,62.8766575 96.5734162,60.8541775 C96.7419561,59.8429376 96.7419561,58.6631576 96.7419561,57.4833777 C96.7419561,56.8092177 96.7419561,55.9665177 96.7419561,55.2923578 C96.5734162,53.2698778 98.0902761,51.4159379 100.281296,51.2473979 C102.303776,51.0788579 104.157716,52.5957179 104.326256,54.7867378 C104.326256,55.6294377 104.494796,56.4721377 104.494796,57.4833777 C104.494796,58.8316976 104.494796,60.1800176 104.326256,61.5283375 C103.820636,63.3822774 102.135236,64.8991374 100.281296,64.8991374 Z M21.5731191,62.3710375 C19.5506392,62.3710375 17.8652393,60.8541775 17.8652393,58.8316976 C17.8652393,58.3260776 17.8652393,57.9889977 17.8652393,57.4833777 C17.8652393,56.4721377 17.8652393,55.6294377 18.0337793,54.6181978 C18.2023193,52.5957179 19.8877192,51.0788579 22.0787391,51.2473979 C24.101219,51.4159379 25.618079,53.1013378 25.449539,55.2923578 C25.449539,55.9665177 25.449539,56.8092177 25.449539,57.4833777 C25.449539,57.8204577 25.449539,58.1575376 25.449539,58.4946176 C25.449539,60.5170975 23.7641391,62.2024975 21.5731191,62.3710375 C21.7416591,62.3710375 21.5731191,62.3710375 21.5731191,62.3710375 Z M97.9217361,47.8765981 C96.4048762,47.8765981 95.0565562,47.0338981 94.5509362,45.5170381 C94.0453163,44.5057982 93.7082363,43.4945582 93.2026163,42.4833183 C92.1913763,40.6293783 92.8655363,38.4383584 94.7194762,37.4271185 C96.5734162,36.4158785 98.7644361,37.0900385 99.775676,38.9439784 C100.449836,40.1237584 100.955456,41.4720783 101.461076,42.6518583 C102.303776,44.5057982 101.292536,46.6968181 99.438596,47.5395181 C98.9329761,47.8765981 98.4273561,47.8765981 97.9217361,47.8765981 Z M24.269759,47.7080581 C23.7641391,47.7080581 23.2585191,47.5395181 22.9214391,47.3709781 C21.0674992,46.5282781 20.0562592,44.3372582 20.8989592,42.4833183 C21.4045791,41.1349983 22.0787391,39.9552184 22.5843591,38.7754384 C23.5955991,36.9214985 25.786619,36.2473385 27.6405589,37.2585785 C29.4944988,38.2698184 30.1686588,40.4608383 29.1574188,42.3147783 C28.6517989,43.3260182 28.1461789,44.3372582 27.8090989,45.3484982 C27.1349389,46.8653581 25.618079,47.7080581 24.269759,47.7080581 Z M89.6632764,35.5731785 C88.6520365,35.5731785 87.8093365,35.2360986 86.9666365,34.5619386 C86.1239366,33.7192386 85.2812366,33.0450786 84.4385366,32.3709187 C82.9216767,31.0225987 82.5845967,28.6630388 83.9329167,27.1461789 C85.2812366,25.6293189 87.6407965,25.292239 89.1576564,26.6405589 C90.1688964,27.4832589 91.1801364,28.4944988 92.1913763,29.3371988 C93.7082363,30.8540587 93.7082363,33.2136186 92.1913763,34.5619386 C91.5172164,35.2360986 90.6745164,35.5731785 89.6632764,35.5731785 Z M32.5282187,35.5731785 C31.5169787,35.5731785 30.6742788,35.2360986 29.8315788,34.3933986 C28.3147189,32.8765387 28.4832589,30.5169787 29.8315788,29.1686588 C30.8428188,28.1574188 31.8540587,27.3147189 32.8652987,26.4720189 C34.3821586,25.123699 36.7417185,25.4607789 38.0900385,26.9776389 C39.4383584,28.4944988 39.1012784,30.8540587 37.5844185,32.2023787 C36.7417185,32.8765387 35.8990186,33.7192386 35.0563186,34.3933986 C34.3821586,35.2360986 33.3709187,35.5731785 32.5282187,35.5731785 Z M77.3598569,27.3147189 C76.8542369,27.3147189 76.348617,27.1461789 75.842997,26.9776389 C74.831757,26.4720189 73.8205171,26.1349389 72.6407371,25.7978589 C70.6182572,25.123699 69.6070172,23.101219 70.2811772,21.0787391 C70.9553372,19.0562592 72.9778171,18.0450192 75.000297,18.7191792 C76.348617,19.2247992 77.5283969,19.5618792 78.8767169,20.0674992 C80.7306568,20.9101991 81.5733568,23.101219 80.8991968,24.955159 C80.2250368,26.4720189 78.8767169,27.3147189 77.3598569,27.3147189 Z M44.8316382,27.3147189 C43.3147783,27.3147189 41.9664583,26.4720189 41.4608383,25.123699 C40.6181384,23.269759 41.4608383,21.0787391 43.4833183,20.2360392 C44.6630982,19.7304192 46.0114182,19.2247992 47.3597381,18.8877192 C49.382218,18.2135592 51.404698,19.3933392 52.0788579,21.2472791 C52.7530179,23.269759 51.5732379,25.292239 49.719298,25.9663989 C48.7080581,26.3034789 47.5282781,26.6405589 46.5170381,27.1461789 C45.8428782,27.1461789 45.3372582,27.3147189 44.8316382,27.3147189 Z M63.0339575,24.112459 C63.0339575,24.112459 62.8654175,24.112459 62.8654175,24.112459 C62.1912575,24.112459 61.6856375,24.112459 61.0114776,24.112459 C60.5058576,24.112459 60.0002376,24.112459 59.4946176,24.112459 C57.6406777,24.112459 55.7867378,22.5955991 55.6181978,20.5731191 C55.4496578,18.5506392 57.1350577,16.8652393 59.1575376,16.6966993 C59.8316976,16.6966993 60.5058576,16.6966993 61.1800176,16.6966993 C61.8541775,16.6966993 62.5283375,16.6966993 63.2024975,16.6966993 C65.2249774,16.8652393 66.9103773,18.5506392 66.7418373,20.5731191 C66.5732973,22.4270591 64.8878974,24.112459 63.0339575,24.112459 Z" id="Shape"></path>
            <path d="M60.3373176,77.3710969 C59.8316976,77.3710969 59.1575376,77.2025569 58.6519177,77.0340169 C47.6968181,71.3036571 43.3147783,63.3822774 41.7979183,59.1687776 C40.2810584,55.2923578 40.9552184,51.0788579 43.3147783,48.045138 C45.5057982,45.1799582 48.8765981,43.4945582 52.5844779,43.4945582 C55.6181978,43.4945582 58.4833777,44.6743382 60.5058576,46.5282781 C62.5283375,44.6743382 65.3935174,43.4945582 68.4272373,43.4945582 C72.1351171,43.4945582 75.337377,45.1799582 77.6969369,48.045138 C80.0564968,51.0788579 80.5621168,55.2923578 79.0452569,59.1687776 C77.5283969,63.3822774 73.3148971,71.3036571 62.1912575,77.0340169 C61.5170975,77.2025569 61.0114776,77.3710969 60.3373176,77.3710969 Z M52.4159379,50.7417779 C51.067618,50.7417779 49.887838,51.4159379 49.045138,52.4271779 C48.2024381,53.4384178 48.2024381,54.9552778 48.7080581,56.4721377 C49.887838,59.5058576 52.7530179,64.8991374 60.3373176,69.4497172 C67.9216173,65.0676774 70.7867972,59.5058576 71.9665771,56.4721377 C72.4721971,54.9552778 72.4721971,53.4384178 71.6294971,52.4271779 C70.7867972,51.4159379 69.6070172,50.7417779 68.2586973,50.7417779 C65.8991374,50.7417779 64.0451974,52.5957179 64.0451974,54.9552778 C64.0451974,56.9777577 62.3597975,58.6631576 60.3373176,58.6631576 C58.3148377,58.6631576 56.6294377,56.9777577 56.6294377,54.9552778 C56.6294377,52.5957179 54.7754978,50.7417779 52.4159379,50.7417779 Z" id="Shape"></path>
            <path d="M91.0115964,167.539993 L26.123699,167.539993 C24.943919,167.539993 23.7641391,166.865833 23.0899791,165.854593 C22.4158191,164.843353 22.2472791,163.495033 22.7528991,162.315253 L34.7192386,132.146595 C-1.17977995,90.3486764 -2.86517989,61.0227175 2.02247992,43.8316382 C7.5842997,24.786619 24.101219,9.95509956 47.1911981,3.21349983 C72.8092771,-4.37079987 97.4161161,7.42699966 98.4273561,7.93261964 C98.5958961,7.93261964 98.7644361,8.10115964 98.9329761,8.26969963 C102.135236,10.4607195 130.787035,30.8540587 134.663455,44.0001782 C137.865715,54.9552778 135.843235,68.7755572 135.000535,73.494677 L147.978114,93.7194762 C148.989354,95.2363362 148.652274,97.2588161 147.303954,98.438596 L141.742134,103.494796 L142.584834,104.168956 C144.607314,105.685816 145.787094,107.876836 145.955634,110.404936 C146.124174,112.764495 145.112934,115.124055 143.427534,116.809455 C145.281474,118.663395 146.461254,121.360035 146.292714,124.225215 L146.124174,126.921855 C145.955634,130.798275 143.596074,134.337615 139.888194,135.685935 C139.045494,136.023015 138.371334,136.865715 138.371334,137.708414 L137.865715,141.753374 C137.528635,145.461254 134.831995,148.832054 131.292655,150.011834 L126.742075,151.697234 C125.730835,152.034314 124.551055,152.202854 123.539815,152.202854 L105.168956,152.202854 C104.326256,152.202854 103.652096,152.539934 103.146476,153.214094 L93.8767763,166.023133 C93.2026163,167.034373 92.1913763,167.539993 91.0115964,167.539993 Z M31.6855187,160.124234 L88.9891165,160.124234 L97.0790361,148.832054 C98.9329761,146.303954 101.966696,144.787094 105.000416,144.787094 L123.371275,144.787094 C123.708355,144.787094 123.876895,144.787094 124.213975,144.618554 L128.764555,142.933154 C129.607255,142.596074 130.281415,141.753374 130.449955,140.910674 L130.955575,136.865715 C131.292655,133.157835 133.652215,129.955575 137.191555,128.607255 C138.034255,128.270175 138.708414,127.427475 138.708414,126.416235 L138.876954,123.719595 C138.876954,122.876895 138.371334,122.034195 137.697175,121.528575 L135.674695,120.348795 C134.663455,119.843175 133.989295,118.663395 133.820755,117.483615 C133.652215,116.303835 134.157835,115.124055 135.000535,114.281355 L138.202794,111.247636 C138.371334,111.079096 138.539874,110.742016 138.539874,110.573476 C138.539874,110.404936 138.539874,110.067856 138.202794,109.899316 L133.652215,106.528516 C132.809515,105.854356 132.135355,104.843116 132.135355,103.663336 C132.135355,102.483556 132.472435,101.472316 133.315135,100.798156 L139.888194,95.0677962 L127.921855,76.1913169 C127.416235,75.348617 127.247695,74.337377 127.416235,73.326137 C127.416235,73.157597 130.787035,57.3148377 127.416235,46.0226581 C125.225215,38.1012784 106.348736,22.5955991 94.8880162,14.5056794 C92.3599163,13.3258994 70.7867972,4.0561998 49.213678,10.2921796 C39.4383584,13.3258994 16.0112994,22.4270591 9.26969963,46.0226581 C2.69663989,68.4384772 13.9888194,97.0902761 41.7979183,129.112875 C42.6406183,130.124115 42.9776983,131.640975 42.4720783,132.989295 L31.6855187,160.124234 Z" id="Shape"></path>
        </g>
    </g>
</svg>