<?xml version="1.0" encoding="UTF-8"?>
<svg width="150px" height="150px" viewBox="0 0 150 150" version="1.1" xmlns="http://www.w3.org/2000/svg" xmlns:xlink="http://www.w3.org/1999/xlink">
    <!-- Generator: Sketch 46 (44423) - http://www.bohemiancoding.com/sketch -->
    <title>Group</title>
    <desc>Created with Sketch.</desc>
    <defs></defs>
    <g id="Page-1" stroke="none" stroke-width="1" fill="none" fill-rule="evenodd">
        <g id="Group" fill-rule="nonzero" fill="#333333">
            <path d="M76.8,150 C75.7,150 74.8,149.1 74.8,148 L74.8,148 C74.8,146.9 75.6,146 76.8,146 L76.8,146 C77.9,146 78.8,146.8 78.8,148 L78.8,148 C78.8,149 77.9,150 76.8,150 L76.8,150 C76.8,150 76.8,150 76.8,150 Z M65.6,149.4 C64.5,149.3 63.7,148.3 63.9,147.2 L63.9,147.2 C64,146.1 65,145.3 66.1,145.5 L66.1,145.5 C67.2,145.6 68,146.6 67.8,147.7 L67.8,147.7 C67.7,148.7 66.8,149.5 65.8,149.5 L65.8,149.5 C65.8,149.4 65.7,149.4 65.6,149.4 Z M85.6,147.2 C85.4,146.1 86.1,145.1 87.2,144.9 L87.2,144.9 C88.3,144.7 89.3,145.4 89.5,146.5 L89.5,146.5 C89.7,147.6 89,148.6 87.9,148.8 L87.9,148.8 L87.9,148.8 L87.9,148.8 C87.8,148.8 87.7,148.8 87.5,148.8 L87.5,148.8 C86.6,148.9 85.8,148.2 85.6,147.2 Z M54.6,147.2 L54.6,147.2 L54.6,147.2 C53.5,146.9 52.9,145.8 53.2,144.7 L53.2,144.7 C53.5,143.6 54.6,143 55.7,143.3 L55.7,143.3 C56.8,143.6 57.4,144.7 57.1,145.8 L57.1,145.8 C56.8,146.7 56.1,147.3 55.2,147.3 L55.2,147.3 C55,147.2 54.8,147.2 54.6,147.2 Z M96.3,144.9 C96,143.9 96.5,142.7 97.6,142.4 L97.6,142.4 C98.6,142 99.8,142.6 100.1,143.7 L100.1,143.7 C100.5,144.7 99.9,145.9 98.8,146.2 L98.8,146.2 C98.8,146.2 98.8,146.2 98.8,146.2 L98.8,146.2 C98.6,146.3 98.4,146.3 98.2,146.3 L98.2,146.3 C97.3,146.2 96.5,145.7 96.3,144.9 Z M44.1,143.3 C43.1,142.8 42.6,141.7 43.1,140.7 L43.1,140.7 C43.6,139.7 44.7,139.2 45.7,139.7 L45.7,139.7 C46.7,140.2 47.2,141.3 46.7,142.3 L46.7,142.3 C46.4,143 45.6,143.5 44.9,143.5 L44.9,143.5 C44.6,143.5 44.3,143.5 44.1,143.3 Z M106.4,140.9 C105.9,139.9 106.3,138.7 107.3,138.2 L107.3,138.2 C108.3,137.7 109.5,138.1 110,139.1 L110,139.1 C110.5,140.1 110.1,141.3 109.1,141.8 L109.1,141.8 C108.8,141.9 108.5,142 108.2,142 L108.2,142 C107.5,142 106.8,141.6 106.4,140.9 Z M34.2,138 L34.2,138 L34.2,138 C33.3,137.4 33,136.2 33.6,135.2 L33.6,135.2 C34.2,134.3 35.4,134 36.4,134.6 L36.4,134.6 C37.3,135.2 37.6,136.4 37,137.4 L37,137.4 C36.6,138 36,138.3 35.3,138.3 L35.3,138.3 C35,138.3 34.6,138.2 34.2,138 Z M115.9,135.5 C115.3,134.6 115.5,133.3 116.4,132.7 L116.4,132.7 C117.3,132.1 118.5,132.3 119.2,133.2 L119.2,133.2 C119.8,134.1 119.6,135.4 118.7,136 L118.7,136 L118.7,136 L118.7,136 C118.3,136.3 117.9,136.4 117.5,136.4 L117.5,136.4 C116.9,136.3 116.3,136 115.9,135.5 Z M25.3,131.2 C24.5,130.5 24.4,129.2 25.1,128.4 L25.1,128.4 C25.8,127.6 27.1,127.5 27.9,128.2 L27.9,128.2 C28.7,128.9 28.8,130.2 28.1,131 L28.1,131 C27.7,131.5 27.2,131.7 26.6,131.7 L26.6,131.7 C26.2,131.7 25.7,131.5 25.3,131.2 Z M124.5,128.7 C123.7,127.9 123.7,126.6 124.5,125.9 L124.5,125.9 C125.3,125.1 126.5,125.1 127.3,125.9 L127.3,125.9 C128.1,126.7 128.1,128 127.3,128.7 L127.3,128.7 L127.3,128.7 L127.3,128.7 C126.9,129.1 126.4,129.3 125.9,129.3 L125.9,129.3 C125.4,129.3 124.8,129.1 124.5,128.7 Z M17.5,123.1 C16.8,122.3 16.9,121 17.8,120.3 L17.8,120.3 C18.6,119.6 19.9,119.7 20.6,120.6 L20.6,120.6 C21.3,121.4 21.2,122.7 20.3,123.4 L20.3,123.4 C19.9,123.7 19.5,123.9 19,123.9 L19,123.9 C18.5,123.9 17.9,123.6 17.5,123.1 Z M131.9,120.7 C131,120 130.9,118.8 131.5,117.9 L131.5,117.9 C132.2,117 133.4,116.9 134.3,117.5 L134.3,117.5 C135.2,118.2 135.3,119.4 134.7,120.3 L134.7,120.3 C134.7,120.3 134.7,120.3 134.7,120.3 L134.7,120.3 C134.3,120.8 133.7,121.1 133.1,121.1 L133.1,121.1 C132.7,121.2 132.3,121 131.9,120.7 Z M11,114 C10.4,113 10.7,111.8 11.7,111.2 L11.7,111.2 C12.6,110.6 13.9,110.9 14.5,111.9 L14.5,111.9 C15.1,112.8 14.8,114.1 13.8,114.6 L13.8,114.6 C13.5,114.8 13.1,114.9 12.8,114.9 L12.8,114.9 C12,115 11.4,114.7 11,114 Z M138.1,111.8 C137.1,111.3 136.8,110.1 137.3,109.1 L137.3,109.1 C137.8,108.1 139.1,107.8 140,108.3 L140,108.3 C141,108.8 141.3,110 140.8,111 L140.8,111 C140.8,111 140.8,111 140.8,111 L140.8,111 C140.4,111.7 139.8,112 139,112 L139,112 C138.7,112 138.4,111.9 138.1,111.8 Z M5.9,104.1 C5.5,103.1 5.9,101.9 7,101.5 L7,101.5 C8,101.1 9.2,101.5 9.6,102.6 L9.6,102.6 C10,103.6 9.6,104.8 8.5,105.2 L8.5,105.2 C8.2,105.3 8,105.4 7.7,105.4 L7.7,105.4 C6.9,105.3 6.2,104.8 5.9,104.1 Z M142.9,102 C141.9,101.6 141.3,100.5 141.7,99.4 L141.7,99.4 C142.1,98.4 143.2,97.8 144.3,98.2 L144.3,98.2 C145.3,98.6 145.9,99.7 145.5,100.8 L145.5,100.8 C145.2,101.6 144.4,102.1 143.6,102.1 L143.6,102.1 C143.3,102.1 143.1,102 142.9,102 Z M2.3,93.4 C2,92.4 2.7,91.3 3.7,91 L3.7,91 C4.8,90.7 5.9,91.4 6.1,92.5 L6.1,92.5 C6.4,93.6 5.7,94.7 4.7,94.9 L4.7,94.9 C4.5,94.9 4.4,95 4.2,95 L4.2,95 C3.3,94.9 2.5,94.3 2.3,93.4 Z M146.1,91.5 C145,91.3 144.3,90.2 144.5,89.1 L144.5,89.1 C144.5,89.1 144.5,89.1 144.5,89.1 L144.5,89.1 C144.5,89.1 144.5,89.1 144.5,89 L144.5,89 C144.7,87.9 145.8,87.2 146.9,87.4 L146.9,87.4 C148,87.6 148.7,88.7 148.5,89.8 L148.5,89.8 C148.5,89.8 148.5,89.8 148.5,89.8 L148.5,89.8 C148.5,89.8 148.5,89.8 148.5,89.9 L148.5,89.9 L148.5,89.9 L148.5,89.9 C148.3,90.8 147.5,91.5 146.5,91.5 L146.5,91.5 C146.4,91.6 146.3,91.6 146.1,91.5 Z M0.4,82.4 C0.3,81.3 1.1,80.3 2.2,80.2 L2.2,80.2 C3.3,80.1 4.3,80.9 4.4,82 L4.4,82 C4.5,83.1 3.7,84.1 2.6,84.2 L2.6,84.2 C2.5,84.2 2.5,84.2 2.4,84.2 L2.4,84.2 C1.3,84.2 0.5,83.4 0.4,82.4 Z M147.8,80.6 C146.7,80.5 145.9,79.6 145.9,78.5 L145.9,78.5 C145.9,77.4 146.9,76.6 148,76.6 L148,76.6 C149.1,76.7 150,77.6 149.9,78.7 L149.9,78.7 C149.8,79.8 149,80.6 147.9,80.6 L147.9,80.6 C147.9,80.6 147.8,80.6 147.8,80.6 Z M2,73.3 C0.9,73.2 0.1,72.3 0.1,71.2 L0.1,71.2 L0.1,71.2 L0.1,71.2 C0.2,70.1 1.1,69.3 2.2,69.3 L2.2,69.3 C3.3,69.3 4.2,70.3 4.1,71.4 L4.1,71.4 C4.1,72.5 3.2,73.3 2.1,73.3 L2.1,73.3 C2.1,73.3 2,73.3 2,73.3 Z M145.7,67.9 C145.6,66.8 146.4,65.8 147.5,65.7 L147.5,65.7 C148.6,65.6 149.6,66.4 149.7,67.5 L149.7,67.5 C149.8,68.6 149,69.6 147.9,69.7 L147.9,69.7 C147.8,69.7 147.8,69.7 147.7,69.7 L147.7,69.7 C146.6,69.7 145.8,69 145.7,67.9 Z M3.1,62.4 C2,62.2 1.3,61.1 1.5,60 L1.5,60 L1.5,60 L1.5,60 C1.7,58.9 2.8,58.2 3.9,58.4 L3.9,58.4 C5,58.6 5.7,59.7 5.5,60.8 L5.5,60.8 C5.3,61.8 4.5,62.4 3.5,62.4 L3.5,62.4 C3.3,62.5 3.2,62.5 3.1,62.4 Z M143.8,57.5 L143.8,57.5 C143.5,56.4 144.2,55.3 145.2,55.1 L145.2,55.1 C146.3,54.8 147.4,55.5 147.6,56.5 L147.6,56.5 C147.9,57.6 147.2,58.7 146.2,58.9 L146.2,58.9 C146,58.9 145.9,59 145.7,59 L145.7,59 C144.9,59 144,58.4 143.8,57.5 Z M5.7,51.9 C4.7,51.5 4.1,50.4 4.5,49.3 L4.5,49.3 L4.5,49.3 L4.5,49.3 C4.9,48.3 6,47.7 7.1,48.1 L7.1,48.1 C8.1,48.5 8.7,49.6 8.3,50.7 L8.3,50.7 C8,51.5 7.2,52 6.4,52 L6.4,52 C6.2,52 6,52 5.7,51.9 Z M140.4,47.4 C140,46.4 140.4,45.2 141.5,44.8 L141.5,44.8 C142.5,44.4 143.7,44.8 144.1,45.9 L144.1,45.9 C144.5,46.9 144.1,48.1 143,48.5 L143,48.5 C142.7,48.6 142.5,48.7 142.2,48.7 L142.2,48.7 C141.5,48.7 140.7,48.2 140.4,47.4 Z M10,41.8 C9,41.3 8.7,40 9.2,39.1 L9.2,39.1 C9.7,38.1 10.9,37.8 11.9,38.3 L11.9,38.3 C12.9,38.8 13.2,40.1 12.7,41 L12.7,41 C12.3,41.7 11.7,42 10.9,42 L10.9,42 C10.6,42 10.3,42 10,41.8 Z M135.6,38 L135.6,38 C135,37.1 135.3,35.8 136.3,35.3 L136.3,35.3 C137.2,34.7 138.5,35 139.1,36 L139.1,36 C139.7,36.9 139.4,38.2 138.4,38.8 L138.4,38.8 C138.1,39 137.7,39.1 137.4,39.1 L137.4,39.1 C136.6,39 136,38.6 135.6,38 Z M15.6,32.5 C14.7,31.8 14.6,30.6 15.2,29.7 L15.2,29.7 C15.9,28.8 17.1,28.7 18,29.3 L18,29.3 C18.9,30 19,31.2 18.4,32.1 L18.4,32.1 C18,32.6 17.4,32.9 16.8,32.9 L16.8,32.9 C16.4,32.9 16,32.8 15.6,32.5 Z M129.4,29.4 C128.7,28.5 128.8,27.3 129.7,26.6 L129.7,26.6 C130.5,25.9 131.8,26 132.5,26.9 L132.5,26.9 C133.2,27.7 133.1,29 132.2,29.7 L132.2,29.7 C131.8,30 131.4,30.2 130.9,30.2 L130.9,30.2 C130.4,30.1 129.8,29.9 129.4,29.4 Z M22.6,24.1 C21.8,23.3 21.8,22 22.6,21.3 L22.6,21.3 C23.4,20.5 24.7,20.5 25.4,21.3 L25.4,21.3 C26.2,22.1 26.2,23.4 25.4,24.1 L25.4,24.1 C25,24.5 24.5,24.7 24,24.7 L24,24.7 C23.5,24.7 23,24.5 22.6,24.1 Z M122,21.8 C121.2,21.1 121.1,19.8 121.8,19 L121.8,19 C122.5,18.2 123.8,18.1 124.6,18.8 L124.6,18.8 C125.4,19.5 125.5,20.8 124.8,21.6 L124.8,21.6 C124.4,22 123.8,22.3 123.3,22.3 L123.3,22.3 C122.8,22.3 122.4,22.1 122,21.8 Z M30.8,16.9 C30.2,16 30.4,14.8 31.3,14.1 L31.3,14.1 C32.2,13.5 33.4,13.7 34.1,14.6 L34.1,14.6 C34.8,15.5 34.5,16.7 33.6,17.4 L33.6,17.4 C33.3,17.7 32.8,17.8 32.4,17.8 L32.4,17.8 C31.8,17.7 31.2,17.4 30.8,16.9 Z M113.5,15.4 C112.6,14.8 112.3,13.6 112.9,12.6 L112.9,12.6 C113.5,11.7 114.7,11.4 115.7,12 L115.7,12 C116.6,12.6 116.9,13.8 116.3,14.8 L116.3,14.8 C115.9,15.4 115.3,15.7 114.6,15.7 L114.6,15.7 C114.3,15.7 113.9,15.6 113.5,15.4 Z M40,10.9 C39.5,9.9 39.9,8.7 40.9,8.2 L40.9,8.2 C41.9,7.7 43.1,8.1 43.6,9.1 L43.6,9.1 C44.1,10.1 43.7,11.3 42.7,11.8 L42.7,11.8 C42.4,12 42,12 41.7,12 L41.7,12 C41,12 40.3,11.6 40,10.9 Z M104.2,10.3 C103.2,9.8 102.7,8.7 103.2,7.6 L103.2,7.6 C103.7,6.6 104.8,6.2 105.9,6.6 L105.9,6.6 C106.9,7.1 107.4,8.2 106.9,9.2 L106.9,9.2 C106.6,9.9 105.8,10.4 105.1,10.4 L105.1,10.4 C104.8,10.5 104.5,10.4 104.2,10.3 Z M49.9,6.4 C49.5,5.4 50.1,4.2 51.2,3.9 L51.2,3.9 C52.2,3.6 53.4,4.1 53.7,5.2 L53.7,5.2 C54,6.2 53.5,7.4 52.4,7.7 L52.4,7.7 C52.2,7.8 52,7.8 51.8,7.8 L51.8,7.8 C51,7.8 50.2,7.3 49.9,6.4 Z M94.3,6.7 C93.2,6.4 92.6,5.3 92.9,4.2 L92.9,4.2 C93.2,3.1 94.3,2.5 95.4,2.8 L95.4,2.8 L95.4,2.8 L95.4,2.8 C96.5,3.1 97.1,4.2 96.8,5.3 L96.8,5.3 C96.5,6.2 95.8,6.8 94.9,6.8 L94.9,6.8 C94.6,6.7 94.4,6.7 94.3,6.7 Z M60.4,3.4 C60.2,2.3 60.9,1.3 62,1.1 L62,1.1 L62,1.1 L62,1.1 C63.1,0.9 64.1,1.6 64.3,2.7 L64.3,2.7 C64.5,3.8 63.8,4.8 62.7,5 L62.7,5 C62.6,5 62.5,5 62.4,5 L62.4,5 C61.4,5.1 60.5,4.4 60.4,3.4 Z M83.8,4.6 C82.7,4.5 81.9,3.5 82.1,2.4 L82.1,2.4 C82.2,1.3 83.2,0.5 84.3,0.7 L84.3,0.7 C85.4,0.8 86.2,1.8 86,2.9 L86,2.9 C85.9,3.9 85,4.7 84,4.7 L84,4.7 C84,4.6 83.9,4.6 83.8,4.6 Z M71.2,2.1 C71.2,1 72,0.1 73.2,0.1 L73.2,0.1 C73.2,0.1 73.2,0.1 73.2,0.1 L73.2,0.1 C74.3,0.1 75.2,0.9 75.2,2 L75.2,2 C75.2,3.1 74.4,4 73.2,4.1 L73.2,4.1 C73.2,4.1 73.2,4.1 73.2,4.1 L73.2,4.1 C72.1,4 71.2,3.2 71.2,2.1 Z" id="Shape"></path>
            <path d="M73.5,136.1 C73.5,135 74.4,134.1 75.5,134.1 L75.5,134.1 C76.6,134.1 77.5,135 77.5,136.1 L77.5,136.1 C77.5,137.2 76.6,138.1 75.5,138.1 L75.5,138.1 L75.5,138.1 L75.5,138.1 C74.4,138 73.5,137.2 73.5,136.1 Z M64.3,137.1 C64.3,137.1 64.3,137.1 64.3,137.1 L64.3,137.1 C63.2,136.9 62.5,135.9 62.7,134.8 L62.7,134.8 C62.9,133.7 63.9,133 65,133.2 L65,133.2 C66.1,133.4 66.8,134.4 66.6,135.5 L66.6,135.5 C66.4,136.5 65.6,137.2 64.6,137.2 L64.6,137.2 C64.5,137.2 64.4,137.2 64.3,137.1 Z M84.5,135.4 C84.3,134.3 85,133.3 86.1,133.1 L86.1,133.1 C87.2,132.9 88.2,133.6 88.4,134.7 L88.4,134.7 C88.6,135.8 87.9,136.8 86.8,137 L86.8,137 C86.7,137 86.5,137 86.4,137 L86.4,137 C85.5,137 84.6,136.3 84.5,135.4 Z M53.4,134.2 C52.4,133.8 51.8,132.7 52.2,131.6 L52.2,131.6 C52.6,130.6 53.7,130 54.8,130.4 L54.8,130.4 C55.8,130.8 56.4,131.9 56,133 L56,133 C55.7,133.8 54.9,134.3 54.1,134.3 L54.1,134.3 C53.8,134.4 53.6,134.3 53.4,134.2 Z M95.1,132.7 C94.7,131.7 95.2,130.5 96.2,130.1 L96.2,130.1 C97.2,129.7 98.4,130.2 98.8,131.2 L98.8,131.2 C99.2,132.2 98.7,133.4 97.6,133.8 L97.6,133.8 C97.4,133.9 97.1,133.9 96.9,133.9 L96.9,133.9 C96.1,134 95.4,133.5 95.1,132.7 Z M43.2,129.4 C42.2,128.9 41.9,127.6 42.5,126.7 L42.5,126.7 C43.1,125.7 44.3,125.4 45.2,126 L45.2,126 C46.2,126.6 46.5,127.8 45.9,128.7 L45.9,128.7 C45.5,129.3 44.9,129.7 44.2,129.7 L44.2,129.7 C43.8,129.7 43.5,129.6 43.2,129.4 Z M105,128.2 C104.4,127.3 104.7,126 105.7,125.4 L105.7,125.4 C106.6,124.8 107.9,125.1 108.5,126.1 L108.5,126.1 C109.1,127 108.8,128.3 107.8,128.9 L107.8,128.9 C107.5,129.1 107.1,129.2 106.8,129.2 L106.8,129.2 C106.1,129.1 105.4,128.8 105,128.2 Z M34,122.9 L34,122.9 L34,122.9 C33.2,122.2 33.1,120.9 33.8,120.1 L33.8,120.1 C34.5,119.3 35.8,119.2 36.6,119.9 L36.6,119.9 C37.4,120.6 37.5,121.9 36.8,122.7 L36.8,122.7 C36.4,123.2 35.8,123.4 35.3,123.4 L35.3,123.4 C34.8,123.3 34.3,123.2 34,122.9 Z M114,121.9 C113.3,121.1 113.3,119.8 114.2,119.1 L114.2,119.1 C115,118.4 116.3,118.4 117,119.3 L117,119.3 C117.7,120.1 117.7,121.4 116.8,122.1 L116.8,122.1 C116.8,122.1 116.8,122.1 116.8,122.1 L116.8,122.1 C116.4,122.4 115.9,122.6 115.5,122.6 L115.5,122.6 C115,122.6 114.5,122.4 114,121.9 Z M26.1,114.8 C25.4,113.9 25.5,112.7 26.4,112 L26.4,112 C27.3,111.3 28.5,111.4 29.2,112.3 L29.2,112.3 C29.9,113.2 29.8,114.4 28.9,115.1 L28.9,115.1 C28.5,115.4 28.1,115.5 27.6,115.5 L27.6,115.5 C27,115.5 26.5,115.2 26.1,114.8 Z M121.8,114.2 C120.9,113.5 120.8,112.3 121.5,111.4 L121.5,111.4 C122.2,110.5 123.4,110.4 124.3,111.1 L124.3,111.1 C125.2,111.8 125.3,113 124.6,113.9 L124.6,113.9 C124.2,114.4 123.6,114.7 123,114.7 L123,114.7 C122.6,114.7 122.2,114.5 121.8,114.2 Z M19.8,105.4 L19.8,105.4 L19.8,105.4 C19.3,104.4 19.6,103.2 20.6,102.7 L20.6,102.7 C21.6,102.2 22.8,102.5 23.3,103.5 L23.3,103.5 C23.8,104.5 23.5,105.7 22.5,106.2 L22.5,106.2 C22.2,106.4 21.9,106.5 21.5,106.5 L21.5,106.5 C20.8,106.4 20.1,106.1 19.8,105.4 Z M128.1,105.2 C127.1,104.7 126.8,103.5 127.3,102.5 L127.3,102.5 C127.8,101.5 129,101.2 130,101.7 L130,101.7 C131,102.2 131.3,103.4 130.8,104.4 L130.8,104.4 C130.4,105.1 129.8,105.5 129,105.5 L129,105.5 C128.7,105.5 128.4,105.4 128.1,105.2 Z M15.2,95.1 L15.2,95.1 L15.2,95.1 C14.8,94 15.4,92.9 16.5,92.6 L16.5,92.6 C17.6,92.2 18.7,92.8 19,93.9 L19,93.9 C19.4,94.9 18.8,96.1 17.7,96.4 L17.7,96.4 C17.5,96.5 17.3,96.5 17.1,96.5 L17.1,96.5 C16.3,96.4 15.5,95.9 15.2,95.1 Z M132.6,95.3 C131.6,95 131,93.8 131.3,92.8 L131.3,92.8 C131.6,91.7 132.8,91.2 133.8,91.5 L133.8,91.5 C134.9,91.8 135.4,92.9 135.1,94 L135.1,94 L135.1,94 L135.1,94 C134.8,94.8 134.1,95.4 133.2,95.4 L133.2,95.4 C133,95.4 132.8,95.4 132.6,95.3 Z M12.6,84.1 C12.5,83 13.2,82 14.3,81.8 L14.3,81.8 C15.4,81.6 16.4,82.4 16.6,83.5 L16.6,83.5 C16.8,84.6 16,85.6 14.9,85.8 L14.9,85.8 C14.8,85.8 14.7,85.8 14.6,85.8 L14.6,85.8 C13.6,85.8 12.7,85.1 12.6,84.1 Z M135.3,84.7 C134.2,84.6 133.4,83.6 133.6,82.5 L133.6,82.5 C133.6,82.5 133.6,82.5 133.6,82.4 L133.6,82.4 C133.6,82.4 133.6,82.3 133.6,82.3 L133.6,82.3 C133.7,81.2 134.7,80.4 135.8,80.6 L135.8,80.6 C136.9,80.7 137.7,81.7 137.5,82.8 L137.5,82.8 L137.5,82.8 L137.5,82.8 C137.5,82.8 137.5,82.8 137.5,82.9 L137.5,82.9 C137.5,82.9 137.5,83 137.5,83 L137.5,83 L137.5,83 L137.5,83 C137.4,84 136.5,84.7 135.5,84.7 L135.5,84.7 C135.5,84.7 135.4,84.7 135.3,84.7 Z M13.9,74.9 C12.8,74.9 11.9,73.9 12,72.8 L12,72.8 C12,72.8 12,72.8 12,72.8 L12,72.8 C12,71.7 13,70.8 14.1,70.9 L14.1,70.9 C15.2,70.9 16.1,71.9 16,73 L16,73 C16,74 15.1,74.9 13.9,74.9 L13.9,74.9 C14,74.9 13.9,74.9 13.9,74.9 Z M134,71.7 C133.9,70.6 134.8,69.6 135.9,69.6 L135.9,69.6 C137,69.5 138,70.4 138,71.5 L138,71.5 C138.1,72.6 137.2,73.6 136.1,73.6 L136.1,73.6 C136.1,73.6 136,73.6 136,73.6 L136,73.6 C134.9,73.6 134,72.8 134,71.7 Z M14.9,64 C13.8,63.8 13.1,62.7 13.4,61.6 L13.4,61.6 C13.6,60.5 14.7,59.8 15.8,60.1 L15.8,60.1 C16.9,60.3 17.6,61.4 17.3,62.5 L17.3,62.5 C17.1,63.4 16.3,64.1 15.4,64.1 L15.4,64.1 C15.2,64 15.1,64 14.9,64 Z M132.4,61.2 L132.4,61.2 C132.1,60.1 132.8,59.1 133.9,58.8 L133.9,58.8 C135,58.5 136.1,59.2 136.3,60.3 L136.3,60.3 C136.6,61.4 135.9,62.4 134.8,62.7 L134.8,62.7 C134.6,62.7 134.5,62.8 134.3,62.8 L134.3,62.8 C133.5,62.8 132.7,62.1 132.4,61.2 Z M17.9,53.4 C16.9,53 16.4,51.8 16.8,50.8 L16.8,50.8 C17.2,49.8 18.4,49.3 19.4,49.7 L19.4,49.7 C20.4,50.1 20.9,51.3 20.5,52.3 L20.5,52.3 C20.2,53.1 19.4,53.5 18.7,53.5 L18.7,53.5 C18.4,53.6 18.1,53.5 17.9,53.4 Z M129,51.2 L129,51.2 C128.6,50.2 129,49 130,48.6 L130,48.6 C131,48.1 132.2,48.6 132.6,49.6 L132.6,49.6 C132.6,49.6 132.6,49.6 132.6,49.6 L132.6,49.6 C133,50.6 132.6,51.8 131.6,52.2 L131.6,52.2 C131.3,52.3 131.1,52.4 130.8,52.4 L130.8,52.4 C130.1,52.4 129.4,51.9 129,51.2 Z M22.6,43.6 C21.7,43 21.4,41.8 22,40.8 L22,40.8 C22.6,39.9 23.8,39.6 24.8,40.2 L24.8,40.2 C25.7,40.8 26,42 25.4,43 L25.4,43 C25,43.6 24.4,43.9 23.7,43.9 L23.7,43.9 C23.3,43.9 23,43.8 22.6,43.6 Z M123.9,41.9 L123.9,41.9 C123.3,41 123.5,39.7 124.4,39.1 L124.4,39.1 C125.3,38.5 126.6,38.7 127.2,39.6 L127.2,39.6 L127.2,39.6 L127.2,39.6 C127.8,40.5 127.6,41.8 126.7,42.4 L126.7,42.4 C126.4,42.6 126,42.8 125.6,42.8 L125.6,42.8 C124.9,42.8 124.3,42.5 123.9,41.9 Z M29.1,34.7 C28.3,33.9 28.3,32.7 29,31.9 L29,31.9 L29,31.9 L29,31.9 C29.8,31.1 31,31.1 31.8,31.8 L31.8,31.8 C32.6,32.6 32.6,33.8 31.9,34.6 L31.9,34.6 C31.5,35 31,35.2 30.4,35.2 L30.4,35.2 C30,35.3 29.5,35.1 29.1,34.7 Z M117.2,33.7 C116.4,32.9 116.4,31.6 117.2,30.9 L117.2,30.9 C118,30.1 119.3,30.1 120,30.9 L120,30.9 C120.8,31.7 120.8,33 120,33.7 L120,33.7 C119.6,34.1 119.1,34.3 118.6,34.3 L118.6,34.3 C118.2,34.3 117.6,34.1 117.2,33.7 Z M37,27.2 C36.3,26.3 36.5,25.1 37.4,24.4 L37.4,24.4 L37.4,24.4 L37.4,24.4 C38.3,23.7 39.5,23.9 40.2,24.8 L40.2,24.8 C40.9,25.7 40.7,26.9 39.8,27.6 L39.8,27.6 C39.5,27.9 39,28 38.6,28 L38.6,28 C38,28 37.4,27.7 37,27.2 Z M109.2,26.9 C108.3,26.3 108.1,25 108.7,24.1 L108.7,24.1 C109.3,23.2 110.6,23 111.5,23.6 L111.5,23.6 C112.4,24.2 112.6,25.5 112,26.4 L112,26.4 C111.6,26.9 111,27.2 110.4,27.2 L110.4,27.2 C110,27.2 109.5,27.1 109.2,26.9 Z M46.2,21.2 C45.7,20.2 46.1,19 47.1,18.5 L47.1,18.5 C48.1,18 49.3,18.4 49.8,19.4 L49.8,19.4 C50.3,20.4 49.9,21.6 48.9,22.1 L48.9,22.1 C48.6,22.2 48.3,22.3 48,22.3 L48,22.3 C47.2,22.3 46.5,21.9 46.2,21.2 Z M100.1,21.5 L100.1,21.5 C99.1,21 98.7,19.8 99.1,18.8 L99.1,18.8 C99.6,17.8 100.8,17.4 101.8,17.8 L101.8,17.8 L101.8,17.8 L101.8,17.8 C102.8,18.3 103.2,19.5 102.8,20.5 L102.8,20.5 C102.5,21.2 101.7,21.6 101,21.6 L101,21.6 C100.6,21.7 100.3,21.6 100.1,21.5 Z M56.2,16.9 C55.9,15.8 56.5,14.7 57.6,14.4 L57.6,14.4 C57.6,14.4 57.6,14.4 57.6,14.4 L57.6,14.4 C58.7,14.1 59.8,14.7 60.1,15.8 L60.1,15.8 C60.4,16.9 59.8,18 58.7,18.3 L58.7,18.3 C58.5,18.3 58.3,18.4 58.2,18.4 L58.2,18.4 C57.3,18.3 56.5,17.7 56.2,16.9 Z M90.1,17.9 C89,17.6 88.4,16.5 88.7,15.5 L88.7,15.5 C89,14.4 90.1,13.8 91.1,14.1 L91.1,14.1 C91.1,14.1 91.1,14.1 91.1,14.1 L91.1,14.1 C92.2,14.4 92.8,15.5 92.5,16.5 L92.5,16.5 C92.3,17.4 91.5,18 90.6,18 L90.6,18 C90.5,18 90.3,18 90.1,17.9 Z M66.9,14.4 C66.8,13.3 67.6,12.3 68.7,12.2 L68.7,12.2 C69.8,12.1 70.8,12.9 70.9,14 L70.9,14 C71,15.1 70.2,16.1 69.1,16.2 L69.1,16.2 C69,16.2 69,16.2 68.9,16.2 L68.9,16.2 C67.9,16.3 67,15.5 66.9,14.4 Z M79.7,16.1 C78.6,16 77.8,15 77.9,13.9 L77.9,13.9 C78,12.8 78.9,12 80,12.1 L80,12.1 C81.1,12.2 81.9,13.1 81.8,14.3 L81.8,14.3 C81.7,15.3 80.8,16.1 79.8,16.1 L79.8,16.1 C79.8,16.1 79.7,16.1 79.7,16.1 Z" id="Shape"></path>
            <path d="M75,87.9 C74.1,87.9 73.3,87.8 72.4,87.6 C69,87 66.1,85 64.2,82.1 C62.3,79.2 61.6,75.8 62.3,72.4 C63,69 65,66.1 67.8,64.2 C70.6,62.3 74.1,61.6 77.5,62.3 C84.5,63.7 89,70.6 87.6,77.5 C87,81 85,83.9 82.1,85.8 C80,87.2 77.5,87.9 75,87.9 Z M75,65.1 C73.1,65.1 71.2,65.7 69.6,66.7 C67.4,68.2 65.9,70.4 65.4,73 C64.9,75.6 65.4,78.2 66.8,80.5 C68.3,82.7 70.5,84.2 73.1,84.7 C75.7,85.2 78.3,84.7 80.5,83.3 C82.7,81.9 84.2,79.6 84.7,77 L84.7,77 C85.8,71.6 82.3,66.4 77,65.3 C76.3,65.1 75.6,65.1 75,65.1 Z" id="Shape"></path>
            <path d="M104.7,81 C104.7,81 104.7,81 104.7,81 C108,64.6 97.4,48.6 81.1,45.3 C74.7,44 68.2,44.8 62.3,47.5 C63,48.2 63.6,49.1 63.9,50.1 C67.4,48.5 71.1,47.7 74.9,47.7 C76.7,47.7 78.6,47.9 80.4,48.3 C95.1,51.3 104.7,65.7 101.7,80.5 C98.7,95.2 84.3,104.8 69.5,101.8 C54.8,98.8 45.2,84.4 48.2,69.6 C48.9,66.2 50.2,63.1 52,60.2 C51.1,59.7 50.4,59 49.7,58.2 C47.5,61.4 46,65.1 45.2,69 C42,85.3 52.6,101.3 69,104.7 C71,105.1 73.1,105.3 75.1,105.3 C89.1,105.3 101.7,95.4 104.7,81 Z" id="Shape"></path>
            <path d="M114.9,49 C108.2,38.4 97.8,31.1 85.6,28.4 C60.4,22.7 35.3,38.6 29.6,63.8 C26.9,76 29,88.5 35.7,99.1 C42.4,109.7 52.8,117 65,119.7 C68.4,120.5 71.9,120.8 75.3,120.8 C83.2,120.8 90.8,118.8 97.5,115.1 C96.8,114.4 96.2,113.5 95.8,112.6 C86.9,117.4 76.2,119.1 65.6,116.7 C54.2,114.1 44.4,107.3 38.2,97.4 C32,87.5 29.9,75.8 32.5,64.4 C37.9,40.9 61.4,26 85,31.3 C96.4,33.9 106.2,40.7 112.4,50.6 C118.6,60.5 120.7,72.2 118.1,83.6 C116.5,90.5 113.4,96.6 109.3,101.7 C109.8,102 110.2,102.4 110.6,102.8 L110.6,102.8 C110.9,103.1 111.2,103.5 111.4,103.8 C116,98.3 119.4,91.7 121,84.3 C123.8,72.1 121.6,59.6 114.9,49 Z" id="Shape"></path>
            <path d="M56.3,47.9 C53.4,47.9 51.1,50.2 51.1,53.1 C51.1,56 53.4,58.3 56.3,58.3 C59.2,58.3 61.5,56 61.5,53.1 C61.5,50.2 59.2,47.9 56.3,47.9 Z M56.3,55.4 C55.1,55.4 54.1,54.4 54.1,53.2 C54.1,52 55.1,51 56.3,51 C57.5,51 58.5,52 58.5,53.2 C58.5,54.4 57.5,55.4 56.3,55.4 Z" id="Shape"></path>
            <path d="M108.3,104.9 C107.2,103.7 105.7,103.1 104.1,103.1 C100.8,103 98.1,105.7 98,109 C98,110.6 98.6,112.1 99.7,113.3 C100.8,114.5 102.3,115.1 103.9,115.1 C103.9,115.1 104,115.1 104,115.1 C107.2,115.1 109.9,112.5 110,109.2 C110,107.6 109.5,106.1 108.3,104.9 Z M104,112 C103.2,112 102.5,111.7 101.9,111.1 C101.4,110.5 101.1,109.8 101.1,109 C101.1,107.4 102.5,106.1 104.1,106.1 C104.1,106.1 104.1,106.1 104.2,106.1 C105,106.1 105.7,106.4 106.3,107 C106.8,107.6 107.1,108.3 107.1,109.1 C107,110.8 105.6,112.1 104,112 Z" id="Shape"></path>
        </g>
    </g>
</svg>