<?xml version="1.0" encoding="utf-8"?>
<!-- Generator: Adobe Illustrator 18.1.0, SVG Export Plug-In . SVG Version: 6.00 Build 0)  -->
<svg version="1.1" id="Layer_1" xmlns="http://www.w3.org/2000/svg" xmlns:xlink="http://www.w3.org/1999/xlink" x="0px" y="0px"
	 viewBox="0 0 1000 557.6" enable-background="new 0 0 1000 557.6" xml:space="preserve">
<rect x="-0.5" y="0.5" fill="#4D4D4D" stroke="#000000" stroke-miterlimit="10" width="1000" height="557"/>
<g>
	<path fill="#FFFFFF" d="M619.6,328.9c-2.8-0.3-5.3,1.7-5.7,4.4c0,0.3-3.8,29-30.9,32.7c-34.5,4.6-42.2-14.5-47.2-27.1l-0.3-0.7
		c-4.6-11.5-8-21.9-10.5-29.5c-2.7-8.2-4.3-13.1-6.1-15.8c-1.4-2.1-34.8-52,7.5-93.6c14.7-14.5,34.7-18.8,53.4-11.4
		c18.1,7.2,29.9,23.1,30.6,41.7c0.1,2.8,2.5,5,5.3,4.9c2.8-0.1,5-2.5,4.9-5.3c-0.9-22.3-15.5-42.3-37.1-50.8
		c-22.6-8.9-46.6-3.8-64.3,13.7c-18.3,18-26.5,40.4-23.8,64.9c2.5,22.4,13,38.8,15.1,41.8c1,1.4,2.8,7.1,4.8,13.2
		c2.5,7.7,5.9,18.3,10.7,30.2l0.3,0.7c4.9,12.3,13.7,34.2,46.5,34.2c3.6,0,7.4-0.3,11.6-0.8c27.8-3.7,38.1-28.8,39.6-41.5
		C624.4,331.7,622.4,329.2,619.6,328.9z"/>
	<path fill="#FFFFFF" d="M598.3,274.1c1.7-0.5,3.7,0.4,4.3,0.8c2.4,1.5,5.5,0.8,7-1.6c1.5-2.4,0.8-5.5-1.6-7c-0.6-0.4-6-3.6-12.2-2
		c-2.7,0.7-6.5,2.6-9.3,7.7c-5.2,9.3,0.9,20.4,5,27.7c1,1.8,2.3,4.1,2.5,4.9c1.3,5.2-0.4,11-4,13.8c-4.1,3.1-9,1.5-12.4-0.5
		c-15.1-8.6-20.1-23.8-15-45.2c5.5-22.9,22.9-27.4,27-28.2c1.6,5,2,8.9,2,8.9c0.3,2.8,2.8,4.8,5.6,4.6c2.8-0.3,4.8-2.8,4.6-5.6
		c-0.1-0.9-2.4-22.6-17.3-33.1c-7.7-5.5-17.1-6.9-28-4.3c-16.6,4-26.4,17.1-28.3,38.1c-1.4,14.9,1.7,28.4,1.8,29c0.5,2.4,2.6,4,5,4
		c0.4,0,0.8,0,1.1-0.1c2.7-0.6,4.5-3.4,3.8-6.1c0-0.1-2.9-12.7-1.6-26c1.6-16.3,8.5-26,20.5-28.9c8-1.9,14.5-1,19.7,2.7
		c2.8,2,5,4.6,6.8,7.4c-8.2,2.1-26.4,9.7-32.6,35.3c-7.9,32.8,6.4,48.8,19.8,56.5c4.2,2.4,8.4,3.6,12.3,3.6c4.1,0,8-1.3,11.3-3.8
		c7-5.3,10.1-15.2,7.7-24.5c-0.5-2.1-1.8-4.4-3.4-7.3c-3-5.3-7.4-13.4-5-17.7C596.6,274.5,597.9,274.2,598.3,274.1z"/>
	<path fill="#FFFFFF" d="M481.6,320.2L447.1,347c-2.7,2.1-3.1,5.9-1.1,8.5c1.2,1.5,3,2.4,4.8,2.4c1.3,0,2.6-0.4,3.7-1.3l34.5-26.8
		c2.7-2.1,3.1-5.9,1.1-8.5C488.1,318.6,484.2,318.1,481.6,320.2z"/>
	<path fill="#FFFFFF" d="M473.9,267.3c-0.3-3.3-3.1-5.7-6.4-5.5l-60.3,4.8c-3.3,0.3-5.7,3.1-5.5,6.4c0.2,3.1,2.9,5.5,5.9,5.5
		c0.2,0,0.3,0,0.5,0l60.3-4.8C471.8,273.5,474.2,270.6,473.9,267.3z"/>
	<path fill="#FFFFFF" d="M430.9,195.8l44.1,12.7c0.6,0.2,1.2,0.3,1.8,0.3c2.8,0,5.4-1.9,6.2-4.7c1-3.4-1-7-4.4-8l-44.1-12.7
		c-3.4-1-7,1-8,4.4C425.4,191.2,427.4,194.8,430.9,195.8z"/>
</g>
<polygon fill="#FFFFFF" points="168.3,227.1 156.4,232.9 74.5,192.9 74.5,272.8 64,277.9 64,182 75.9,182 97.3,192.5 "/>
<path fill="#FFFFFF" d="M75.9,182l21.4,10.4h141.9l-71,34.6l-11.9,5.8l-81.9,39.9L64,277.9v5.8h208.6V182H75.9z M97.3,273.3l71-34.6
	l71,34.6H97.3z M262.2,272.8l-81.9-39.9l81.9-39.9V272.8z"/>
<path fill="#FFFFFF" d="M64,294.1v52.1h10.4v-10.4h10.4v10.4h10.4v-52.1H64z M84.9,325.4H74.5v-20.9h10.4V325.4z"/>
<rect x="105.7" y="294.1" fill="#FFFFFF" width="166.9" height="10.4"/>
<rect x="105.7" y="315" fill="#FFFFFF" width="166.9" height="10.4"/>
<rect x="105.7" y="335.9" fill="#FFFFFF" width="166.9" height="10.4"/>
<rect x="64" y="356.7" fill="#FFFFFF" width="208.6" height="10.4"/>
<rect x="64" y="377.6" fill="#FFFFFF" width="208.6" height="10.4"/>
<polygon fill="#FFFFFF" points="339.1,295.8 339.1,290.5 314.7,290.5 314.7,284.6 339.1,284.6 339.1,279.3 347,287.5 "/>
<polygon fill="#FFFFFF" points="731.6,295.8 731.6,290.5 707.2,290.5 707.2,284.6 731.6,284.6 731.6,279.3 739.5,287.5 "/>
<text transform="matrix(1 0 0 1 779.0753 363.0928)" fill="#FFFFFF" font-family="'AlexBrush-Regular'" font-size="374">?</text>
</svg>
