<svg xmlns="http://www.w3.org/2000/svg" viewBox="0 0 181 66.4" enable-background="new 0 0 181 66.4"><g clip-rule="evenodd"><path stroke="#fff" stroke-width="2.638" stroke-miterlimit="2.613" d="M1.3 33.2c0-17.6 31.9-31.9 89.2-31.9 57.8 0 89.2 14.3 89.2 31.9 0 17.6-31.4 32.1-89.2 31.9-57.3 0-89.2-14.3-89.2-31.9z" fill="none"/><path fill-rule="evenodd" fill="#fff" d="M85.2 42.4c1.7-.1 4.3-.3 5.6-4.5.3-1.2 1.3-3.1-2.4-3.1s-6.1 1.4-6 5.3c0 1.9 1 2.4 2.8 2.3zm64 0c1.7-.1 4.4-.3 5.6-4.5.3-1.2 1.3-3.1-2.4-3.1s-6.1 1.4-6 5.3c.1 1.9 1.1 2.4 2.8 2.3zM104.3 6.3c-47 0-73.2 12.1-73.2 27s26.2 27 73.2 27c47.4.2 73.2-12.1 73.2-27s-25.8-27-73.2-27zm14.3 15.6l1.3-4.2s.2-.5.8-.5h4.3c.7 0 .4.7.4.7l-1.3 3.9s-.2.6-.8.6H119c-.5 0-.4-.5-.4-.5zM74.4 38.7c-1.8 4.2-4.5 6.6-10.5 6.6H50.4c-.9 0-.7-.8-.7-.8l6-19.7s1.7-4.8 7.6-4.8h8.2c2.1 0 7.6.1 5.8 6.1-1 3.2-2.1 4.8-4.1 5.7 2 .9 3.1 2.7 1.2 6.9zm19.3 6.6h-4.2c-.4-.1-.5-.3-.5-.3s-.1-.2-.3-.4-.4-.1-.4-.1-.8.6-5.7.7c-5.4.1-7.1-3-5.7-7.1 1.6-4.7 4-6.6 14.4-6 0 0 1.2.1 1.6-1.2.4-1.4-.2-2.9-3.3-3-3-.1-7.5.4-7.5.4s-.5 0-.4-.5c.1-.5.2-1.3.2-1.3s.1-.4.6-.6c.5-.2 4.6-1.1 7.9-1 3.3.1 9.8-.1 8 6.1-1.9 6.2-4.3 13.8-4.3 13.8s-.1.5-.4.5zM108 30.7c-.8 2.8-4.4 13.9-4.4 13.9s-.2.6-.8.6h-4.3c-.6 0-.5-.4-.5-.4s3.9-12.5 4.6-14.8c.7-2.2 2.2-5.1 7.7-5 3.1 0 4.2.4 4.2.4s.7.3.6.8l-.3 1.5s-.2.6-.8.4c-.7-.1-1.5-.3-2.1-.3-.5.1-3.1.2-3.9 2.9zm8.4 14.6h-4.3c-.6 0-.5-.4-.5-.4l6-19.2s.2-.5.8-.5h4.3c.7 0 .4.7.4.7l-5.9 19c0-.2-.2.4-.8.4zm9.5 0h-4.3c-.6 0-.5-.4-.5-.4l7.8-25.1s.2-.5.8-.5h4.3c.7 0 .4.7.4.7l-7.7 24.8c0-.1-.2.5-.8.5zm9.5 0H131c-.6 0-.5-.4-.5-.4l7.8-25.1s.2-.5.8-.5h4.4c.7 0 .4.7.4.7l-7.7 24.8c-.1-.1-.3.5-.8.5zM162.5 31c-1.9 6.2-4.3 13.8-4.3 13.8s-.2.4-.6.4h-4.2c-.4 0-.5-.2-.5-.2s-.1-.2-.3-.4c-.2-.2-.4-.1-.4-.1s-.8.6-5.7.7c-5.4.1-7.1-3-5.7-7.1 1.6-4.7 4-6.6 14.4-6 0 0 1.2.1 1.6-1.2.4-1.4-.2-2.9-3.3-3-3-.1-7.5.4-7.5.4s-.5 0-.4-.5c.1-.5.2-1.3.2-1.3s.1-.4.6-.6c.5-.2 4.6-1.1 7.9-1 3.6.1 10.1 0 8.2 6.1zm-101.2-.5s-1.1 0-.7-1c.4-1 1.1-3.7 1.1-3.7s.8-2.6 4.2-2.6h3.9c1.2 0 3.3.7 2.1 3.7-1.2 3-3 3.6-4.8 3.6h-5.8zM57.8 42s-1.1 0-.7-1c.4-1 1.8-6 1.8-6s.5-1.5 2.4-1.5h5.3c1.2 0 3.5.7 2.2 4.3-.9 2.5-3.5 4.1-5.3 4.1-1.9.1-5.7.1-5.7.1z"/></g></svg>