<?xml version="1.0" encoding="UTF-8"?>
<svg width="400px" height="200px" viewBox="0 0 400 200" version="1.1" xmlns="http://www.w3.org/2000/svg" xmlns:xlink="http://www.w3.org/1999/xlink">
    <!-- Generator: Sketch 46 (44423) - http://www.bohemiancoding.com/sketch -->
    <title>carrot</title>
    <desc>Created with Sketch.</desc>
    <defs></defs>
    <g id="Page-1" stroke="none" stroke-width="1" fill="none" fill-rule="evenodd">
        <g id="carrot" fill-rule="nonzero">
            <rect id="Rectangle-1" fill-opacity="0.01" fill="#FFFFFF" x="0" y="0" width="400" height="200"></rect>
            <g id="Group-2" transform="translate(138.000000, 86.000000)" fill="#333333">
                <path d="M113.978387,11.0371523 L110.393916,11.0371523 L110.393916,7.13501084 L113.978387,7.13501084 L113.978387,0 L119.115181,0 L119.115181,7.13501084 L124.620946,7.13501084 L124.620946,11.0371523 L119.115181,11.0371523 L119.115181,18.9529133 C119.115181,20.5635126 119.441733,21.6094764 120.094437,22.0928171 C120.747141,22.5761579 122.083764,22.4996927 124.104305,22.4996927 L124.620946,22.4996927 L124.620946,26.7141342 C124.620946,26.7141342 121.86086,26.7245978 119.927959,26.719366 C117.995059,26.7141342 116.503564,26.1869265 115.493093,25.1212427 C114.483822,24.0563638 113.978387,22.5572428 113.978387,20.6250872 L113.978387,11.0371523 L113.978387,11.0371523 Z M104.748886,17.0215626 C104.748886,18.0643069 104.784903,19.8934357 103.568736,21.3386285 C102.278535,22.7846263 100.751023,22.9564718 99.1650839,22.9564718 L99.1582807,22.9564718 C97.5723417,22.9564718 96.0448298,22.7846263 94.7546286,21.3386285 C93.5384619,19.8934357 93.5744787,18.0643069 93.5744787,17.0215626 C93.5744787,15.9792208 93.5096485,13.8498654 94.7266156,12.4416978 C95.9427823,11.0327253 97.757628,11.0447988 99.1582807,11.0447988 L99.1650839,11.0447988 C100.566137,11.0447988 102.380982,11.0327253 103.597149,12.4416978 C104.814116,13.8498654 104.748886,15.9792208 104.748886,17.0215626 L104.748886,17.0215626 Z M107.05316,9.0144457 C104.878947,7.01306892 101.524583,6.93821349 99.1650839,6.93821349 L99.1582807,6.93821349 C96.798381,6.93821349 93.4444181,7.01306892 91.2702049,9.0144457 C88.9847399,11.0902755 88.7634367,14.870475 88.7634367,17.0589903 C88.7634367,19.0603671 88.9475225,22.7669185 91.2702049,24.9172013 C93.4444181,26.8827601 96.798381,27.0304588 99.1582807,27.0304588 L99.1650839,27.0304588 C101.524583,27.0304588 104.878947,26.8827601 107.05316,24.9172013 C109.376242,22.7669185 109.559928,19.0603671 109.559928,17.0589903 C109.559928,14.870475 109.338625,11.0902755 107.05316,9.0144457 Z M80.7589067,12.4835524 C80.463569,12.929063 80.3155,13.7963397 80.3155,15.0845776 L80.3155,26.7535741 L75.2899582,26.7535741 L75.2899582,14.639067 C75.2899582,11.9132828 75.9670737,9.96865128 77.3221051,8.80436754 C78.5782905,7.71413435 80.5872267,7.16921897 83.3457121,7.16921897 C86.1045977,7.16921897 87.8910302,7.27023356 87.8910302,7.27023356 L87.8910302,11.5128465 C87.8910302,11.5128465 85.1709627,11.4432229 83.7154844,11.4432229 C82.2604064,11.4432229 81.2263245,11.7893286 80.7589067,12.4835524 L80.7589067,12.4835524 Z M66.9800858,12.4835524 C66.684348,12.929063 66.5366792,13.7963397 66.5366792,15.0845776 L66.5366792,26.7535741 L61.5111373,26.7535741 L61.5111373,14.639067 C61.5111373,11.9132828 62.1882528,9.96865128 63.5440846,8.80436754 C64.7990694,7.71413435 66.8080056,7.16921897 69.566491,7.16921897 C72.3253767,7.16921897 74.1122093,7.27023356 74.1122093,7.27023356 L74.1122093,11.5128465 C74.1122093,11.5128465 71.3917416,11.4432229 69.9366635,11.4432229 C68.4815855,11.4432229 67.4475036,11.7893286 66.9800858,12.4835524 L66.9800858,12.4835524 Z M31.0953636,22.5713285 L36.4906778,22.5713285 L36.4906778,26.7700745 L29.5794572,26.7700745 C26.2046846,26.7700745 23.6490937,25.9100419 21.9118842,24.187562 C20.1758752,22.465887 19.3074705,20.0813792 19.3074705,17.0340385 C19.3074705,14.334011 19.88574,12.1905699 21.0434795,10.6049225 C22.7186601,8.32545374 25.563986,7.18571936 29.5794572,7.18571936 L36.4906778,7.18571936 L36.4906778,11.4593208 L31.0953636,11.4593208 C28.9515646,11.4593208 27.4488644,11.7450593 26.5868627,12.314524 C25.3542883,13.1318971 24.7392017,14.7058735 24.7392017,17.0340385 C24.7392017,18.7190907 25.0717567,19.9703033 25.7372668,20.7868715 C26.7217256,21.9761071 28.508158,22.5713285 31.0953636,22.5713285 L31.0953636,22.5713285 Z M47.0031766,22.868738 L53.4321725,22.868738 L53.4321725,18.7798605 L47.3717484,18.7798605 C46.4361124,18.7798605 45.7461909,18.8796677 45.3031844,19.0776724 C44.6128627,19.3750819 44.2687024,19.9578274 44.2687024,20.8247017 C44.2687024,21.6420747 44.4836025,22.1869901 44.9150035,22.4594478 C45.345204,22.7323079 46.0419287,22.868738 47.0031766,22.868738 Z M48.7391856,11.2367668 L40.1295736,11.2367668 L40.1295736,7.18571936 L50.6612813,7.18571936 C56.0069724,7.18571936 58.6798179,9.62656999 58.6798179,14.5066614 L58.6798179,26.7700745 L44.896595,26.7700745 C43.0241224,26.7700745 41.5454333,26.250111 40.4621285,25.2093789 C39.377223,24.1690494 38.8353705,22.7568573 38.8353705,20.9732052 C38.8353705,18.5951366 39.5993265,16.9350362 41.1268383,15.9933065 C42.3342009,15.2507889 44.1694561,14.8789264 46.6330041,14.8789264 L53.4321725,14.8789264 C53.4321725,13.4908812 53.0996175,12.5370781 52.4349078,12.0171145 C51.7697979,11.4967485 50.5376237,11.2367668 48.7391856,11.2367668 L48.7391856,11.2367668 Z" id="Shape"></path>
                <polyline id="Shape" points="11.4193218 14.1431422 2.41659332 10.4565376 0 14.3700102 9.79814389 17.1803373 0.00958331785 19.7998522 2.42697524 23.7141351 11.3781934 20.2381935 5.74679627 27.0304588 10.8015971 27.0304588 17.5522459 17.1965421 10.8099825 7.3719433 5.75917472 7.3719433 11.4193218 14.1431422"></polyline>
            </g>
        </g>
    </g>
</svg>