<svg width="305pt" height="39pt" viewBox="0 0 305 39" xmlns="http://www.w3.org/2000/svg"><path d="M289.5 1.7c3.22.01 6.44.03 9.66.03.05 9.78-.07 19.57.04 29.35-.03 1.8 1.68 2.93 2.54 4.34-4.07-.04-8.14-.01-12.21-.04.9-1.08 1.82-2.15 2.73-3.22-.02-9.1.02-18.19-.03-27.29-.92-1.05-1.83-2.11-2.73-3.17zM5.98 2.43C13.6 8.85 20.8 15.75 28.27 22.35c-.12-4.82.21-9.65-.18-14.46-.65-1.35-1.66-2.49-2.52-3.7 3.95.12 7.91.1 11.86-.02-.9 1.51-2.59 2.8-2.54 4.71-.11 9.36.03 18.74-.05 28.11C27.31 30.45 20 23.66 12.62 16.95c-.03 5.03 0 10.06-.01 15.09.96 1.11 1.93 2.22 2.88 3.33-4.07.03-8.15.01-12.22.06.87-1.42 2.63-2.53 2.61-4.35.17-9.55-.07-19.1.1-28.65zm162.29.86c3.2-1.31 6.74 2.57 4.93 5.58-1.25 2.8-5.77 2.76-7.13.06-1.37-2.05.01-4.86 2.2-5.64zm-128.76.9c7.36.34 14.76-.36 22.09.38 4.73.54 7.75 5.89 6.15 10.26-.66 2.15-2.82 3.12-4.58 4.22 1.88.91 4.17 1.54 5.23 3.52 2.1 3.65.99 9.05-2.78 11.16-2.91 1.69-6.39 1.68-9.65 1.69-5.53-.04-11.07 0-16.6-.05.96-1.09 1.93-2.17 2.89-3.26-.11-7.72.09-15.44-.05-23.16.06-1.97-1.7-3.26-2.7-4.76m10.01 5.72l-.03 6.62c3.13-.07 6.27.17 9.38-.24 2.8-.58 2.77-5.41-.03-5.96-3.07-.55-6.21-.35-9.32-.42m0 12.15l-.03 7.44c3.47-.14 7.05.43 10.43-.48 2.87-.93 2.84-6.01-.22-6.63-3.35-.61-6.79-.27-10.18-.33zM81.15 5.1c5.68-2.94 12.07.25 17.89-1.76-1.1 3.63-2.04 7.29-2.88 10.98-1.88-3.14-5.39-5.5-9.17-4.35-8.87 1.52-9.99 15.71-2.09 19.27 3.96 1.83 8.37.09 11.31-2.78 1.41 1.7 2.82 3.39 4.21 5.1-6.26 5.48-16.39 6.14-22.97.89-8.72-6.97-6.97-23.19 3.7-27.35zm20.31-.82c4.32-.02 8.65-.03 12.98-.01-.95 1.02-1.92 2.03-2.89 3.04.03 5.88-.25 11.78.1 17.66.31 6.22 10.83 6.73 11.98.77.61-5.57.24-11.22.26-16.83.09-1.94-1.62-3.23-2.57-4.73 4.23.12 8.46.05 12.7.14-.94 1.01-1.87 2.01-2.81 3.01-.15 5.58.08 11.17-.08 16.76-.02 4.35-2.38 8.8-6.47 10.57-4.4 1.87-9.69 1.92-14.03-.15-3.71-1.72-6.02-5.66-6.19-9.69-.25-5.86.07-11.73-.15-17.6-.95-.97-1.9-1.95-2.83-2.94zm146.15 10.4c4.7-2.45 10.1.47 14.89-1.58-.81 2.78-1.55 5.58-2.2 8.39-2.33-2.35-5.77-3.92-9.02-2.46-.02.49-.08 1.48-.11 1.98 3.19 1.25 6.94 1 9.78 3.11 3.29 2.68 2.29 8.62-1.47 10.42-5.29 2.67-11.77 1.57-16.77-1.26 1.06-1.55 2.13-3.1 3.2-4.65 3.04 1.41 6.99 3.53 10.15 1.29l-.4-1.73c-2.92-1.29-6.36-1.05-9.11-2.78-3.79-2.45-3.02-8.99 1.06-10.73zm-112.52-.74c3.14-.02 6.29.06 9.44.13-.04.78-.11 2.34-.14 3.12 2.1-1.95 4.58-4.01 7.67-3.61 3.91-.15 6.94 3.58 6.77 7.33.51 4.91-1.54 10.83 2.77 14.53-3.16-.05-6.32-.05-9.48-.05-.17-4.67.5-9.42-.39-14.03-1.16-3.08-6.02-2.27-6.75.72-.52 3.31-.19 6.69-.26 10.04.98 1.08 1.96 2.16 2.94 3.25-4.21.04-8.41.05-12.62-.03.93-.98 1.86-1.96 2.8-2.93.16-5.12.12-10.26.01-15.38-.93-1.03-1.85-2.06-2.76-3.09zm28.33-.02c3.25.01 6.49.05 9.74.14.08 5.67-.12 11.35.04 17.02-.09 1.84 1.7 2.93 2.59 4.32-4.13-.01-8.27.01-12.41-.01.96-1.11 1.94-2.21 2.91-3.31-.09-5.01-.03-10.02-.08-15.03-.94-1.04-1.87-2.08-2.79-3.13zm11.88-.03c2.86.05 5.72.11 8.57.2 1.41 3.39 2.85 6.76 4.24 10.16 1.29-3.39 2.56-6.78 3.82-10.17 2.89-.08 5.79-.14 8.68-.18-5.64 6.78-8.27 15.42-12.66 22.98-4.28-7.62-7.12-16.14-12.65-22.99zm30.37.84c4.33-1.88 10.28-1.76 13.55 2.07 2.35 2.69 2.37 6.43 2.55 9.8-5.22.1-10.44-.07-15.65.14 1.16 1.25 2.05 3.02 3.83 3.5 2.39.89 4.72-.41 6.91-1.23 1.23 1.45 2.46 2.89 3.68 4.35-4.89 3.02-11.59 3.86-16.56.59-6.54-4.43-5.53-15.99 1.69-19.22m.3 7.65c3.06.26 6.14.27 9.22.15-1.03-1.59-1.89-3.94-4.17-3.9-2.45-.23-3.72 2.17-5.05 3.75zm17.63-8.43c3.12-.01 6.24-.01 9.36-.01l-.16 3.63c2.19-3.17 5.8-4.61 9.59-3.87-.53 2.33-1.1 4.66-1.62 6.99-2.43-1.16-6.32-1.56-7.19 1.73-.39 4.4-1.57 9.88 2.5 12.99-4.12-.02-8.24-.03-12.36.01.87-1.14 1.82-2.22 2.57-3.44.48-4.94.12-9.92.13-14.87-.95-1.05-1.89-2.1-2.82-3.16zm42.41 2.73c4.43-3.14 10.35-4.1 15.46-2.18 2.38.92 4 3.28 4.14 5.81.31 3.94.11 7.91.11 11.86.92 1.07 1.84 2.13 2.76 3.21-3.12.02-6.25.02-9.37.01.05-.54.14-1.64.18-2.18-2.95 2.59-7.47 3.88-11 1.66-3.79-2.18-3.7-8.47.08-10.61 3.18-1.85 7.04-1.28 10.5-2.19.4-1.37 0-2.28-1.19-2.71-2.79-1.45-5.69.24-8.11 1.59-1.19-1.42-2.38-2.84-3.56-4.27m6.52 11.02c-1.01 2.17 1.25 4.2 3.4 3.35 2.45-.43 2.89-3.08 3.43-5.07-2.28.38-5.07-.13-6.83 1.72z" fill="#FFF"/></svg>