<?xml version="1.0" encoding="UTF-8"?>
<svg width="400px" height="200px" viewBox="0 0 400 200" version="1.1" xmlns="http://www.w3.org/2000/svg" xmlns:xlink="http://www.w3.org/1999/xlink">
    <!-- Generator: Sketch 46 (44423) - http://www.bohemiancoding.com/sketch -->
    <title>orchard</title>
    <desc>Created with Sketch.</desc>
    <defs></defs>
    <g id="Page-1" stroke="none" stroke-width="1" fill="none" fill-rule="evenodd">
        <g id="orchard" fill-rule="nonzero">
            <rect id="Rectangle-1" fill-opacity="0.01" fill="#FFFFFF" x="0" y="0" width="400" height="200"></rect>
            <g transform="translate(130.000000, 75.000000)" id="Shape" fill="#333333">
                <polygon points="62.3176109 20.4111388 62.3176109 28.6604444 60.2434998 28.6604444 60.2434998 20.4111388 57.3208887 20.4111388 57.3208887 18.3841666 65.240222 18.3841666 65.240222 20.4111388"></polygon>
                <path d="M71.3682776,28.6604444 L71.3682776,24.5122221 C71.3682776,23.1451944 70.8968887,22.7209444 70.0483887,22.7209444 C69.1998887,22.7209444 68.7284998,23.1451944 68.7284998,24.4650833 L68.7284998,28.6604444 L66.7015276,28.6604444 L66.7015276,18.9969722 L68.7284998,18.0070555 L68.7284998,21.4953333 C69.058472,21.1182222 69.7184165,20.8353888 70.5197776,20.8353888 C72.4996109,20.8353888 73.3481109,22.2024166 73.3481109,24.3708055 L73.3481109,28.7075832 L71.3682776,28.7075832 L71.3682776,28.6604444 Z"></path>
                <path d="M81.5031386,25.4549999 L76.8835275,25.4549999 C76.9778053,26.4920555 77.7320275,26.9163055 78.4862498,26.9163055 C79.0519164,26.9163055 79.5233053,26.7277499 79.8061386,26.3977777 L81.2674442,27.6233888 C80.6546386,28.4247499 79.5233053,28.8489999 78.5333887,28.8489999 C76.3178609,28.8489999 74.9036942,27.2934166 74.9036942,24.8421944 C74.9036942,22.4852499 76.3649998,20.8353888 78.3448331,20.8353888 C80.4189442,20.8353888 81.5974164,22.6738055 81.5974164,24.8421944 C81.5031386,25.1250277 81.5031386,25.3135833 81.5031386,25.4549999 Z M78.2034164,22.5795277 C77.4963331,22.5795277 77.0249442,23.1923333 76.9306664,23.9465555 L79.5704442,23.9465555 C79.5233053,23.2394722 79.0990553,22.5795277 78.2034164,22.5795277 Z"></path>
                <path d="M49.4486943,45.8189999 C44.5462499,45.8189999 41.6236388,42.0007499 41.6236388,36.5326388 C41.6236388,31.0645277 44.5462499,27.2934166 49.4486943,27.2934166 C54.3511387,27.2934166 57.2737498,31.1116666 57.2737498,36.5326388 C57.2737498,42.0007499 54.3511387,45.8189999 49.4486943,45.8189999 Z M49.4486943,30.8759721 C46.5260832,30.8759721 45.347611,33.3743332 45.347611,36.5797777 C45.347611,39.7852221 46.5732221,42.2835832 49.4486943,42.2835832 C52.3713054,42.2835832 53.5497776,39.7852221 53.5497776,36.5797777 C53.5497776,33.3271943 52.3713054,30.8759721 49.4486943,30.8759721 Z"></path>
                <path d="M68.209972,36.2026666 C67.6443054,35.6841388 66.937222,35.3070277 66.1358609,35.3070277 C64.7688331,35.3070277 63.8731943,35.8726943 63.8731943,38.2296388 L63.8731943,45.5361665 L60.3377776,45.5361665 L60.3377776,32.0544443 L63.8731943,32.0544443 L63.8731943,32.9500832 C64.4859998,32.2901388 65.3816387,31.771611 66.6543887,31.771611 C67.785722,31.771611 68.6813609,32.2429999 69.1527498,32.7143888 L68.209972,36.2026666 Z"></path>
                <path d="M76.5535553,45.8189999 C73.0181387,45.8189999 70.2369442,42.9435276 70.2369442,38.7953054 C70.2369442,34.6470832 72.9709998,31.771611 76.694972,31.771611 C79.240472,31.771611 80.8903331,33.044361 82.0216664,34.741361 L79.664722,37.0983054 C78.8633609,35.9669721 78.0148609,35.165611 76.6006942,35.165611 C74.9036942,35.165611 73.8194998,36.5797777 73.8194998,38.7953054 C73.8194998,40.9636943 74.9036942,42.377861 76.6006942,42.377861 C77.967722,42.377861 78.8633609,41.7650554 79.8061386,40.680861 L82.0688053,42.802111 C80.7489164,44.5462499 79.240472,45.8189999 76.5535553,45.8189999 Z"></path>
                <path d="M92.8636108,45.5361665 L92.8636108,38.2296388 C92.8636108,35.8255554 92.0622497,35.0713332 90.6009442,35.0713332 C89.1396386,35.0713332 88.2911386,35.7784166 88.2911386,38.135361 L88.2911386,45.4890276 L84.755722,45.4890276 L84.755722,28.6133055 L88.2911386,26.8220277 L88.2911386,32.9500832 C88.9039442,32.2901388 90.0352775,31.771611 91.4494442,31.771611 C94.890583,31.771611 96.4461664,34.1285555 96.4461664,37.9468054 L96.4461664,45.5361665 L92.8636108,45.5361665 Z"></path>
                <path d="M107.099555,45.5361665 L107.099555,44.6405276 C106.439611,45.3004721 105.308277,45.8189999 104.082666,45.8189999 C101.584305,45.8189999 99.0388053,44.2634165 99.0388053,41.0108332 C99.0388053,38.0410832 101.442889,36.5326388 104.506916,36.5326388 C105.732527,36.5326388 106.533889,36.8154721 107.099555,37.0983054 L107.099555,36.438361 C107.099555,35.4955832 106.439611,34.741361 105.166861,34.741361 C103.564139,34.741361 102.715639,34.9770555 101.490027,35.6369999 L100.123,33.1857777 C101.678583,32.2901388 102.998472,31.8187499 105.166861,31.8187499 C108.419444,31.8187499 110.634972,33.5157499 110.634972,36.5326388 L110.634972,45.5833054 L107.099555,45.5833054 L107.099555,45.5361665 Z M107.099555,39.8794999 C106.48675,39.5023888 105.873944,39.3138332 104.648333,39.3138332 C103.328444,39.3138332 102.574222,39.9266388 102.574222,41.0108332 C102.574222,41.953611 103.09275,42.802111 104.648333,42.802111 C105.779666,42.802111 106.722444,42.2364443 107.099555,41.5764999 L107.099555,39.8794999 Z"></path>
                <path d="M121.854027,36.2026666 C121.288361,35.6841388 120.581277,35.3070277 119.827055,35.3070277 C118.460027,35.3070277 117.51725,35.8726943 117.51725,38.2296388 L117.51725,45.5361665 L113.981833,45.5361665 L113.981833,32.0544443 L117.51725,32.0544443 L117.51725,32.9500832 C118.130055,32.2901388 119.025694,31.771611 120.298444,31.771611 C121.476916,31.771611 122.325416,32.2429999 122.796805,32.7143888 L121.854027,36.2026666 Z"></path>
                <path d="M131.988888,45.5361665 L131.988888,44.6876665 C131.328944,45.3004721 130.433305,45.8189999 129.160555,45.8189999 C126.285083,45.8189999 123.928139,43.650611 123.928139,38.6067499 C123.928139,34.5999443 125.813694,31.771611 129.160555,31.771611 C130.339027,31.771611 131.376083,32.2429999 131.988888,32.8086666 L131.988888,28.5661666 L135.524305,26.7748888 L135.524305,45.4890276 L131.988888,45.4890276 L131.988888,45.5361665 Z M131.988888,36.2969443 C131.470361,35.5427221 130.621861,35.1184721 129.584805,35.1184721 C128.217777,35.1184721 127.463555,36.2969443 127.463555,38.559611 C127.463555,41.3408054 128.406333,42.4721388 129.773361,42.4721388 C130.857555,42.4721388 131.423222,42.0007499 131.94175,41.3408054 L131.94175,36.2969443 L131.988888,36.2969443 Z"></path>
                <path d="M36.2969443,32.5729721 C36.2969443,42.6135554 28.1890555,50.7214443 18.1484722,50.7214443 C8.15502775,50.7214443 0,42.6135554 0,32.5729721 C0,22.5323888 8.15502775,14.4245 18.1484722,14.4245 C28.1890555,14.4245 36.2969443,22.5323888 36.2969443,32.5729721 Z"></path>
                <path d="M20.1754444,2.59263888 C18.2898888,2.30980555 16.7814444,2.30980555 15.4615555,2.12124999 C13.8588333,1.97983333 10.7476666,1.55558333 9.89916664,0.141416666 C9.89916664,0.141416666 9.89916664,0.282833332 9.85202775,0.518527776 C9.80488886,1.03705555 9.80488886,2.12124999 10.1348611,3.48827777 C10.4176944,4.66674999 10.8419444,5.8452222 11.45475,6.97655553 C11.6433055,7.35366664 11.879,7.68363887 12.1146944,8.06074998 C13.6231388,10.2762777 16.0272222,11.8318611 19.6569166,12.6332222 C24.4179444,13.7174166 28.8961388,14.4716388 32.3844166,18.9026944 C32.3844166,18.9026944 32.3844166,18.8555555 32.3844166,18.8555555 C32.9972221,16.4043333 30.5931388,4.24249999 20.1754444,2.59263888 Z"></path>
                <path d="M138.352638,43.3206388 C139.106861,43.3206388 139.719666,43.9334443 139.719666,44.6405276 C139.719666,45.3947499 139.106861,45.9604165 138.352638,45.9604165 C137.598416,45.9604165 136.985611,45.347611 136.985611,44.6405276 C136.985611,43.9334443 137.598416,43.3206388 138.352638,43.3206388 L138.352638,43.3206388 Z M138.352638,43.650611 C137.834111,43.650611 137.409861,44.074861 137.409861,44.6405276 C137.409861,45.2061943 137.834111,45.6304443 138.352638,45.6304443 C138.918305,45.6304443 139.295416,45.1590554 139.295416,44.6405276 C139.342555,44.074861 138.918305,43.650611 138.352638,43.650611 L138.352638,43.650611 Z M138.211222,45.3004721 L137.834111,45.3004721 L137.834111,44.074861 C137.928388,44.074861 138.116944,44.0277221 138.352638,44.0277221 C138.635472,44.0277221 138.776888,44.074861 138.824027,44.1219999 C138.918305,44.1691388 138.965444,44.2634165 138.965444,44.4048332 C138.965444,44.5462499 138.871166,44.6405276 138.682611,44.6876665 L138.682611,44.6876665 C138.824027,44.7348054 138.918305,44.8290832 138.918305,45.0176388 C138.965444,45.2061943 138.965444,45.2533332 139.012583,45.3004721 L138.588333,45.3004721 C138.541194,45.2533332 138.541194,45.1590554 138.494055,45.0176388 C138.494055,44.8762221 138.399777,44.8290832 138.3055,44.8290832 L138.164083,44.8290832 L138.164083,45.3004721 L138.211222,45.3004721 Z M138.211222,44.5933888 L138.3055,44.5933888 C138.446916,44.5933888 138.541194,44.5462499 138.541194,44.4519721 C138.541194,44.3576943 138.446916,44.3105554 138.3055,44.3105554 C138.258361,44.3105554 138.211222,44.3105554 138.164083,44.3105554 L138.164083,44.5933888 L138.211222,44.5933888 Z"></path>
                <path d="M31.6301943,47.2331665 C32.3844166,47.2331665 32.9972221,47.8459721 32.9972221,48.5530554 C32.9972221,49.3072776 32.3844166,49.8729443 31.6301943,49.8729443 C30.8759721,49.8729443 30.2631666,49.2601387 30.2631666,48.5530554 C30.2631666,47.7988332 30.8759721,47.2331665 31.6301943,47.2331665 L31.6301943,47.2331665 Z M31.6301943,47.5631387 C31.1116666,47.5631387 30.6874166,47.9873887 30.6874166,48.5530554 C30.6874166,49.1187221 31.1116666,49.5429721 31.6301943,49.5429721 C32.195861,49.5429721 32.5729721,49.0715832 32.5729721,48.5530554 C32.5729721,48.0345276 32.195861,47.5631387 31.6301943,47.5631387 L31.6301943,47.5631387 Z M31.4416388,49.165861 L31.0645277,49.165861 L31.0645277,47.9402499 C31.1588055,47.9402499 31.347361,47.893111 31.5830555,47.893111 C31.8658888,47.893111 32.0073055,47.9402499 32.0544443,47.9873887 C32.1487221,48.0345276 32.195861,48.1288054 32.195861,48.2702221 C32.195861,48.4116387 32.1015832,48.5059165 31.9130277,48.5530554 L31.9130277,48.5530554 C32.0544443,48.6001943 32.1487221,48.6944721 32.1487221,48.8830276 C32.195861,49.0715832 32.195861,49.1187221 32.2429999,49.165861 L31.8187499,49.165861 C31.771611,49.1187221 31.771611,49.0244443 31.7244721,48.8830276 C31.7244721,48.741611 31.6301943,48.6944721 31.5359166,48.6944721 L31.3944999,48.6944721 L31.3944999,49.165861 L31.4416388,49.165861 Z M31.4887777,48.4587776 L31.5830555,48.4587776 C31.7244721,48.4587776 31.8187499,48.4116387 31.8187499,48.317361 C31.8187499,48.2230832 31.7244721,48.1759443 31.5830555,48.1759443 C31.5359166,48.1759443 31.4887777,48.1759443 31.4416388,48.1759443 L31.4416388,48.4587776 L31.4887777,48.4587776 Z"></path>
            </g>
        </g>
    </g>
</svg>