<?xml version="1.0" encoding="UTF-8"?>
<svg width="400px" height="200px" viewBox="0 0 400 200" version="1.1" xmlns="http://www.w3.org/2000/svg" xmlns:xlink="http://www.w3.org/1999/xlink">
    <!-- Generator: Sketch 46 (44423) - http://www.bohemiancoding.com/sketch -->
    <title>sony</title>
    <desc>Created with Sketch.</desc>
    <defs>
        <polygon id="path-1" points="99.4310141 8.95933166 99.4310141 17.9186633 0 17.9186633 0 8.95933166 0 0 99.4310141 0"></polygon>
        <polygon id="path-3" points="111.214487 37.040112 111.214487 45.9994437 -10 45.9994437 -10 37.040112 -10 28.0807804 111.214487 28.0807804"></polygon>
    </defs>
    <g id="Page-1" stroke="none" stroke-width="1" fill="none" fill-rule="evenodd">
        <g id="sony">
            <rect id="Rectangle-1" fill-opacity="0.01" fill="#FFFFFF" fill-rule="nonzero" x="0" y="0" width="400" height="200"></rect>
            <g id="Group-4" transform="translate(150.000000, 81.000000)">
                <mask id="mask-2" fill="white">
                    <use xlink:href="#path-1"></use>
                </mask>
                <g id="path-1"></g>
                <path d="M64.6062968,2.98726366 C64.6062968,2.98726366 65.3862295,2.98726366 66.619388,2.98726366 C67.5290426,2.98726366 67.6939976,3.35616285 67.7004036,4.22184629 L67.8141105,10.8800668 L57.1304733,1.00176624 L49.4864919,1.00176624 L49.4864919,2.99710097 L51.1840868,2.99710097 C52.4076363,2.99710097 52.495719,3.68735235 52.495719,4.30382388 L52.495719,13.6082812 C52.495719,14.1854035 52.5325536,14.9379579 51.7462149,14.9379579 C50.5114548,14.9379579 49.6418378,14.9379579 49.6418378,14.9379579 L49.6418378,16.9300135 L58.6214741,16.9300135 L58.6214741,14.9379579 C58.6214741,14.9379579 57.6557668,14.9379579 56.4290143,14.9379579 C55.5577958,14.9379579 55.5145552,14.5411863 55.4985401,13.6541887 L55.4985401,5.67448932 L67.8141105,16.9300135 L70.9466534,16.9300135 L70.7784955,4.22184629 C70.802518,3.30041809 70.8473602,2.98726366 71.7794358,2.98726366 C73.0222034,2.98726366 73.744482,2.98726366 73.744482,2.98726366 L73.744482,1.00176624 L64.6062968,1.00176624 L64.6062968,2.98726366 Z M17.3026556,7.91575684 C16.7901741,7.67638226 16.0150459,7.3812629 15.3696396,7.23370323 C14.107654,6.91071149 11.2809983,6.51557947 9.93253148,6.37785711 C8.51519992,6.22209967 6.04247683,6.00731836 5.07036354,5.70072215 C4.76607767,5.6138259 4.15270141,5.30722968 4.15270141,4.59074548 C4.15270141,4.07264706 4.44097223,3.63980534 4.98228079,3.27910391 C5.84869477,2.73149356 7.62796637,2.38718765 9.45528311,2.38718765 C11.6333294,2.36915258 13.4686536,2.86593682 14.631346,3.40207031 C15.0349251,3.60537475 15.4961584,3.86442396 15.8709105,4.15626421 C16.2889032,4.51368653 16.8654449,5.24492671 17.0864525,6.24997205 L19.0498971,6.24997205 L19.0498971,0.790264043 L16.8622419,0.790264043 L16.8622419,1.41985199 C16.8622419,1.6313542 16.6540463,1.8904034 16.2600761,1.66742434 C15.2767523,1.1329304 12.5109539,0.0131164156 9.10615511,0 C7.18114659,0 4.98228079,0.37709695 3.1373475,1.22638486 C1.42053457,2.00189294 0,3.2725457 0,5.38264907 C0,7.26813382 1.18030888,8.37811049 1.14667729,8.33876125 C1.64954973,8.82570818 2.45670804,9.62744908 4.56108508,10.0930818 C5.49956677,10.304584 7.50465052,10.6275758 9.51453878,10.8554735 C11.5004045,11.0571384 13.4606461,11.2686406 14.2646014,11.4637473 C14.8971957,11.6424584 15.9509857,11.8703562 15.9509857,13.0770664 C15.9509857,14.2968931 14.8331355,14.6723504 14.631346,14.7428512 C14.4327594,14.8330265 13.1003076,15.4593354 10.6740281,15.4593354 C8.8915535,15.4593354 6.75354487,14.9084459 5.96880762,14.6313617 C5.07516805,14.2968931 4.12867884,13.8656909 3.24785131,12.7458769 C3.02844518,12.4884672 2.69052771,11.7309942 2.69052771,10.9833585 L0.488458901,10.9833585 L0.488458901,17.2546448 L2.92434739,17.2546448 C2.92434739,17.2546448 2.92434739,16.5857076 2.92434739,16.4020778 C2.92434739,16.3266584 3.05246775,15.9249681 3.44323487,16.1233539 C3.95251333,16.3528912 5.4419126,16.9562463 7.00658259,17.2874358 C8.28298175,17.5546828 9.10615511,17.7465104 10.6884416,17.7465104 C13.2844806,17.7465104 14.6777896,17.3251455 15.6338878,17.0431426 C16.554753,16.7660583 17.6726032,16.2889487 18.5726488,15.5544294 C19.0675137,15.1691347 20.1389202,14.1345774 20.1389202,12.2556509 C20.1389202,10.4587019 19.2116491,9.34380659 18.8705286,9.01097755 C18.4173028,8.55026345 17.8775958,8.18956202 17.3026556,7.91575684 Z M90.6451599,2.98726366 C90.6451599,2.98726366 91.7229725,2.98726366 91.9647997,2.98726366 C92.3539653,2.98726366 92.4596646,3.39387255 92.2899051,3.60537475 L88.5583994,8.07479338 L88.4543016,8.05347921 L84.8204877,3.60537475 C84.554638,3.2725457 84.7692396,2.98726366 85.0591119,2.98726366 C85.3185556,2.98726366 86.3467216,2.98726366 86.3467216,2.98726366 L86.3467216,1.00176624 L75.6246484,1.00176624 L75.6246484,2.98726366 C75.6246484,2.98726366 76.8674159,2.98726366 77.5336418,2.98726366 C78.3664242,2.98726366 78.9029283,3.52831581 79.2152216,3.87754037 C79.4682594,4.149706 84.92939,10.4947721 85.0591119,10.6702041 C85.1904353,10.8456362 85.1904353,10.8800668 85.1904353,10.9571257 L85.1904353,14.0870304 L85.1536007,14.5329885 C85.0719239,14.6854669 84.9422021,14.8412243 84.7340065,14.9002482 L84.1926979,14.9379579 L82.2869075,14.9379579 L82.2869075,16.9300135 L92.949725,16.9300135 L92.949725,14.9379579 C92.949725,14.9379579 91.3257994,14.9379579 90.9270247,14.9379579 L90.4033327,14.9002482 C90.1887311,14.8412243 90.0477987,14.6854669 89.98534,14.5329885 L89.9437009,14.0870304 C89.9437009,13.8050275 89.9437009,11.0784526 89.9437009,10.9571257 L90.0221746,10.6521691 C90.1647085,10.4865743 95.6882979,4.02510005 95.9365311,3.74145756 C96.4666291,3.11514872 96.7597045,2.98726366 97.472374,2.98726366 C98.1273894,2.98726366 99.4310141,2.98726366 99.4310141,2.98726366 L99.4310141,1.00176624 L90.6451599,1.00176624 L90.6451599,2.98726366 Z M40.3515097,13.6082812 C39.1199527,14.8740153 37.3502901,15.5544294 35.4236801,15.5544294 C33.5323032,15.5544294 31.722603,14.8740153 30.4942489,13.6082812 C29.3267521,12.4146874 28.6989623,10.7308675 28.6989623,8.94703502 C28.6989623,7.14188832 29.3203461,5.4465916 30.4942489,4.25955598 C31.722603,3.02333381 33.5323032,2.33308243 35.4236801,2.33308243 C37.308651,2.33308243 39.1327647,3.03317112 40.3515097,4.25955598 C41.5414276,5.4465916 42.1499994,7.1254928 42.1499994,8.94703502 C42.1499994,10.8292407 41.5814652,12.3441867 40.3515097,13.6082812 Z M35.4236801,0 C31.9900542,0 28.3274132,1.20998934 26.2502618,3.12498603 C24.6055166,4.67108352 23.7487116,6.80250106 23.7487116,8.94703502 C23.7487116,11.1046854 24.575088,13.2147888 26.2502618,14.7625258 C28.4907667,16.8168844 31.8267008,17.9186633 35.4236801,17.9186633 C39.0414789,17.9186633 42.4574882,16.8332799 44.624324,14.7625258 C46.2354376,13.2344634 47.087438,11.0210682 47.087438,8.94703502 C47.087438,6.7943033 46.2834827,4.69075814 44.624324,3.14466065 C42.2957363,0.975533413 39.248073,0 35.4236801,0 L35.4236801,0 Z" id="Fill-2" fill="#1A1919" fill-rule="nonzero" mask="url(#mask-2)"></path>
                <mask id="mask-4" fill="white">
                    <use xlink:href="#path-3"></use>
                </mask>
                <g id="path-1"></g>
                <path d="M38.1538449,31.1141817 C38.1538449,31.1141817 38.721454,31.1141817 39.9630989,31.1141817 C40.8516006,31.1141817 41.0322035,31.4525202 41.0531663,32.2419769 L41.0418787,40.2411503 C41.0418787,42.0897537 40.377518,44.1001712 35.3641752,44.1001712 C30.6572124,44.1001712 30.8587781,40.8164893 30.8587781,40.2525917 L30.8587781,32.23217 C30.8813535,31.4051201 30.9635923,31.1141817 31.8617692,31.1141817 C33.1114767,31.1141817 33.7919626,31.1141817 33.7919626,31.1141817 L33.7919626,29.1348194 L22.6752096,29.1348194 L22.6752096,31.1141817 C22.6752096,31.1141817 23.3379577,31.1141817 24.5779901,31.1141817 C25.5003548,31.1141817 25.6648325,31.481941 25.6745076,32.3449495 L25.6745076,40.0106878 C25.6745076,45.1037455 30.8813535,45.9994437 35.3641752,45.9994437 C39.9211732,45.9994437 44.3330438,45.0677868 44.3330438,40.1675984 L44.2959558,31.8889279 C44.3491691,31.3250303 44.5249344,31.1141817 45.2844341,31.1141817 C46.5341416,31.1141817 47.2694534,31.1141817 47.2694534,31.1141817 L47.2694534,29.1348194 L38.1538449,29.1348194 L38.1538449,31.1141817 Z" id="Fill-2-path" fill="#1A1919" mask="url(#mask-4)"></path>
                <path d="M67.5906929,36.0172346 C67.0816865,35.770539 66.3343873,35.5546805 65.6859715,35.3972498 C64.4118344,35.0661585 61.4955843,34.6831312 60.130669,34.5500455 C58.7057753,34.3942378 56.2077534,34.1215743 55.2205404,33.809959 C54.9011956,33.7239401 54.2900637,33.3344209 54.2900637,32.6251713 C54.2900637,32.1123043 54.5867139,31.6838332 55.1281411,31.3267739 C56.0083656,30.784693 57.7963722,30.4438637 59.6508414,30.4438637 C61.850592,30.4260107 63.7099243,30.9177787 64.8949042,31.4484987 C65.298543,31.6497503 65.7670234,31.9061838 66.1447256,32.1950772 C66.5726801,32.5488905 67.1530122,33.272747 67.3637473,34.267644 L69.359247,34.267644 L69.359247,28.8630648 L67.1530122,28.8630648 L67.1530122,29.4862956 C67.1530122,29.6956622 66.9471402,29.9520956 66.5321541,29.7313681 C65.5416989,29.2022711 62.7389216,28.0937644 59.2942127,28.0807804 C57.3424811,28.0807804 55.1281411,28.4540696 53.2542194,29.294782 C51.5164651,30.0624594 50.0802241,31.3202819 50.0802241,33.4090788 C50.0802241,35.275525 51.2749302,36.3353419 51.2327832,36.302882 C51.7434106,36.7654361 52.5620356,37.5233756 54.6904604,37.9648307 C55.6403896,38.1969192 57.6958677,38.4695827 59.7302723,38.6903102 C61.7468454,38.8996768 63.7066822,39.1820782 64.517202,39.3752149 C65.1591336,39.5358915 66.2257776,39.831277 66.2257776,41.0258026 C66.2257776,42.2333122 65.0959131,42.6049784 64.8949042,42.6747673 C64.6874111,42.7640321 63.3419483,43.3840169 60.8876945,43.3840169 C59.0737513,43.3840169 56.9177687,42.83869 56.1218383,42.5644035 C55.2124352,42.2333122 54.2576429,41.806464 53.3725553,40.6979572 C53.1472308,40.4431467 52.8084336,39.6835842 52.8084336,38.9532357 L50.5762622,38.9532357 L50.5762622,45.1611983 L53.0370001,45.1611983 C53.0370001,45.1611983 53.0370001,44.4990156 53.0370001,44.31724 C53.0370001,44.2425822 53.1731675,43.844948 53.5605959,44.0413306 C54.0825706,44.2685501 55.5868953,44.8658129 57.1787561,45.1936583 C58.4658615,45.4582067 59.2942127,45.6480974 60.8925576,45.6480974 C63.5299889,45.6480974 64.928946,45.2309872 65.9064328,44.9518317 C66.8385305,44.6775453 67.966774,44.2052532 68.8777983,43.4781507 C69.3851836,43.0967464 70.4583118,42.0726355 70.4583118,40.2126812 C70.4583118,38.4338767 69.524593,37.4016508 69.1776906,37.0754284 C68.7286626,36.6161204 68.1742671,36.293144 67.5906929,36.0172346 Z" id="Fill-2-path" fill="#1A1919" mask="url(#mask-4)"></path>
                <path d="M82.7400765,42.6240596 C82.53151,42.5667737 82.3898716,42.4156025 82.3385082,42.2676139 L82.3027095,41.8347871 L82.2684672,31.8924994 L82.3104918,31.45649 C82.3634117,31.3116839 82.5097195,31.1605128 82.7136166,31.1064094 L83.2412587,31.0714014 C83.6116977,31.0714014 85.1992934,31.0714014 85.1992934,31.0714014 L85.1992934,29.1348194 L74.6931454,29.1348194 L74.6931454,31.0714014 L76.5546792,31.0714014 L77.0729825,31.1064094 C77.281549,31.1605128 77.4154051,31.3116839 77.4807767,31.45649 L77.5181319,31.8924994 L77.488559,41.8347871 L77.4667685,42.2676139 C77.3889452,42.4156025 77.2644279,42.5667737 77.0465226,42.6240596 L76.5328887,42.6606589 L74.6744678,42.6606589 L74.6744678,44.5940583 L85.214858,44.5940583 L85.214858,42.6606589 C85.214858,42.6606589 83.6303753,42.6606589 83.2537104,42.6606589 L82.7400765,42.6240596 Z" id="Fill-2-path" fill="#1A1919" mask="url(#mask-4)"></path>
                <path d="M107.878145,39.3764944 C107.519979,40.6075321 106.289688,42.0270777 105.125248,42.5909618 C104.05075,43.1155052 102.655028,43.6777501 100.428939,43.6466054 L99.9487079,43.6318526 C99.5696625,43.602347 99.2034661,43.5449751 98.8469064,43.4744896 C97.55237,43.1991043 96.3574133,42.5975186 95.4836815,41.7139908 C94.3208473,40.5091803 93.6864281,38.8208062 93.6864281,37.0357195 C93.6864281,35.2178488 94.3160289,33.5524236 95.4836815,32.3459738 C96.688275,31.139524 98.4357385,30.5035151 100.2876,30.4658136 L100.629705,30.4658136 C102.664665,30.5035151 103.854803,30.7789004 105.379015,31.5657155 C106.34269,32.0689493 107.695047,33.49833 107.976119,34.9637731 L110.097809,34.9637731 L110.097809,29.0642992 L107.905449,29.0642992 L107.905449,29.7019473 L107.733594,29.9855286 C107.637226,30.0527357 107.489463,30.0527357 107.293516,29.9527446 C106.352327,29.4445932 103.829105,28.0873372 100.428939,28.0807804 L100.046682,28.0873372 L100.006528,28.0873372 C96.688275,28.1873283 93.2318948,29.3839429 91.2306636,31.2214839 C90.7568568,31.677181 90.3424767,32.1640228 89.998766,32.7000406 C89.160369,33.9917287 88.7283214,35.5112653 88.7283214,37.0357195 C88.7283214,37.1832473 88.7283214,37.3471671 88.7363521,37.4963342 C88.851993,39.4846815 89.6727227,41.4107392 91.2306636,42.8466767 C93.1130416,44.5809483 95.7743901,45.6316743 98.7087797,45.9267299 C101.513073,46.1890016 104.404098,45.7398613 106.369994,44.6104539 C108.323042,43.4646544 109.673792,41.5894118 110.137962,39.5043518 L110.160448,39.3764944 L107.878145,39.3764944 Z" id="Fill-2-path" fill="#1A1919" mask="url(#mask-4)"></path>
                <path d="M9.64646903,29.1348194 L5.02128866,39.2425997 L0.400922843,29.1348194 L-9.64865366,29.1348194 L-9.64865366,31.0714014 L-7.94269713,31.0714014 C-6.71498617,31.0714014 -6.62992907,31.7413282 -6.62992907,32.3396477 L-6.62992907,41.3701347 C-6.62992907,41.9302636 -6.59141265,42.6606589 -7.384209,42.6606589 C-8.61994422,42.6606589 -9.49458797,42.6606589 -9.49458797,42.6606589 L-9.49458797,44.5940583 L-1.02418478,44.5940583 L-1.02418478,42.6606589 C-1.02418478,42.6606589 -1.45749453,42.6606589 -2.68199579,42.6606589 C-3.55022014,42.6606589 -3.60478507,42.2755703 -3.61762388,41.4146904 L-3.61280933,31.5774269 L-3.54219588,31.5774269 L2.38933314,44.5940583 L5.71618911,44.5940583 L11.5995726,31.5774269 L11.6798152,31.5774269 L11.7424043,41.4146904 C11.7279607,42.2755703 11.6798152,42.6606589 10.809986,42.6606589 C9.58387985,42.6606589 9.14415069,42.6606589 9.14415069,42.6606589 L9.14415069,44.5940583 L19.4151966,44.5940583 L19.4151966,42.6606589 C19.4151966,42.6606589 18.5405529,42.6606589 17.2935837,42.6606589 C16.5104164,42.6606589 16.5489329,41.9302636 16.5489329,41.3701347 L16.4911582,32.3396477 C16.4911582,31.7413282 16.5810299,31.0714014 17.8103457,31.0714014 L19.5130925,31.0714014 L19.5130925,29.1348194 L9.64646903,29.1348194 Z" id="Fill-2-path" fill="#1A1919" mask="url(#mask-4)"></path>
            </g>
        </g>
    </g>
</svg>