<?xml version="1.0" encoding="UTF-8"?>
<svg width="400px" height="200px" viewBox="0 0 400 200" version="1.1" xmlns="http://www.w3.org/2000/svg" xmlns:xlink="http://www.w3.org/1999/xlink">
    <!-- Generator: Sketch 46 (44423) - http://www.bohemiancoding.com/sketch -->
    <title>vice</title>
    <desc>Created with Sketch.</desc>
    <defs></defs>
    <g id="Page-1" stroke="none" stroke-width="1" fill="none" fill-rule="evenodd">
        <g id="vice" fill-rule="nonzero">
            <rect id="Rectangle-1" fill-opacity="0.01" fill="#FFFFFF" x="0" y="0" width="400" height="200"></rect>
            <path d="M231.196928,97.1274178 C231.011029,97.3817336 230.416153,97.2000794 230.155894,97.309072 C230.230254,96.9457638 230.825131,97.1637486 231.196928,97.1274178 L231.196928,97.1274178 Z M208.219817,94.4026067 C207.439042,96.9457638 206.435187,99.5979132 205.617232,102.250063 C206.918524,102.213732 208.405716,102.032077 209.892908,101.886754 C211.194201,101.777762 212.978831,101.814093 213.871145,101.2328 C214.614741,100.724168 214.651921,99.634244 215.209618,98.8712969 C215.544236,100.070214 216.58527,101.7051 215.841674,102.867686 C215.283978,103.703295 213.462168,104.284588 212.272414,104.684227 C210.859582,105.156527 209.781369,105.556166 208.331357,106.13746 C206.992884,106.646091 205.803131,107.118391 204.13004,107.300046 C202.122332,107.51803 199.371027,107.118391 199.147948,105.192858 C199.073588,104.502573 199.333847,103.812288 199.631285,103.230994 C200.449241,101.596108 201.713354,100.324529 202.903107,99.1256125 C203.721062,98.2900038 204.576198,97.454395 205.431333,96.7277788 C206.398008,95.9648317 207.327502,95.1655538 208.219817,94.4026067 L208.219817,94.4026067 Z M204.501838,99.9612213 C203.795422,100.615176 203.051826,101.2328 202.271051,102.177401 C201.638994,102.940348 200.709499,103.884949 200.858219,104.974874 C200.969758,105.774151 202.159511,106.028467 203.014646,106.064798 C204.613377,106.101129 206.249288,105.410843 207.77366,104.902212 C209.335211,104.35725 210.896762,103.848618 212.272414,103.303656 C209.48393,103.303656 206.546727,103.739626 203.423624,103.812288 C203.721062,102.504378 204.24158,101.160138 204.501838,99.9612213 L204.501838,99.9612213 Z M164.013045,99.7432362 C164.496382,99.4525898 164.756641,98.9076278 164.97972,98.4353271 C165.239978,97.9630265 165.537416,97.4180642 165.686136,96.8731022 C165.909214,96.0011626 165.797675,95.2018846 165.723315,94.4389376 C165.388697,90.0792402 169.924632,89.1346389 173.716971,88.5170152 C175.984938,88.1173762 178.661883,88.1537071 181.04139,88.4080227 C181.376008,88.4443535 181.784986,88.5896769 182.008064,88.553346 C182.342682,88.5170152 182.900379,88.0083837 183.197817,87.8267298 C183.904233,87.39076 184.759369,86.9547902 185.726043,86.773136 C186.952976,86.5551512 188.440168,86.7368052 189.778641,86.991121 C193.645339,87.6814064 197.735116,88.6260077 200.783859,89.9702476 C200.858219,90.2245632 200.337701,90.6968639 200.151803,91.0238412 C203.089006,89.4616162 205.840311,87.8630606 209.223672,86.8821285 C212.309594,85.9738581 215.916034,85.828535 219.039137,86.8094668 C219.410934,86.9184594 219.931452,87.172775 220.30325,87.2091058 C220.860946,87.2454366 221.530183,87.0274519 222.162239,86.991121 C232.163603,86.1555123 241.458551,88.952985 250.009903,90.5515405 C248.150913,93.4580057 245.585508,95.6378544 242.202147,97.0547561 C242.536765,97.3817336 242.945743,97.5270567 243.243181,97.854034 C244.023957,98.7623044 243.949597,100.251868 243.42908,101.305461 C242.908563,102.322724 241.793169,102.904017 241.198292,103.521641 C243.020102,103.412649 244.841912,103.739626 245.064991,105.410843 C245.325249,107.118391 244.358575,108.462631 243.503439,109.334571 C240.826494,112.095713 236.141841,113.003983 231.605906,113.912253 C228.445624,114.529877 225.58278,114.820524 221.827621,114.856855 C218.927597,114.893185 214.391663,114.63887 213.12755,112.822329 C212.867291,112.459021 212.755752,111.914059 212.718572,111.478089 C209.186492,112.967652 205.245434,114.493547 200.449241,114.602539 C195.504328,114.711531 191.005574,113.548945 189.295303,110.279172 C188.477348,111.696074 187.770932,113.149306 186.39528,113.948584 C184.796549,114.856855 181.970884,114.965847 180.000355,114.602539 C177.843928,114.2029 176.170837,113.29463 175.984938,111.114781 C175.799039,108.934932 176.691354,106.827745 177.286231,105.047535 C177.918287,103.122002 178.624703,101.341792 179.331119,99.634244 C178.364444,100.179206 177.732388,101.2328 177.025972,102.104739 C174.981084,104.684227 172.527217,107.263715 169.701553,109.261909 C167.879743,110.533488 165.834855,111.841397 163.492528,112.785998 C161.41046,113.621607 157.989919,114.784193 155.424513,113.803261 C154.532198,113.439953 153.639883,112.495352 154.086041,111.332766 C154.309119,110.678811 155.127075,110.315503 155.201434,109.588887 C155.238614,109.043924 154.680917,108.317308 154.346299,107.772346 C153.379625,106.17379 152.301411,104.284588 151.594995,102.613371 C150.62832,100.288199 149.438567,97.0184255 150.293702,94.2572837 C151.111657,91.7141266 153.342445,90.1882324 155.610412,88.952985 C157.395042,87.9720529 159.105313,87.2817675 161.187381,86.5551512 C162.339954,86.1555123 164.384843,85.5015577 165.239978,86.6278129 C166.466911,88.2626993 165.388697,91.4234801 164.97972,93.1310285 C164.422023,95.347208 163.975865,97.454395 164.013045,99.7432362 L164.013045,99.7432362 Z M190.150438,88.4080227 C188.737606,88.1173762 187.138875,87.8630606 185.763223,88.1900379 C185.131167,88.335361 184.49911,88.6623383 184.015773,88.9893158 C183.643975,89.2436314 182.974739,89.9339168 182.491401,90.0065785 C181.933704,90.0792402 181.115749,89.8612551 180.409333,89.7885934 C176.654174,89.4616162 173.196454,89.7159321 170.22207,90.7331947 C169.181036,91.0965028 167.879743,91.6051343 167.396406,92.5497353 C166.838709,93.6759905 167.545125,95.2382155 167.359226,96.691448 C167.284867,97.309072 166.950249,97.9993573 166.65281,98.5806502 C166.020754,99.8158979 165.388697,100.578845 164.570742,101.668769 C164.273304,102.068408 163.641247,102.904017 163.04637,102.795025 C162.637393,102.722363 162.451494,102.032077 162.414314,101.26913 C162.228415,97.8903648 163.08355,95.0565616 163.678427,92.1864272 C163.938685,90.9875103 164.273304,89.5706087 164.161764,88.4443535 C164.087405,87.6087447 163.715607,87.2817675 163.009191,87.3180983 C161.856617,87.3544292 160.406605,88.1537071 159.254032,88.6260077 C158.027099,89.1346389 156.986064,89.6432704 155.98221,90.2972249 C153.974501,91.5324726 152.078332,93.1673593 151.743714,95.89217 C151.371916,98.7986353 152.561669,101.341792 153.602703,103.376318 C154.12322,104.39358 154.606558,105.410843 155.424513,106.428106 C156.05657,107.227384 157.320683,108.462631 157.171963,109.625217 C157.060424,110.460826 155.312974,111.332766 155.610412,112.204705 C155.759131,112.640675 156.800165,112.749667 157.69248,112.785998 C160.369425,112.822329 162.414314,111.805066 164.013045,111.005788 C166.541271,109.770541 168.5118,108.353639 170.482329,106.718752 C172.490038,105.083866 174.311847,103.339987 175.910578,101.450785 C177.546489,99.5252515 178.922141,97.3817336 180.595232,95.3835388 C181.784986,98.5806502 180.558052,101.160138 179.554198,103.448979 C179.033681,104.647896 178.587523,105.774151 178.178546,107.118391 C177.806748,108.317308 177.249051,110.097518 177.583669,111.441758 C178.067006,113.149306 180.669592,113.476284 182.75166,113.330961 C184.313211,113.221968 185.465785,112.785998 186.28374,112.023051 C187.956831,110.424495 188.849146,108.135654 189.89018,105.992136 C189.667101,108.934932 190.894034,110.678811 192.864563,111.732405 C194.835092,112.785998 197.400498,113.258299 200.263342,113.258299 C206.026209,113.258299 210.413425,111.114781 213.945505,109.189248 C213.759606,110.133849 213.685247,111.187442 214.094224,111.877728 C214.875,113.29463 216.919889,113.403622 219.150676,113.585276 C220.712227,113.694269 221.901981,113.730599 222.980195,113.730599 C225.805859,113.657938 228.408444,113.330961 231.085389,112.822329 C234.691829,112.132044 238.558527,111.07845 241.272652,109.334571 C242.202147,108.753278 243.206001,107.990331 243.42908,106.936737 C244.061136,103.993941 240.454697,104.865881 238.521347,105.26552 C237.034156,105.592497 235.546964,106.028467 234.282851,106.319113 C231.457187,106.936737 227.776388,107.772346 225.285342,106.682422 C224.913544,106.500768 224.355847,106.246452 224.355847,105.665159 C224.355847,105.301851 224.764824,104.865881 225.025083,104.647896 C225.954578,103.957611 227.478949,103.775957 229.07768,103.630633 C233.055918,103.339987 238.967505,103.957611 241.347012,101.523446 C241.941888,100.942153 242.499585,99.4525898 241.830349,98.3989963 C241.272652,97.5270567 239.897,97.3454028 238.632887,97.3817336 C235.175166,97.5270567 232.237963,98.9439583 229.2264,98.8712969 C228.668703,98.8712969 227.627668,98.8712969 227.44177,98.471658 C227.218691,97.9993573 227.739208,97.2727411 228.036646,96.9457638 C228.371264,96.509794 228.817422,96.0374934 229.2264,95.89217 C229.895636,95.6378544 230.97385,95.7831778 231.940524,95.89217 C234.840548,96.1828168 237.777752,96.4371324 240.194438,96.0374934 C243.243181,95.4925314 245.325249,93.8939755 247.03552,92.1137655 C247.258599,91.8594499 247.593217,91.6414652 247.667576,91.278157 C240.417517,90.0065785 232.163603,87.935722 224.207128,88.0447145 C222.794295,88.0810454 221.530183,88.2626993 220.489148,88.7713308 C219.634013,89.2073006 218.40708,90.2245632 218.555799,91.3871493 C218.667339,92.0774347 219.596834,92.5860661 220.26607,92.8403817 C221.121205,93.1310285 222.01352,93.2400207 222.719936,93.5669983 C220.860946,93.8939755 218.592979,94.4389376 216.69681,94.7295843 C217.068608,93.8213139 217.551945,92.9130434 217.998102,91.8231191 C218.295541,91.060172 219.001957,89.4252853 218.741698,88.4806843 C218.518619,87.5360831 216.69681,87.3544292 215.432697,87.3544292 C214.242943,87.3544292 212.718572,87.5360831 211.640358,87.7540681 C204.464658,89.2436314 198.999229,93.0946976 194.314575,96.8731022 C195.20689,94.8385765 196.508183,92.9130434 197.660756,91.2054954 C197.846655,90.9511795 198.106914,90.660533 198.069734,90.4788791 C195.504328,89.5342779 192.864563,88.9166541 190.150438,88.4080227 L190.150438,88.4080227 Z M226.958432,105.374512 C228.222545,105.483505 229.932815,105.556166 231.345648,105.374512 C232.386682,105.26552 233.464896,105.120197 234.208492,104.684227 C231.866165,104.82955 228.854602,104.684227 226.958432,105.374512 L226.958432,105.374512 Z" id="Shape" fill="#333333"></path>
        </g>
    </g>
</svg>