<?xml version="1.0" encoding="UTF-8"?>
<svg width="400px" height="200px" viewBox="0 0 400 200" version="1.1" xmlns="http://www.w3.org/2000/svg" xmlns:xlink="http://www.w3.org/1999/xlink">
    <!-- Generator: Sketch 46 (44423) - http://www.bohemiancoding.com/sketch -->
    <title>vimeo</title>
    <desc>Created with Sketch.</desc>
    <defs></defs>
    <g id="Page-1" stroke="none" stroke-width="1" fill="none" fill-rule="evenodd">
        <g id="vimeo" fill-rule="nonzero">
            <rect id="Rectangle-1" fill-opacity="0.01" fill="#FFFFFF" x="0" y="0" width="400" height="200"></rect>
            <g transform="translate(138.000000, 82.000000)" id="Group-3" fill="#333333">
                <g>
                    <path d="M34.63638,7.95453449 C36.2066185,7.95453449 37.5649812,7.40522157 38.7111806,6.30630798 C39.730887,5.33400397 40.2612952,4.3191131 40.3038429,3.26134763 C40.3449531,2.54427702 40.0695433,1.83670213 39.4758885,1.13833521 C38.8805088,0.441694778 38.1382247,0.091504195 37.2470237,0.091504195 C35.7173205,0.091504195 34.327622,0.59995675 33.075341,1.61312112 C31.82306,2.62801199 31.1753581,3.68606521 31.1345354,4.78469105 C31.0488651,6.89849551 32.2174882,7.95453449 34.63638,7.95453449" id="Fill-1"></path>
                    <path d="M117.557322,21.1776864 C117.473376,23.1863179 116.869363,25.1109264 115.742738,26.9526434 C114.407239,29.1720398 112.799269,30.2796162 110.92222,30.2796162 C110.086155,30.2796162 109.438614,29.8201771 108.981294,28.8990356 C108.564392,28.104636 108.37615,27.1834946 108.417982,26.1361772 C108.500232,24.0030671 109.126009,21.9944356 110.296726,20.1102827 C111.672361,17.8085607 113.425046,16.656851 115.554214,16.656851 C116.220409,16.656851 116.73228,17.1293038 117.087282,18.0702486 C117.442285,19.0114764 117.599436,20.0480434 117.557322,21.1776864 Z M86.2402082,25.7423722 C86.216466,25.202305 86.216466,24.9312812 86.2402082,24.9312812 C86.2806265,23.3529495 86.948235,21.7013451 88.239642,19.9764682 C89.5313316,18.2518742 90.8009749,17.3892943 92.0522462,17.3892943 C93.0106968,17.3892943 93.4680171,17.9514282 93.4278815,19.0720182 C93.3854847,19.9031956 92.760273,20.9855934 91.5528117,22.314685 C90.0525298,23.8528441 88.2817561,24.9952179 86.2402082,25.7423722 Z M122.690445,14.4705547 C121.187054,12.5114317 118.975354,11.5300313 116.055344,11.5300313 C111.505883,11.5300313 107.730023,13.1980442 104.726067,16.5340699 C101.927312,19.5368325 100.634209,22.8329685 100.844498,26.4202146 C100.858347,26.6836 100.881807,26.9404785 100.909506,27.1948108 C100.75292,27.2629911 100.600575,27.3314544 100.439467,27.3993518 C96.8908533,28.9304382 93.6144275,29.6940011 90.6104718,29.6940011 C89.1067982,29.6940011 87.9798908,29.1737372 87.2300325,28.131795 C91.2766671,27.4655517 94.6370386,25.9036286 97.3097338,23.444611 C99.8122765,21.194095 100.981015,19.0058183 100.81482,16.8820441 C100.564113,13.5494132 98.394527,11.8814004 94.3040823,11.8814004 C89.8806813,11.8814004 86.0409432,13.5533739 82.7862811,16.8930774 C79.8230264,19.9436511 78.3193527,23.1588761 78.2789344,26.5407325 C78.2676286,27.1079587 78.2978716,27.6531183 78.363728,28.1784745 C77.6636153,28.6401768 77.1336551,28.8732912 76.7772392,28.8732912 C75.9830056,28.8732912 75.4838537,28.70864 75.2749788,28.3756598 C75.0666691,28.0423967 74.9824407,27.4398073 75.0245549,26.5644966 C75.0245549,26.2315164 75.2840234,24.9533478 75.8074828,22.7268788 C76.3289636,20.5004098 76.6104784,18.8046722 76.6525926,17.6382514 C76.7348424,15.9337437 76.4001902,14.6224751 75.6500493,13.7069918 C74.7738484,12.582724 73.3340526,12.104896 71.3309444,12.2715275 C69.6627711,12.3979864 68.0545186,13.0240571 66.5107093,14.1520027 C65.5923943,14.8205092 64.6540115,15.7176036 63.6952782,16.8455492 C63.360626,17.1383568 63.0477375,17.4113609 62.7549168,17.6603181 C62.7953351,15.9481719 62.4623788,14.631811 61.754352,13.7126499 C60.8761726,12.5847043 59.416309,12.104896 57.3710867,12.2715275 C54.992908,12.480312 52.8433895,13.4215398 50.9242271,15.0912501 C50.0884445,15.8016267 49.3583714,16.6384621 48.732877,17.5980788 C48.8151269,17.2226627 48.857241,16.8254629 48.857241,16.4078939 C48.857241,15.1133167 48.5223062,13.9743378 47.8546977,12.9929374 C47.1870892,12.0115371 46.3108884,11.5628484 45.2258126,11.6471543 C44.6003182,11.6893073 43.4112289,12.5241624 41.6588272,14.1520027 C39.2365559,16.4078939 37.9231026,17.6201454 37.7147929,17.7847966 L39.2164881,19.4768565 C40.3855096,18.6323825 41.0952322,18.2094383 41.3459387,18.2094383 C41.803259,18.2094383 41.9915009,18.5848544 41.9092511,19.333989 C41.8691154,20.4178013 41.6769165,21.9265382 41.3329371,23.8635945 C41.1198224,25.0642469 40.9660633,26.1002481 40.8702465,26.9724468 C40.8513092,26.9877238 40.8335026,27.0032836 40.8145653,27.0188434 C39.3108916,28.2565565 38.2682127,28.8732912 37.6848325,28.8732912 C36.3493328,28.8732912 35.7017922,27.9798745 35.7436237,26.1890806 C36.3694007,22.2781902 36.9547593,19.0536293 37.4980039,16.5139836 C37.6627861,15.01628 37.4231028,13.8003507 36.777258,12.8630837 C36.1297173,11.9255337 35.1181293,11.5209783 33.742494,11.645174 C32.8643147,11.7294799 31.528815,12.5643351 29.7342992,14.1520027 C29.111066,14.7175315 28.4878329,15.2822115 27.8645997,15.8474574 C27.7410836,12.89194 26.3937129,11.3713211 23.8145733,11.2955024 C19.9508103,11.1710238 17.333231,13.3536424 15.9629659,17.8470359 C16.6707101,17.543195 17.3586691,17.3892943 18.0265602,17.3892943 C19.4443097,17.3892943 20.069804,18.1876546 19.9033259,19.7806974 C19.8193802,20.7456892 19.1936032,22.1500338 18.0265602,23.9957115 C16.8575387,25.8413893 15.9813379,26.7642281 15.3976751,26.7642281 C14.6458382,26.7642281 13.9578793,25.3431921 13.3323849,22.4977251 C13.1218141,21.6628699 12.7470262,19.5297599 12.2054776,16.1003752 C11.7043472,12.9216452 10.3688476,11.4366724 8.19926127,11.645174 C7.28094627,11.7294799 5.90333244,12.5643351 4.06868096,14.1520027 C2.73289866,15.3639713 1.37563531,16.5745254 0,17.7847966 L1.31175744,19.4768565 C2.56105024,18.6015458 3.29112338,18.1619101 3.49943306,18.1619101 C4.45647049,18.1619101 5.35076063,19.6652718 6.18512994,22.6683173 C6.93498826,25.4218399 7.68512923,28.1759283 8.4352702,30.9297338 C9.5582205,33.9344768 10.9341384,35.436141 12.5585017,35.436141 C15.181734,35.436141 18.388629,32.9694849 22.1791869,28.0367386 C24.8422721,24.6062224 26.5658439,21.7072862 27.3600776,19.3348378 C28.4118012,18.5574125 29.0610378,18.1619101 29.2970467,18.1619101 C30.0471877,18.1619101 30.423954,18.7056552 30.423954,19.7897503 C30.423954,19.9985349 30.0160967,21.5437666 29.2017952,24.424031 C28.388059,27.3045783 27.9598512,29.4340106 27.9197155,30.8106304 C27.8776014,32.1476435 28.2012304,33.2314557 28.8891894,34.0663109 C29.5771483,34.9014489 30.5683859,35.319018 31.8637499,35.319018 C34.6591132,35.319018 37.4541938,34.1084639 40.251253,31.6879215 C40.5005463,31.4692352 40.7424908,31.2474371 40.9784997,31.0225269 C41.1998111,31.959794 41.5788386,32.7326927 42.1288666,33.3282095 C43.3326535,34.6210893 45.3668526,35.2253761 48.2317467,35.1413531 C47.8493274,34.222192 47.6992427,32.5943518 47.783471,30.2541546 C47.907835,27.6650003 48.5774221,25.1785409 49.7882751,22.7981711 C50.9994107,20.4178013 52.1280139,19.225919 53.1743673,19.225919 C54.385503,19.225919 54.9507939,19.9985349 54.8665655,21.5437666 C54.8244513,22.5893866 54.6198161,23.7798544 54.2518117,25.1163016 C53.8823941,26.4530317 53.6774762,27.7894789 53.6373405,29.126209 C53.5531122,31.2576217 54.030783,32.7810696 55.073462,33.7002307 C56.2368306,34.7438704 58.2769653,35.2253761 61.1890611,35.1413531 C60.7537872,34.1817365 60.5782644,32.8028534 60.6622101,31.0049867 C60.786574,28.4579854 61.6463814,25.8266782 63.2379579,23.111065 C64.7453059,20.5221936 66.0423658,19.225919 67.1308334,19.225919 C68.1367684,19.225919 68.6181136,20.0203186 68.5759994,21.6062888 C68.5341679,22.6496455 68.2724382,24.1108542 67.7930716,25.9896319 C67.3137049,27.8684096 67.0519753,29.4739003 67.0118396,30.8106304 C66.9278939,33.8173537 68.2413472,35.319018 70.9561566,35.319018 C73.7512373,35.319018 76.5466006,34.1084639 79.3436597,31.6879215 C79.3900136,31.647183 79.4329757,31.60503 79.4787642,31.5640087 C79.5748637,31.7297915 79.6732243,31.8944427 79.7809122,32.0542845 C81.2407759,34.3079125 83.6627645,35.436141 87.0434865,35.436141 C91.5912515,35.436141 96.0785303,34.165045 100.501931,31.6200241 C100.998257,31.3399473 101.469144,31.0601534 101.919963,30.7800766 C102.198652,31.3433421 102.523977,31.8737906 102.909788,32.3615203 C104.620075,34.4892551 107.124596,35.553264 110.42109,35.553264 C114.385192,35.553264 117.704015,34.155992 120.374731,31.361731 C123.045448,28.5677529 124.46348,25.2518135 124.631372,21.4139128 C124.756018,18.5794791 124.110173,16.2650264 122.690445,14.4705547 L122.690445,14.4705547 Z" id="Fill-3"></path>
                </g>
            </g>
        </g>
    </g>
</svg>