<?xml version="1.0" encoding="UTF-8" standalone="no"?>
<svg width="63px" height="63px" viewBox="0 0 63 63" version="1.1" xmlns="http://www.w3.org/2000/svg" xmlns:xlink="http://www.w3.org/1999/xlink">
    <!-- Generator: Sketch 39.1 (31720) - http://www.bohemiancoding.com/sketch -->
    <title>Group</title>
    <desc>Created with Sketch.</desc>
    <defs>
        <circle id="path-1" cx="31.5" cy="31.5" r="31.5"></circle>
        <mask id="mask-2" maskContentUnits="userSpaceOnUse" maskUnits="objectBoundingBox" x="0" y="0" width="63" height="63" fill="white">
            <use xlink:href="#path-1"></use>
        </mask>
    </defs>
    <g id="Page-1" stroke="none" stroke-width="1" fill="none" fill-rule="evenodd">
        <g id="Group">
            <use id="Oval" stroke="#333333" mask="url(#mask-2)" stroke-width="6" xlink:href="#path-1"></use>
            <path d="M34.8410748,25 L28.882,9 L22.902,9 L12,38.2 L18.44,38.2 L20.786,30.61 L29.922,30.61 L29.922,54.2 L35.902,54.2 L35.902,44.596 L40.066,44.596 C46.644,44.596 50.14,40.686 50.14,34.798 C50.14,28.91 46.644,25 40.066,25 L34.8410748,25 L34.8410748,25 L34.8410748,25 Z M29.296,25.09 L22.488,25.09 L25.892,16.41 L29.296,25.09 L29.296,25.09 L29.296,25.09 Z M35.902,39.076 L35.902,30.52 L40.836,30.52 C43.642,30.52 45.068,31.946 45.068,34.798 C45.068,37.65 43.642,39.076 40.836,39.076 L35.902,39.076 L35.902,39.076 L35.902,39.076 Z" id="Combined-Shape" fill="#343434"></path>
        </g>
    </g>
</svg>