<?xml version="1.0" encoding="UTF-8" standalone="no"?>
<svg width="140px" height="140px" viewBox="0 0 140 140" version="1.1" xmlns="http://www.w3.org/2000/svg" xmlns:xlink="http://www.w3.org/1999/xlink">
    <!-- Generator: Sketch 39.1 (31720) - http://www.bohemiancoding.com/sketch -->
    <title>Group</title>
    <desc>Created with Sketch.</desc>
    <defs></defs>
    <g id="Page-1" stroke="none" stroke-width="1" fill="none" fill-rule="evenodd">
        <g id="Group">
            <circle id="Oval" fill="#2D00A9" cx="70" cy="70" r="70"></circle>
            <path d="M102.363102,60.0877002 C102.363102,54.595993 100.166419,46.0533373 100.166419,46.0533373 C100.166419,46.0533373 79.4199691,10.1741833 47.4460292,29.9443294 C7.41758529,54.473955 45.0052704,88.5225399 45.0052704,88.5225399 C50.4969776,93.1599816 45.0052704,113.174204 45.0052704,113.174204 L78.6877415,115.370886 C78.6877415,110.977521 83.2031452,100.482258 83.2031452,100.482258 L101.508836,102.312827 C101.508836,102.312827 107.366657,95.4787024 103.095329,93.4040574 C98.8240013,91.3294125 103.705519,88.8886537 103.705519,88.8886537 L102.973291,83.3969465 L107.610733,83.1528706 C109.807416,83.1528706 110.661681,80.7121118 110.661681,80.7121118 L102.363102,60.0877002 L102.363102,60.0877002 Z M69.7789719,85.1054776 C69.7789719,85.3495535 69.5348961,85.5936294 69.2908202,85.5936294 L65.2635682,85.5936294 C65.0194923,85.5936294 64.7754165,85.3495535 64.7754165,85.1054776 L64.7754165,84.4952879 C64.7754165,84.251212 65.0194923,84.0071362 65.2635682,84.0071362 L69.2908202,84.0071362 C69.5348961,84.0071362 69.7789719,84.251212 69.7789719,84.4952879 L69.7789719,85.1054776 L69.7789719,85.1054776 Z M71.9756548,82.6647188 C71.9756548,83.0308327 71.731579,83.2749085 71.3654651,83.2749085 L63.3109612,83.2749085 C62.9448474,83.2749085 62.7007715,83.0308327 62.7007715,82.6647188 L62.7007715,82.0545292 C62.7007715,81.6884153 62.9448474,81.4443395 63.3109612,81.4443395 L71.3654651,81.4443395 C71.731579,81.4443395 71.9756548,81.6884153 71.9756548,82.0545292 L71.9756548,82.6647188 L71.9756548,82.6647188 Z M72.8299204,79.9798842 C72.8299204,80.2239601 72.5858445,80.468036 72.3417686,80.468036 L62.5787336,80.468036 C62.3346577,80.468036 62.0905818,80.2239601 62.0905818,79.9798842 L62.0905818,79.3696945 C62.0905818,79.1256186 62.3346577,78.8815427 62.5787336,78.8815427 L72.3417686,78.8815427 C72.5858445,78.8815427 72.8299204,79.1256186 72.8299204,79.3696945 L72.8299204,79.9798842 L72.8299204,79.9798842 Z M79.9081208,56.6706379 C79.9081208,61.1860416 77.4673621,65.0912557 73.9282618,67.2879386 L73.9282618,73.8779873 C73.9282618,75.9526322 72.2197307,77.7832013 70.0230478,77.7832013 L64.6533785,77.7832013 C62.5787336,77.7832013 60.7481645,76.0746702 60.7481645,73.8779873 L60.7481645,67.2879386 C57.2090643,65.0912557 54.7683055,61.1860416 54.7683055,56.6706379 L54.7683055,54.3519171 C54.7683055,47.5177925 60.3820507,41.7820094 67.3382132,41.7820094 C74.2943757,41.7820094 79.9081208,47.3957546 79.9081208,54.3519171 L79.9081208,56.6706379 L79.9081208,56.6706379 Z" id="Shape" fill="#FFFFFF"></path>
        </g>
    </g>
</svg>