<?xml version="1.0" encoding="UTF-8" standalone="no"?>
<svg width="140px" height="140px" viewBox="0 0 140 140" version="1.1" xmlns="http://www.w3.org/2000/svg" xmlns:xlink="http://www.w3.org/1999/xlink">
    <!-- Generator: Sketch 39.1 (31720) - http://www.bohemiancoding.com/sketch -->
    <title>Group 3</title>
    <desc>Created with Sketch.</desc>
    <defs></defs>
    <g id="Page-1" stroke="none" stroke-width="1" fill="none" fill-rule="evenodd">
        <g id="Group-3">
            <circle id="Oval-Copy-2" fill="#2D00A9" cx="70" cy="70" r="70"></circle>
            <g id="Group" transform="translate(29.000000, 31.000000)" fill="#FFFFFF">
                <path d="M0,13.0434783 L0,70.0869565 C0,71.3667188 1.30127201,72.2295556 2.47103876,71.7254324 L27.2892206,61.0297802 C27.9410237,60.7488789 28.3636364,60.1043981 28.3636364,59.3913043 L28.3636364,2.34782609 C28.3636364,1.06806375 27.0623643,0.205227084 25.8925976,0.709350146 L1.07441579,11.4050023 C0.422612605,11.6859037 0,12.3303847 0,13.0434783 L0,13.0434783 Z M24.8181813,5.05764369 L24.8181813,58.1791436 L3.54545465,67.3897598 L3.54545465,14.2004766 L24.8181813,5.05764369 L24.8181813,5.05764369 Z" id="Shape"></path>
                <path d="M36.7366967,65.703157 L25.8925976,61.0297802 C25.2407944,60.7488789 24.8181818,60.1043981 24.8181818,59.3913043 L24.8181818,2.34782609 C24.8181818,1.06806375 26.1194538,0.205227084 27.2892206,0.709350146 L52.1074022,11.4050023 C52.7592057,11.6859037 53.1818182,12.3303847 53.1818182,13.0434783 L53.1818182,43.4457426 C52.5997719,43.3810421 52.0082887,43.3478261 51.4090909,43.3478261 C50.8098928,43.3478261 50.2184099,43.3810421 49.6363636,43.4457426 L49.6363636,14.2004766 L28.3636369,5.05764369 L28.3636369,58.1791436 L35.5659993,61.2976058 C35.7480938,62.8442723 36.1489894,64.323512 36.7366967,65.703157 L36.7366967,65.703157 Z" id="Shape"></path>
                <path d="M49.6363636,43.4457426 L49.6363636,13.0434783 C49.6363636,12.3303847 50.0589761,11.6859037 50.7107796,11.4050023 L75.5289614,0.709350146 C76.6987281,0.205227084 78,1.06806375 78,2.34782609 L78,59.3913043 C78,60.1043981 77.5773875,60.7488789 76.925584,61.0297802 L66.0814851,65.703157 C66.6691924,64.323512 67.070088,62.8442723 67.2521825,61.2976058 L74.4545447,58.1791436 L74.4545447,5.05764369 L53.1818182,14.2004766 L53.1818182,43.4457426 C52.5997719,43.3810421 52.008289,43.3478261 51.4090909,43.3478261 C50.8098931,43.3478261 50.2184099,43.3810421 49.6363636,43.4457426 L49.6363636,43.4457426 Z" id="Shape"></path>
                <path d="M51.4090909,79 C62.1786434,79 70.9090909,70.2208878 70.9090909,59.3913043 C70.9090909,48.5617209 62.1786434,39.7826087 51.4090909,39.7826087 C40.6395384,39.7826087 31.9090909,48.5617209 31.9090909,59.3913043 C31.9090909,70.2208878 40.6395384,79 51.4090909,79 L51.4090909,79 Z M51.4090909,75.4347826 C60.2205431,75.4347826 67.3636364,68.2518728 67.3636364,59.3913043 C67.3636364,50.5307359 60.2205431,43.3478261 51.4090909,43.3478261 C42.5976387,43.3478261 35.4545455,50.5307359 35.4545455,59.3913043 C35.4545455,68.2518728 42.5976387,75.4347826 51.4090909,75.4347826 L51.4090909,75.4347826 Z" id="Shape"></path>
                <path d="M49.6363636,57.6086957 L53.1818182,57.6086957 L53.1818182,68.3043478 L49.6363636,68.3043478 L49.6363636,57.6086957 L49.6363636,57.6086957 Z M49.6363636,50.4782609 L53.1818182,50.4782609 L53.1818182,54.0434783 L49.6363636,54.0434783 L49.6363636,50.4782609 L49.6363636,50.4782609 Z" id="Shape"></path>
            </g>
        </g>
    </g>
</svg>