<?xml version="1.0" encoding="UTF-8" standalone="no"?>
<svg width="140px" height="140px" viewBox="0 0 140 140" version="1.1" xmlns="http://www.w3.org/2000/svg" xmlns:xlink="http://www.w3.org/1999/xlink">
    <!-- Generator: Sketch 39.1 (31720) - http://www.bohemiancoding.com/sketch -->
    <title>Group 4</title>
    <desc>Created with Sketch.</desc>
    <defs></defs>
    <g id="Page-1" stroke="none" stroke-width="1" fill="none" fill-rule="evenodd">
        <g id="Group-4">
            <circle id="Oval-Copy" fill="#2D00A9" cx="70" cy="70" r="70"></circle>
            <g id="Group-2" transform="translate(48.000000, 28.000000)" fill="#FFFFFF">
                <path d="M37.3278689,0.0551788925 L6.76229508,0.0551788925 C3.11967213,0.0551788925 0.162295082,3.07162501 0.162295082,6.78700377 L0.162295082,77.1768776 C0.162295082,80.8922564 3.11967213,83.9087025 6.76229508,83.9087025 L37.3278689,83.9087025 C40.9704918,83.9087025 43.9278689,80.8922564 43.9278689,77.1768776 L43.9278689,6.80539674 C43.9278689,3.09001798 40.9704918,0.0551788925 37.3278689,0.0551788925 L37.3278689,0.0551788925 Z M6.76229508,3.73377172 L37.3278689,3.73377172 C38.9868852,3.73377172 40.3213115,5.11324404 40.3213115,6.78700377 L40.3213115,9.49076951 L3.75081967,9.49076951 L3.75081967,6.80539674 C3.75081967,5.11324404 5.10327869,3.73377172 6.76229508,3.73377172 L6.76229508,3.73377172 Z M40.3213115,11.3484589 L40.3213115,67.4837855 L3.75081967,67.4837855 L3.75081967,11.3484589 L40.3213115,11.3484589 L40.3213115,11.3484589 Z M37.3278689,80.2485026 L6.76229508,80.2485026 C5.10327869,80.2485026 3.76885246,78.8690303 3.76885246,77.1952706 L3.76885246,69.3230819 L40.3213115,69.3230819 L40.3213115,77.1952706 C40.3213115,78.8874233 38.9688525,80.2485026 37.3278689,80.2485026 L37.3278689,80.2485026 Z" id="Shape"></path>
                <path d="M22.0180328,71.1991643 C20.1786885,71.1991643 18.6819672,72.7257803 18.6819672,74.6018626 C18.6819672,76.477945 20.1786885,78.004561 22.0180328,78.004561 C23.857377,78.004561 25.3540984,76.477945 25.3540984,74.6018626 C25.3540984,72.7257803 23.857377,71.1991643 22.0180328,71.1991643 L22.0180328,71.1991643 Z M22.0180328,76.1652646 C21.1704918,76.1652646 20.4852459,75.4663319 20.4852459,74.6018626 C20.4852459,73.7373933 21.1704918,73.0384607 22.0180328,73.0384607 C22.8655738,73.0384607 23.5508197,73.7373933 23.5508197,74.6018626 C23.5508197,75.4663319 22.8655738,76.1652646 22.0180328,76.1652646 L22.0180328,76.1652646 Z" id="Shape"></path>
                <path d="M33.8655738,50.1024344 L9.84590164,50.1024344 C9.34098361,50.1024344 8.9442623,50.5070796 8.9442623,51.0220826 C8.9442623,51.5370856 9.34098361,51.9417308 9.84590164,51.9417308 L33.8655738,51.9417308 C34.3704918,51.9417308 34.7672131,51.5370856 34.7672131,51.0220826 C34.7672131,50.5070796 34.3704918,50.1024344 33.8655738,50.1024344 L33.8655738,50.1024344 Z" id="Shape"></path>
                <path d="M33.8655738,56.1353266 L9.84590164,56.1353266 C9.34098361,56.1353266 8.9442623,56.5399718 8.9442623,57.0549748 C8.9442623,57.5699778 9.34098361,57.974623 9.84590164,57.974623 L33.8655738,57.974623 C34.3704918,57.974623 34.7672131,57.5699778 34.7672131,57.0549748 C34.7672131,56.5399718 34.3704918,56.1353266 33.8655738,56.1353266 L33.8655738,56.1353266 Z" id="Shape"></path>
                <path d="M33.8655738,62.1682189 L9.84590164,62.1682189 C9.34098361,62.1682189 8.9442623,62.5728641 8.9442623,63.0878671 C8.9442623,63.6028701 9.34098361,64.0075153 9.84590164,64.0075153 L33.8655738,64.0075153 C34.3704918,64.0075153 34.7672131,63.6028701 34.7672131,63.0878671 C34.7672131,62.5728641 34.3704918,62.1682189 33.8655738,62.1682189 L33.8655738,62.1682189 Z" id="Shape"></path>
                <path d="M21.8196721,46.1111611 C30.2770492,46.1111611 37.147541,39.1034418 37.147541,30.4771416 C37.147541,21.8508414 30.2770492,14.8431221 21.8196721,14.8431221 C13.3622951,14.8431221 6.49180328,21.8508414 6.49180328,30.4771416 C6.49180328,39.1034418 13.3622951,46.1111611 21.8196721,46.1111611 L21.8196721,46.1111611 Z M21.8196721,16.6640255 C29.2852459,16.6640255 35.3442623,22.8624544 35.3442623,30.4587486 C35.3442623,34.7810952 33.3786885,38.6436177 30.3311475,41.1818468 C28.6901639,35.6271716 24.0557377,33.7143033 22.252459,33.1625144 C25.2098361,32.9417988 27.5540984,30.4219627 27.5540984,27.3319447 C27.5540984,24.113176 24.9934426,21.4829821 21.8196721,21.4829821 C18.6459016,21.4829821 16.0852459,24.094783 16.0852459,27.3319447 C16.0852459,30.4219627 18.4295082,32.9417988 21.3868852,33.1625144 C19.5836066,33.7143033 14.9491803,35.6271716 13.3081967,41.1818468 C10.242623,38.6436177 8.29508197,34.7810952 8.29508197,30.4587486 C8.29508197,22.8624544 14.3540984,16.6640255 21.8196721,16.6640255 L21.8196721,16.6640255 Z" id="Shape"></path>
            </g>
        </g>
    </g>
</svg>