<?xml version="1.0" encoding="UTF-8" standalone="no"?>
<svg width="146px" height="81px" viewBox="0 0 146 81" version="1.1" xmlns="http://www.w3.org/2000/svg" xmlns:xlink="http://www.w3.org/1999/xlink">
    <!-- Generator: Sketch 3.8.3 (29802) - http://www.bohemiancoding.com/sketch -->
    <title>Group</title>
    <desc>Created with Sketch.</desc>
    <defs></defs>
    <g id="Page-1" stroke="none" stroke-width="1" fill="none" fill-rule="evenodd">
        <g id="Group" transform="translate(-1.000000, 0.000000)" fill="#333333">
            <path d="M20.4653056,53.7427843 C19.2225338,51.3890449 18.3406635,48.8250286 17.8196681,46.0506583 C16.3936502,45.7052961 15.0748012,45.5714498 13.8630816,45.6491154 C12.651362,45.726781 11.704745,45.8030532 11.0232023,45.8779342 C6.8203823,51.8564349 4.03547992,54.8894511 2.66841165,54.9770738 C1.67418018,55.0407994 1.11832575,54.1561183 1.00083168,52.3230041 C0.92117468,51.0802147 1.23028125,50.0621014 1.92816065,49.2686336 C2.59696174,48.508227 4.1954429,47.4074708 6.72365208,45.966332 C7.14468837,45.720964 7.52588607,45.4625542 7.8672566,45.1910949 C8.20862714,44.9196357 8.5266906,44.649674 8.82145653,44.3812019 C9.11423104,44.0816601 9.44862657,43.7014624 9.82465316,43.2405976 C10.2006797,42.7797329 10.632865,42.2216844 11.121222,41.5664355 C12.5922672,39.693898 13.7197352,37.9369996 14.50366,36.2956876 C15.2875847,34.6543756 15.6883086,33.2404287 15.7058436,32.0538046 C17.9189673,31.5375852 19.9231377,30.9255752 21.7184149,30.2177562 C21.347552,32.7061193 21.2597017,35.4726763 21.4548613,38.5175102 C21.5544326,40.0709969 21.6921428,41.4894288 21.8679961,42.7728484 C22.0438495,44.0562681 22.2841297,45.2497474 22.588844,46.3533221 C22.8935583,47.4568968 23.2569216,48.502101 23.6789449,49.4889659 C24.1009681,50.4758309 24.606932,51.4339027 25.1968516,52.3632102 L20.4653056,53.7427843 Z M16.9083548,34.5615198 C15.2717309,37.9801994 13.2703249,41.0166439 10.9040768,43.6709445 C12.0904497,43.5428334 13.1115905,43.4887344 13.9675298,43.5086461 C14.8234692,43.5285577 15.6090033,43.5624022 16.3241558,43.6101806 L16.3730296,41.509249 C16.3990957,40.3887466 16.456829,39.2456415 16.5462314,38.0798996 C16.6356337,36.9141577 16.7563403,35.7413762 16.9083548,34.5615198 L16.9083548,34.5615198 Z M35.655221,37.3042473 C36.856777,35.7288413 38.4689214,34.2866641 40.4917025,32.9776724 C42.5144835,31.6686807 44.1583796,30.9290413 45.4234401,30.7587318 C45.7628466,30.7130391 46.3114101,30.9376203 47.0691469,31.4324823 C47.8927479,31.9498916 48.3232344,32.3474385 48.3606194,32.6251347 C48.4021583,32.933686 48.3081155,33.4018479 48.078488,34.0296343 C46.7725193,37.6296156 46.1969967,41.2882783 46.351903,45.005732 L41.5153971,46.8820029 C41.6002039,42.3783331 42.4973246,38.4250641 44.2067861,35.0220772 L42.9402367,34.0145547 C40.8492156,35.0500041 39.1103876,36.3678737 37.7237008,37.968203 C36.3637152,39.5335234 35.6338948,40.7626756 35.5342177,41.6556966 C35.2102796,45.7831729 34.5700655,47.9112645 33.6135563,48.040035 C33.3975704,48.0691123 33.0152973,47.97136 32.4667256,47.7467754 C31.918154,47.5221908 31.3050608,47.1099602 30.6274277,46.5100711 C29.9497946,45.910182 29.5870986,45.4328276 29.5393289,45.0779936 C29.4915592,44.7231596 29.6608113,44.3469677 30.0470904,43.9494068 C30.877205,43.115122 31.3595981,42.2648325 31.4942842,41.3985128 C31.6064229,40.5980572 31.5399535,39.2876226 31.2948741,37.4671697 C31.0622563,35.7392822 30.8456674,34.4804714 30.6451009,33.6906996 L35.3801442,32.1108159 C35.4774615,32.6003442 35.5811577,33.2539291 35.6912357,34.0715901 C35.8013138,34.8892512 35.789309,35.9667928 35.655221,37.3042473 L35.655221,37.3042473 Z M65.4374125,26.206965 C67.5152777,19.086463 69.1738115,15.4647758 70.4130638,15.3417946 C70.939746,15.2895276 71.6193153,15.8321643 72.451792,16.9697211 C73.3121755,18.0732221 73.7654195,18.8573206 73.8115374,19.3220402 C73.8515063,19.7247972 73.5970386,20.3131972 73.0481266,21.0872578 C69.7766487,25.3227157 68.3407757,29.4541676 68.7404645,33.4817375 C68.9034146,35.1237467 69.4085708,36.9038439 70.2559481,38.8220824 L65.5615956,40.2265295 C65.0483915,38.8382837 64.7518251,37.7414203 64.6718873,36.9359063 C64.5919495,36.1303924 64.5474875,35.5247287 64.5384999,35.1188972 C60.9761281,38.945213 58.575352,40.9198319 57.3360998,41.0428131 C56.6296788,41.1754899 55.9164688,41.0820163 55.1964484,40.7623897 C54.476428,40.442763 53.8277216,40.0534932 53.2503096,39.5945687 C52.6728977,39.1356441 52.1954135,38.6589891 51.8178428,38.1645895 C51.440272,37.6701898 51.2686352,37.2805054 51.302927,36.9955246 C51.2137657,36.0970667 52.2125996,34.339789 54.2994588,31.7236386 C56.4761874,29.0672833 59.014958,26.9068974 61.9158467,25.242416 L65.4374125,26.206965 Z M65.8988135,27.6087874 L64.9974036,27.5105241 C61.1666036,29.8930167 58.5774612,33.1221237 57.2298988,37.197942 C57.5643081,37.4150471 57.8979438,37.6244038 58.2308159,37.8260183 C58.5636879,38.0276328 58.8957863,38.2214991 59.2271211,38.4076229 C60.3367711,37.6092021 61.392247,36.7379528 62.3935804,35.7938489 C63.3949138,34.8497451 64.3405375,33.8173246 65.2304799,32.6965566 C65.238045,30.8811936 65.4608206,29.1852875 65.8988135,27.6087874 L65.8988135,27.6087874 Z M93.7034878,18.5611622 C93.3903681,19.199095 93.072376,19.8995791 92.7495019,20.6626353 C92.4266278,21.4256916 92.0988815,22.2512972 91.766253,23.139477 L88.2479881,22.8826305 C87.5204294,23.3217005 86.8146145,24.2272532 86.1305222,25.5993159 C85.4717341,26.8455306 85.0067959,28.23853 84.7356937,29.7783557 C84.4942424,31.2856328 84.1997942,32.4914803 83.8523404,33.3959344 C83.5048865,34.3003884 83.0668182,34.764924 82.5381223,34.7895549 C82.0405262,34.812737 81.3805335,34.3603996 80.5581243,33.4325292 C79.7668149,32.5032098 79.3581263,31.7586635 79.3320465,31.1988679 C79.3059667,30.6390723 79.3994073,30.1360504 79.6123711,29.6897873 C79.825335,29.2435241 80.2105967,28.6489898 80.7681678,27.9061667 C81.2085843,27.3246379 81.3932922,26.2719452 81.3222971,24.7480572 C81.2643419,23.5040669 81.189583,22.4011288 81.0980181,21.4392096 C81.0064532,20.4772905 80.8818109,19.641594 80.7240877,18.9320952 L85.4279939,17.5441826 C85.4706847,17.7915318 85.4978252,18.0396016 85.5094162,18.2883997 C85.5210073,18.5371977 85.5325981,18.7859921 85.5441892,19.0347901 C85.5804112,19.812284 85.5692593,20.5763899 85.5107331,21.3271307 C85.452207,22.0778715 85.3633068,22.8455996 85.2440301,23.6303379 C86.1089254,22.1251829 86.894274,20.9198404 87.6000996,20.0142741 C88.3059251,19.1087078 88.992956,18.4689479 89.661213,18.0949752 C90.3294699,17.7210025 90.9852588,17.5813667 91.6285994,17.6760637 C92.2719399,17.7707607 92.9635625,18.0657906 93.7034878,18.5611622 L93.7034878,18.5611622 Z M113.673608,22.5287483 L113.548204,23.7911946 C113.491018,24.2277592 113.323606,24.5566281 113.045962,24.7778115 C112.830218,24.9671381 111.978832,25.3818122 110.491779,26.021846 C109.779021,26.3103689 109.050527,26.5835034 108.306275,26.8412576 C107.562023,27.0990117 106.833076,27.3332325 106.119411,27.543927 C105.405746,27.7546215 104.738245,27.9180725 104.116887,28.0342849 C103.495528,28.1504974 102.951372,28.2113224 102.484401,28.2167619 C101.176884,28.2319924 99.8634021,27.7335627 98.5439174,26.7214578 C97.8843564,26.2309711 97.3961159,25.74628 97.0791814,25.2673699 C96.7622468,24.7884599 96.5852248,24.2923598 96.54811,23.7790547 C96.5109952,23.2657496 96.598042,22.7198708 96.8092529,22.141402 C97.0204639,21.5629331 97.3242485,20.9133404 97.7206159,20.1926046 C98.3917262,19.0016344 99.0107044,18.0136675 99.577569,17.2286744 C100.144434,16.4436813 100.643421,15.8463014 101.074546,15.4365167 C101.90639,14.6795726 103.190889,14.0263399 104.928081,13.4767992 C106.665274,12.9272584 108.467784,12.6416134 110.335667,12.6198555 C112.234681,12.5977349 113.498202,12.8165304 114.126269,13.2762484 C114.753974,13.7048351 115.075074,14.5417433 115.089579,15.7869984 C115.103722,17.0011221 114.756595,17.9392196 114.048188,18.601319 C113.370913,19.2630558 112.131842,19.8067863 110.330936,20.2325268 C109.430665,20.4609628 108.265885,20.7002604 106.836561,20.9504267 C105.407237,21.2005931 103.666898,21.4777302 101.615491,21.7818463 C101.820411,23.3362393 102.675632,24.5872502 104.181179,25.5349166 C107.411952,24.9057067 110.576064,23.9036607 113.673608,22.5287483 L113.673608,22.5287483 Z M109.575183,16.2991567 L109.552338,14.3378898 L104.656242,15.0020627 C103.490293,16.4790174 102.388618,18.1264447 101.351184,19.944394 C103.124222,19.7991985 104.546648,19.6269538 105.618505,19.4276548 C106.690361,19.2283558 107.520394,18.9851737 108.108626,18.6981013 C108.696858,18.4110289 109.08997,18.0795309 109.287972,17.7035972 C109.485975,17.3276636 109.581711,16.8595214 109.575183,16.2991567 L109.575183,16.2991567 Z M135.042903,17.261501 C136.33509,16.4923356 137.832997,15.0392613 139.536668,12.9022346 C141.273401,10.7942861 142.121841,9.42963505 142.082012,8.80824038 C142.068072,8.59075225 141.853777,8.16773088 141.43912,7.53916358 C140.572763,6.1908112 140.514616,5.04025261 141.264678,4.08745329 C141.642696,3.65765823 142.409673,2.96896198 143.565633,2.02134388 C144.690523,1.07571719 145.454909,0.589966877 145.858816,0.564078352 C146.262722,0.538189828 146.489565,0.913611601 146.539351,1.69035494 C146.654853,3.49239947 146.007959,5.81123656 144.598648,8.64693577 C143.16225,11.5467659 141.23733,14.3686767 138.823831,17.1127528 C136.348191,19.8608118 134.566678,21.2696701 133.479238,21.33937 C132.174309,21.4230098 130.955849,19.6916868 129.823821,16.1453491 C129.246238,16.8687117 128.611803,17.5567119 127.920497,18.2093701 C127.229191,18.8620284 126.451957,19.5123859 125.588772,20.1604622 C123.920558,21.3904924 122.744702,22.0274036 122.061168,22.071215 C121.377634,22.1150263 120.58557,21.6822419 119.684953,20.7728486 C118.784336,19.8634553 118.290224,18.7252416 118.202601,17.3581734 C118.114978,15.9911051 118.289058,14.3265114 118.724844,12.3643423 C119.218788,10.3360508 119.855919,8.59498228 120.636258,7.14108438 L126.110486,5.66711199 C124.9832,7.54881353 124.115437,9.58543664 123.507172,11.7770424 C122.933959,14.0287963 122.696146,15.9158534 122.793726,17.4382703 L123.806465,18.6368458 C125.005443,17.8736546 126.125735,17.0999188 127.167372,16.3156151 C127.673652,15.9399938 128.082434,15.6252214 128.393731,15.3712884 C128.705027,15.1173554 128.919825,14.9398042 129.038129,14.8386293 C129.241677,14.6072012 129.375317,14.3802572 129.439051,14.1577905 C129.502785,13.9353238 129.519717,13.5910726 129.489845,13.1250266 C129.373144,11.7910195 129.41647,10.6417562 129.619825,9.6772022 C129.823179,8.71264822 130.170025,7.91829356 130.660373,7.29411441 C131.150722,6.66993525 131.798101,6.18388535 132.60253,5.83595012 C133.40696,5.48801489 134.350889,5.2481312 135.434347,5.11629186 C135.962532,5.08243764 136.334068,5.16001387 136.548966,5.34902287 C136.763863,5.53803188 136.889233,5.91215837 136.925079,6.47141357 C136.960924,7.03066877 136.751203,7.65245064 136.295907,8.33677784 C135.840611,9.02110504 135.099125,9.86415193 134.071427,10.8659438 C133.6002,11.3017131 133.382513,11.7992179 133.418358,12.3584731 C133.505981,13.7255414 134.04749,15.3598677 135.042903,17.261501 L135.042903,17.261501 Z" id="Andrew-Paul"></path>
            <path d="M42.2501894,62.8493631 C44.8633394,58.2252142 47.3115176,55.7594829 49.5947975,55.4520951 C51.2301196,55.231939 52.7517932,55.4511703 54.1598638,56.1097956 C55.5679345,56.7684209 56.3321897,57.5451213 56.4526525,58.4399202 C56.7974253,61.0008964 55.8172199,63.5203121 53.512007,65.9982431 C51.206794,68.476174 48.5731806,69.9145046 45.6110877,70.3132779 C45.1874236,70.4331426 44.7300908,70.3612023 44.2390755,70.0974548 C43.7480602,69.8337073 43.367565,69.5158185 43.0975785,69.143779 C42.827592,68.7717395 42.7237504,68.4087526 42.7860506,68.0548075 C42.8483508,67.7008624 43.2343292,67.4761235 43.9439973,67.3805841 C44.2525486,67.3390452 44.7345054,67.3605497 45.389882,67.4450982 C46.0452587,67.5296467 47.0754798,67.5401686 48.4805764,67.4766641 C50.691446,65.2313347 51.7321728,62.5781157 51.6027879,59.5169275 L49.2904341,58.7915609 C47.0125042,60.0720734 45.08633,62.0984165 43.5118536,64.8706511 C41.9373772,67.6428856 40.8398425,70.9241766 40.2192166,74.7146225 C39.8353298,76.9967225 39.4751755,78.521661 39.1387431,79.2894835 C38.8290119,80.022297 38.3656019,80.4302366 37.7484992,80.5133143 C37.1622517,80.5922382 36.3419279,80.2157596 35.2875033,79.3838671 C34.25978,78.5169656 33.7106185,77.8212566 33.6400024,77.2967193 C33.5320013,76.4944858 34.0713518,75.1339063 35.2580702,73.2149399 C35.8472755,72.2246015 36.3183951,71.4072436 36.6714431,70.7628416 C37.0244911,70.1184396 37.2440296,69.6490898 37.3300651,69.354778 C37.4119467,69.0296111 37.5034682,68.601056 37.6046323,68.0690999 C37.7057964,67.5371438 37.8124462,66.870948 37.9245849,66.0704924 C38.1447084,64.4387261 38.1644228,62.9517661 37.9837286,61.6095678 C37.8030345,60.2673694 37.6391078,59.1663918 37.4919438,58.306602 L43.136611,56.1330468 C42.9508984,57.3203795 42.7841758,58.4737244 42.6364381,59.5931161 C42.4887004,60.7125077 42.3599522,61.7979125 42.2501894,62.8493631 L42.2501894,62.8493631 Z M64.2973944,58.2109375 C66.5192969,57.2708522 68.7765227,56.6870607 71.0691394,56.4595455 C74.6939523,56.0998255 77.1083307,56.6267326 78.3123471,58.0402826 C79.5473448,59.4507581 80.1909675,60.4193225 80.2432345,60.9460047 C80.2678307,61.1938551 80.1405969,61.4880551 79.8615291,61.8286135 C79.3343749,62.5066557 78.9134146,63.0724707 78.5986358,63.5260754 C78.2838569,63.9796801 78.0613156,64.3380887 77.9310053,64.6013118 C77.6611612,65.0348141 77.5416135,65.4064662 77.5723588,65.7162793 C77.6492221,66.4908119 77.8716469,67.3134595 78.23964,68.1842466 C78.6076332,69.0550337 79.0547281,69.7771706 79.5809383,70.3506788 L75.597851,71.3560354 C74.6227659,70.3577765 74.0351919,69.0082186 73.8351115,67.3073212 C72.1983072,68.7837843 70.7057891,69.9799784 69.3575122,70.8959395 C68.0092353,71.8119005 66.8084327,72.3221404 65.7550683,72.4266744 C64.7017039,72.5312084 63.640905,72.2454059 62.57264,71.5692582 C61.4733936,70.896185 60.8868848,70.1878833 60.8130961,69.444332 C60.6808913,68.1121358 61.8174838,66.4819739 64.2229077,64.5537973 C66.6531638,62.5605836 70.187697,60.6611684 74.8266135,58.8554946 C73.6403362,58.5664952 72.1565073,58.5103891 70.3750822,58.6871746 C68.593657,58.86396 66.5285243,59.4130456 64.179622,60.3344476 L64.2973944,58.2109375 Z M75.7463205,61.3346729 L74.5756578,60.8876947 C69.2948854,63.4766527 66.1778855,66.2732112 65.2245645,69.2774539 L67.1338091,70.0735011 C69.8052946,68.6195037 72.0090709,67.0242231 73.7452041,65.2876115 C73.9720049,64.4203709 74.639037,63.1027379 75.7463205,61.3346729 L75.7463205,61.3346729 Z M89.5238215,62.7734243 C94.3296905,59.8760085 96.9032849,56.4665748 97.2446817,52.5450211 C97.3725557,51.1329431 97.535079,50.1398236 97.7322563,49.5656327 C97.9294337,48.9914418 98.276575,48.6884195 98.7736907,48.6565567 C99.3018762,48.6227025 100.094936,49.0710216 101.152893,50.0015274 C102.21085,50.9320333 102.758739,51.6924373 102.796576,52.2827622 C102.836404,52.9041569 102.536461,53.5785169 101.896739,54.3058623 C101.576877,54.6695351 101.312388,55.0452521 101.103262,55.4330245 C100.894136,55.820797 100.722854,56.1905398 100.589411,56.542264 C100.355586,57.2747907 100.279997,58.2857359 100.362641,59.5751298 C100.445285,60.8645237 100.785941,62.2855462 101.38462,63.8382398 L96.6064694,65.220801 C96.3232642,64.2094397 96.1552778,63.2920989 96.102505,62.468751 C96.0497323,61.6454031 96.0450578,60.8423823 96.0884813,60.0596647 C92.5170306,63.7202892 89.3953535,65.636204 86.7233565,65.8074666 C86.1641013,65.8433122 85.5704016,65.584995 84.9422396,65.0325071 C84.3140775,64.4800193 83.9870572,64.0018292 83.9611687,63.5979227 C83.9352801,63.1940162 84.0276949,62.6889423 84.2384157,62.082686 C84.7431093,60.7088504 85.1485121,59.4895843 85.4546362,58.4248511 C85.7607602,57.3601179 85.9966743,56.416889 86.1623854,55.5951359 C86.495799,53.9826996 86.6698784,52.3181059 86.684629,50.6013048 L91.9168745,49.002455 C91.618496,53.1084357 90.3840611,57.2119581 88.2135329,61.3131454 L89.5238215,62.7734243 Z M106.491703,62.1383239 C106.257388,61.5639494 106.073732,60.4622347 105.940731,58.8331467 C105.807729,57.2040588 105.928346,55.0466948 106.302585,52.36099 C106.676824,49.6752852 107.518085,46.7796903 108.826395,43.6741185 C109.480549,42.1213326 110.01976,40.8825103 110.444043,39.9576145 C110.868326,39.0327187 111.178936,38.4372919 111.37588,38.1713164 C111.798267,37.6058018 112.226665,37.3053154 112.661089,37.2698484 C113.095512,37.2343813 113.728145,37.7137544 114.559005,38.707982 C115.392399,39.7332399 115.834422,40.556159 115.88509,41.1767639 C115.93829,41.8283991 115.470002,42.7881108 114.480211,44.0559279 C113.062967,45.8271991 111.989291,47.7890522 111.259149,49.9415463 C110.908326,51.0010115 110.680995,52.0425701 110.577148,53.0662532 C110.473301,54.0899364 110.443863,55.0684837 110.488833,56.0019244 C110.533804,56.9353652 110.628009,57.8022991 110.771453,58.602752 C110.914896,59.403205 111.088257,60.0918751 111.291542,60.668783 L106.491703,62.1383239 Z" id="Andrew-Paul"></path>
        </g>
    </g>
</svg>