<svg width="1200" height="680" viewBox="0 0 1200 680" xmlns="http://www.w3.org/2000/svg" xmlns:sketch="http://www.bohemiancoding.com/sketch/ns"><title/><desc>Created with Sketch.</desc><g sketch:type="MSArtboardGroup" fill="none"><path stroke="#979797" fill="#226FBF" sketch:type="MSShapeGroup" d="M0 0h1203v682h-1203z"/><g sketch:type="MSLayerGroup"><path d="M447.066 31.809h133.446v85.686h-133.446v-85.686z" stroke="#ACB0AB" sketch:type="MSShapeGroup"/><path d="M447.066 31.809h133.446v85.686h-133.446v-85.686z" stroke="#ACB0AB" stroke-linecap="round" stroke-linejoin="round" sketch:type="MSShapeGroup"/><text sketch:type="MSTextLayer" font-family="Helvetica" font-size="16.241" letter-spacing="-.211" fill="#ACB0AB" transform="translate(112 -6)"><tspan x="348.445" y="85.04">V</tspan><tspan x="358.78" y="85.04" letter-spacing=".002">i</tspan><tspan x="362.391" y="85.04">s</tspan><tspan x="370.511" y="85.04" letter-spacing=".002">iona</tspan><tspan x="401.226" y="85.04">ry</tspan><tspan x="418.768" y="85.04" letter-spacing="-.442">T</tspan><tspan x="427.652" y="85.04">r</tspan><tspan x="433.061" y="85.04" letter-spacing=".002">a</tspan><tspan x="442.095" y="85.04">ck</tspan></text><path d="M513.629-1.646l.069 32.729" stroke="#ACB0AB" stroke-linecap="square" sketch:type="MSShapeGroup"/><path d="M512.652 362.028h231.873v215.503h-231.873v-215.503z" sketch:type="MSShapeGroup"/><path d="M512.652 362.028h231.873v215.503h-231.873v-215.503z" stroke="#ACB0AB" stroke-linecap="round" stroke-linejoin="round" sketch:type="MSShapeGroup"/><text sketch:type="MSTextLayer" font-family="Helvetica" font-size="16.241" font-weight="bold" letter-spacing="0" fill="#ACB0AB" transform="translate(112 -6)"><tspan x="471.131" y="419.209">Dashboard</tspan></text><text sketch:type="MSTextLayer" font-family="Helvetica" font-size="16.241" fill="#ACB0AB" transform="translate(112 -6)"><tspan x="430" y="459.848">E</tspan><tspan x="440.832" y="459.848" letter-spacing=".002">di</tspan><tspan x="453.477" y="459.848" letter-spacing="-.002">t</tspan><tspan x="457.987" y="459.848" letter-spacing=".002">able</tspan><tspan x="493.211" y="459.848">Pr</tspan><tspan x="509.452" y="459.848" letter-spacing=".002">oje</tspan><tspan x="531.132" y="459.848">c</tspan><tspan x="539.252" y="459.848" letter-spacing="-.002">t F</tspan><tspan x="558.19" y="459.848" letter-spacing=".002">ield</tspan><tspan x="583.48" y="459.848">s</tspan></text><text sketch:type="MSTextLayer" font-family="Helvetica" font-size="16.241" font-weight="bold" letter-spacing="-.002" fill="#ACB0AB" transform="translate(112 -6)"><tspan x="480.31" y="500.488">F</tspan><tspan x="490.228" y="500.488" letter-spacing=".002">ea</tspan><tspan x="508.297" y="500.488">t</tspan><tspan x="513.705" y="500.488">u</tspan><tspan x="523.623" y="500.488" letter-spacing=".002">re</tspan><tspan x="538.981" y="500.488">s</tspan></text><text sketch:type="MSTextLayer" font-family="Helvetica" font-size="16.241" fill="#ACB0AB" transform="translate(112 -6)"><tspan x="424.344" y="520.807">S</tspan><tspan x="435.176" y="520.807" letter-spacing=".002">ub</tspan><tspan x="453.245" y="520.807">m</tspan><tspan x="466.774" y="520.807" letter-spacing=".002">i</tspan><tspan x="470.385" y="520.807">ss</tspan><tspan x="486.625" y="520.807" letter-spacing=".002">ion</tspan><tspan x="512.815" y="520.807">c</tspan><tspan x="520.935" y="520.807" letter-spacing=".002">u</tspan><tspan x="529.97" y="520.807" letter-spacing="-.002">t</tspan><tspan x="534.479" y="520.807" letter-spacing=".002">o</tspan><tspan x="543.514" y="520.807" letter-spacing="-.212">f</tspan><tspan x="547.528" y="520.807" letter-spacing="-.002">f</tspan><tspan x="556.548" y="520.807" letter-spacing=".002">da</tspan><tspan x="574.617" y="520.807" letter-spacing="-.002">t</tspan><tspan x="579.127" y="520.807" letter-spacing=".002">e</tspan><tspan x="588.162" y="520.807">s</tspan></text><text sketch:type="MSTextLayer" font-family="Helvetica" font-size="16.241" letter-spacing="-.002" fill="#ACB0AB" transform="translate(112 -6)"><tspan x="472.1" y="541.127">F</tspan><tspan x="482.018" y="541.127" letter-spacing=".002">ull</tspan><tspan x="502.783" y="541.127" letter-spacing=".002">C</tspan><tspan x="514.514" y="541.127">r</tspan><tspan x="519.922" y="541.127" letter-spacing=".002">i</tspan><tspan x="523.533" y="541.127">t</tspan><tspan x="528.043" y="541.127" letter-spacing=".002">e</tspan><tspan x="537.077" y="541.127">r</tspan><tspan x="542.486" y="541.127" letter-spacing=".002">i</tspan><tspan x="546.096" y="541.127">a</tspan></text><path d="M913.291 469.779h38.947" stroke="#ACB0AB" stroke-linecap="square" sketch:type="MSShapeGroup"/><path d="M512.652 153.852h231.873v134.849h-231.873v-134.849z" stroke="#ACB0AB" sketch:type="MSShapeGroup"/><path d="M512.652 153.852h231.873v134.849h-231.873v-134.849z" stroke="#ACB0AB" stroke-linecap="round" stroke-linejoin="round" sketch:type="MSShapeGroup"/><text sketch:type="MSTextLayer" font-family="Helvetica" font-size="16.241" font-weight="bold" letter-spacing=".002" fill="#ACB0AB" transform="translate(112 -6)"><tspan x="441.622" y="191.026">Das</tspan><tspan x="471.422" y="191.026" letter-spacing="-.002">hbo</tspan><tspan x="501.176" y="191.026">ar</tspan><tspan x="516.534" y="191.026" letter-spacing="-.002">d</tspan><tspan x="530.961" y="191.026">Crea</tspan><tspan x="567.084" y="191.026">te</tspan></text><text sketch:type="MSTextLayer" font-family="Helvetica" font-size="16.241" font-weight="bold" letter-spacing=".002" fill="#ACB0AB" transform="translate(112 -6)"><tspan x="428.568" y="211.346">Ne</tspan><tspan x="449.333" y="211.346" letter-spacing="-.002">w</tspan><tspan x="466.473" y="211.346">Dev</tspan><tspan x="500.783" y="211.346">S</tspan><tspan x="511.615" y="211.346" letter-spacing="-.002">ub</tspan><tspan x="531.451" y="211.346">m</tspan><tspan x="545.894" y="211.346" letter-spacing="-.002">i</tspan><tspan x="550.404" y="211.346">ss</tspan><tspan x="568.473" y="211.346" letter-spacing="-.002">io</tspan><tspan x="582.901" y="211.346">n</tspan></text><text sketch:type="MSTextLayer" font-family="Helvetica" font-size="16.241" letter-spacing="-.002" fill="#ACB0AB" transform="translate(112 -6)"><tspan x="468.224" y="251.985">F</tspan><tspan x="478.142" y="251.985" letter-spacing=".002">ill</tspan><tspan x="493.484" y="251.985" letter-spacing=".002">ou</tspan><tspan x="511.553" y="251.985">t</tspan><tspan x="520.573" y="251.985">E</tspan><tspan x="531.405" y="251.985" letter-spacing=".002">n</tspan><tspan x="540.44" y="251.985">t</tspan><tspan x="544.949" y="251.985">ry</tspan></text><text sketch:type="MSTextLayer" font-family="Helvetica" font-size="16.241" fill="#ACB0AB" transform="translate(112 -6)"><tspan x="489.502" y="272.305">S</tspan><tspan x="500.334" y="272.305" letter-spacing=".002">ub</tspan><tspan x="518.403" y="272.305">m</tspan><tspan x="531.932" y="272.305" letter-spacing=".002">i</tspan><tspan x="535.542" y="272.305">t</tspan></text><path d="M628.588 289.427v71.875" stroke="#ACB0AB" stroke-linecap="square" sketch:type="MSShapeGroup"/><path d="M765.435-.407l.304 31.49" stroke="#ACB0AB" stroke-linecap="square" sketch:type="MSShapeGroup"/><path d="M699.437 31.809h133.446v85.686h-133.446v-85.686z" stroke="#ACB0AB" sketch:type="MSShapeGroup"/><path d="M699.437 31.809h133.446v85.686h-133.446v-85.686z" stroke="#ACB0AB" stroke-linecap="round" stroke-linejoin="round" sketch:type="MSShapeGroup"/><text sketch:type="MSTextLayer" font-family="Helvetica" font-size="16.241" letter-spacing=".002" fill="#ACB0AB" transform="translate(112 -6)"><tspan x="614.98" y="85.04">De</tspan><tspan x="635.745" y="85.04">v</tspan><tspan x="647.88" y="85.04" letter-spacing="-.442">T</tspan><tspan x="656.764" y="85.04">r</tspan><tspan x="662.172" y="85.04">a</tspan><tspan x="671.207" y="85.04">ck</tspan></text><path d="M726.294 118.029l-32.443 35.3" stroke="#ACB0AB" stroke-linecap="square" sketch:type="MSShapeGroup"/><path d="M784.922 429.14h127.644v81.279h-127.644v-81.279z" stroke="#ACB0AB" sketch:type="MSShapeGroup"/><path d="M784.922 429.14h127.644v81.279h-127.644v-81.279z" stroke="#ACB0AB" stroke-linecap="round" stroke-linejoin="round" sketch:type="MSShapeGroup"/><text sketch:type="MSTextLayer" font-family="Helvetica" font-size="12.273" font-weight="bold" letter-spacing="0" fill="#ACB0AB" transform="translate(112 -6)"><tspan x="704.477" y="454.848">Dropdown</tspan></text><text sketch:type="MSTextLayer" font-family="Helvetica" font-size="12.273" letter-spacing="-.158" fill="#ACB0AB" transform="translate(112 -6)"><tspan x="694.416" y="470.814">V</tspan><tspan x="702.227" y="470.814" letter-spacing=".002">iew</tspan><tspan x="724.056" y="470.814" letter-spacing=".002">U</tspan><tspan x="732.92" y="470.814">s</tspan><tspan x="739.057" y="470.814" letter-spacing=".002">e</tspan><tspan x="745.884" y="470.814">r</tspan><tspan x="749.971" y="470.814" letter-spacing="-.002">I</tspan><tspan x="756.787" y="470.814" letter-spacing=".002">n</tspan><tspan x="763.614" y="470.814" letter-spacing="-.002">f</tspan><tspan x="767.022" y="470.814" letter-spacing=".002">o</tspan></text><text sketch:type="MSTextLayer" font-family="Helvetica" font-size="12.273" fill="#ACB0AB" transform="translate(112 -6)"><tspan x="700.455" y="486.779">E</tspan><tspan x="708.641" y="486.779" letter-spacing=".002">di</tspan><tspan x="718.197" y="486.779" letter-spacing="-.002">t</tspan><tspan x="723.849" y="486.779">Acc</tspan><tspan x="744.308" y="486.779" letter-spacing=".002">oun</tspan><tspan x="764.79" y="486.779">t</tspan></text><text sketch:type="MSTextLayer" font-family="Helvetica" font-size="12.273" letter-spacing="0" fill="#ACB0AB" transform="translate(112 -6)"><tspan x="713.519" y="502.745">Log Out</tspan></text><path d="M745.25 469.779h38.947" stroke="#ACB0AB" stroke-linecap="square" sketch:type="MSShapeGroup"/><path d="M952.964 402.355h127.644v134.85h-127.644v-134.85z" stroke="#ACB0AB" sketch:type="MSShapeGroup"/><path d="M952.964 402.355h127.644v134.85h-127.644v-134.85z" stroke="#ACB0AB" stroke-linecap="round" stroke-linejoin="round" sketch:type="MSShapeGroup"/><text sketch:type="MSTextLayer" font-family="Helvetica" font-size="12.273" font-weight="bold" letter-spacing=".002" fill="#ACB0AB" transform="translate(112 -6)"><tspan x="861.986" y="430.9">User</tspan><tspan x="892.691" y="430.9">Ca</tspan><tspan x="908.383" y="430.9" letter-spacing="-.002">n</tspan><tspan x="919.286" y="430.9">E</tspan><tspan x="927.472" y="430.9" letter-spacing="-.002">di</tspan><tspan x="938.374" y="430.9">t</tspan></text><text sketch:type="MSTextLayer" font-family="Helvetica" font-size="12.273" fill="#ACB0AB" transform="translate(112 -6)"><tspan x="885.201" y="446.866">-</tspan><tspan x="889.288" y="446.866" letter-spacing=".002">Na</tspan><tspan x="904.98" y="446.866">me</tspan></text><text sketch:type="MSTextLayer" font-family="Helvetica" font-size="12.273" fill="#ACB0AB" transform="translate(112 -6)"><tspan x="887.374" y="462.831">-B</tspan><tspan x="899.647" y="462.831" letter-spacing=".002">lu</tspan><tspan x="909.203" y="462.831">rb</tspan></text><text sketch:type="MSTextLayer" font-family="Helvetica" font-size="12.273" fill="#ACB0AB" transform="translate(112 -6)"><tspan x="878.667" y="478.797">-A</tspan><tspan x="890.94" y="478.797" letter-spacing=".002">dd</tspan><tspan x="904.594" y="478.797">r</tspan><tspan x="908.681" y="478.797" letter-spacing=".002">e</tspan><tspan x="915.509" y="478.797">ss</tspan></text><text sketch:type="MSTextLayer" font-family="Helvetica" font-size="12.273" fill="#ACB0AB" transform="translate(112 -6)"><tspan x="883.862" y="494.762">-</tspan><tspan x="887.949" y="494.762" letter-spacing="-.158">A</tspan><tspan x="895.761" y="494.762">v</tspan><tspan x="901.897" y="494.762" letter-spacing=".002">a</tspan><tspan x="908.724" y="494.762" letter-spacing="-.002">t</tspan><tspan x="912.132" y="494.762" letter-spacing=".002">a</tspan><tspan x="918.96" y="494.762">r</tspan></text><text sketch:type="MSTextLayer" font-family="Helvetica" font-size="12.273" fill="#ACB0AB" transform="translate(112 -6)"><tspan x="867.42" y="510.728">-</tspan><tspan x="871.507" y="510.728" letter-spacing=".002">Change</tspan><tspan x="917.916" y="510.728">PW</tspan></text><text sketch:type="MSTextLayer" font-family="Helvetica" font-size="12.273" fill="#ACB0AB" transform="translate(112 -6)"><tspan x="858.703" y="526.693">-</tspan><tspan x="862.79" y="526.693" letter-spacing=".002">Dele</tspan><tspan x="888.038" y="526.693" letter-spacing="-.002">t</tspan><tspan x="891.446" y="526.693" letter-spacing=".002">e</tspan><tspan x="900.517" y="526.693">Acc</tspan><tspan x="920.976" y="526.693" letter-spacing=".002">oun</tspan><tspan x="941.458" y="526.693">t</tspan></text><path d="M831.766 195.151h123.891l-30.973 52.251h-123.891l30.973-52.251z" stroke="#ACB0AB" sketch:type="MSShapeGroup"/><path d="M831.766 195.151h123.891l-30.973 52.251h-123.891l30.973-52.251z" stroke="#ACB0AB" stroke-linecap="round" stroke-linejoin="round" sketch:type="MSShapeGroup"/><text sketch:type="MSTextLayer" font-family="Helvetica" font-size="13.281" fill="#ACB0AB" transform="translate(112 -6)"><tspan x="728.737" y="222.86">S</tspan><tspan x="737.596" y="222.86" letter-spacing=".002">ub</tspan><tspan x="752.372" y="222.86">m</tspan><tspan x="763.436" y="222.86" letter-spacing=".002">i</tspan><tspan x="766.389" y="222.86">ss</tspan><tspan x="779.67" y="222.86" letter-spacing=".002">ion</tspan></text><text sketch:type="MSTextLayer" font-family="Helvetica" font-size="13.281" letter-spacing=".002" fill="#ACB0AB" transform="translate(112 -6)"><tspan x="735.99" y="240.276">Re</tspan><tspan x="752.971" y="240.276">c</tspan><tspan x="759.612" y="240.276">ie</tspan><tspan x="769.953" y="240.276">v</tspan><tspan x="776.594" y="240.276">e</tspan><tspan x="783.982" y="240.276">d</tspan></text><path d="M745.25 221.276h70.304" stroke="#ACB0AB" stroke-linecap="square" sketch:type="MSShapeGroup"/><path d="M513.752 585.166h111.399l-27.85 52.251h-111.399l27.85-52.251z" stroke="#ACB0AB" sketch:type="MSShapeGroup"/><path d="M513.752 585.166h111.399l-27.85 52.251h-111.399l27.85-52.251z" stroke="#ACB0AB" stroke-linecap="round" stroke-linejoin="round" sketch:type="MSShapeGroup"/><text sketch:type="MSTextLayer" font-family="Helvetica" font-size="12.133" letter-spacing="0" fill="#ACB0AB" transform="translate(112 -6)"><tspan x="426.429" y="608.777">Round</tspan></text><text sketch:type="MSTextLayer" font-family="Helvetica" font-size="12.133" letter-spacing=".002" fill="#ACB0AB" transform="translate(112 -6)"><tspan x="415.474" y="630.291">Re</tspan><tspan x="430.987" y="630.291">m</tspan><tspan x="441.094" y="630.291">inde</tspan><tspan x="464.04" y="630.291">rs</tspan></text><path d="M633.126 585.166h111.399l-27.85 52.251h-111.399l27.85-52.251z" stroke="#ACB0AB" sketch:type="MSShapeGroup"/><path d="M633.126 585.166h111.399l-27.85 52.251h-111.399l27.85-52.251z" stroke="#ACB0AB" stroke-linecap="round" stroke-linejoin="round" sketch:type="MSShapeGroup"/><text sketch:type="MSTextLayer" font-family="Helvetica" font-size="12.133" fill="#ACB0AB" transform="translate(112 -6)"><tspan x="536.769" y="609.777">A</tspan><tspan x="544.861" y="609.777" letter-spacing=".002">nnoun</tspan><tspan x="578.609" y="609.777">c</tspan><tspan x="584.676" y="609.777" letter-spacing=".002">e</tspan></text><text sketch:type="MSTextLayer" font-family="Helvetica" font-size="12.133" letter-spacing="0" fill="#ACB0AB" transform="translate(112 -6)"><tspan x="544.2" y="631.291">WInner</tspan></text><text sketch:type="MSTextLayer" font-family="Helvetica" font-size="16.241" fill="#ACB0AB" transform="translate(112 -6)"><tspan x="743.231" y="365.961">B</tspan><tspan x="754.063" y="365.961" letter-spacing=".002">a</tspan><tspan x="763.098" y="365.961">s</tspan><tspan x="771.218" y="365.961" letter-spacing=".002">i</tspan><tspan x="774.829" y="365.961">c</tspan><tspan x="787.459" y="365.961" letter-spacing=".002">U</tspan><tspan x="799.19" y="365.961">s</tspan><tspan x="807.31" y="365.961" letter-spacing=".002">e</tspan><tspan x="816.345" y="365.961">r</tspan><tspan x="824.718" y="365.961">Ac</tspan><tspan x="843.671" y="365.961" letter-spacing="-.002">t</tspan><tspan x="848.181" y="365.961" letter-spacing=".002">ion</tspan><tspan x="869.86" y="365.961">s</tspan></text><text sketch:type="MSTextLayer" font-family="Helvetica" font-size="16.241" fill="#ACB0AB" transform="translate(112 -6)"><tspan x="112.783" y="357.252">Pr</tspan><tspan x="129.024" y="357.252" letter-spacing=".002">oje</tspan><tspan x="150.703" y="357.252">c</tspan><tspan x="158.824" y="357.252" letter-spacing="-.002">t</tspan><tspan x="163.333" y="357.252">s</tspan><tspan x="174.419" y="357.252">Ac</tspan><tspan x="193.372" y="357.252" letter-spacing="-.002">t</tspan><tspan x="197.881" y="357.252" letter-spacing=".002">ion</tspan><tspan x="219.561" y="357.252">s</tspan></text><path d="M170.766 367.229h231.873v205.102h-231.873v-205.102z" stroke="#ACB0AB" sketch:type="MSShapeGroup"/><path d="M170.766 367.229h231.873v205.102h-231.873v-205.102z" stroke="#ACB0AB" stroke-linecap="round" stroke-linejoin="round" sketch:type="MSShapeGroup"/><text sketch:type="MSTextLayer" font-family="Helvetica" font-size="16.241" font-weight="bold" letter-spacing=".002" fill="#ACB0AB" transform="translate(112 -6)"><tspan x="121.031" y="409.049">Ca</tspan><tspan x="141.797" y="409.049" letter-spacing="-.002">p</tspan><tspan x="151.715" y="409.049">t</tspan><tspan x="157.123" y="409.049">a</tspan><tspan x="166.158" y="409.049" letter-spacing="-.002">in</tspan><tspan x="185.095" y="409.049">Ca</tspan><tspan x="205.861" y="409.049" letter-spacing="-.002">n</tspan><tspan x="215.779" y="409.049">:</tspan></text><text sketch:type="MSTextLayer" font-family="Helvetica" font-size="16.241" fill="#ACB0AB" transform="translate(112 -6)"><tspan x="93.12" y="449.689">-</tspan><tspan x="98.529" y="449.689" letter-spacing="-.002">I</tspan><tspan x="103.038" y="449.689" letter-spacing=".002">n</tspan><tspan x="112.073" y="449.689">v</tspan><tspan x="120.193" y="449.689" letter-spacing=".002">i</tspan><tspan x="123.804" y="449.689" letter-spacing="-.002">t</tspan><tspan x="128.314" y="449.689" letter-spacing=".002">e</tspan><tspan x="141.363" y="449.689" letter-spacing="-1.332">T</tspan><tspan x="148.151" y="449.689" letter-spacing=".002">ea</tspan><tspan x="166.22" y="449.689">m</tspan><tspan x="184.259" y="449.689">M</tspan><tspan x="197.787" y="449.689" letter-spacing=".002">e</tspan><tspan x="206.822" y="449.689">m</tspan><tspan x="220.35" y="449.689" letter-spacing=".002">be</tspan><tspan x="238.42" y="449.689">r</tspan></text><text sketch:type="MSTextLayer" font-family="Helvetica" font-size="16.241" fill="#ACB0AB" transform="translate(112 -6)"><tspan x="88.765" y="470.008">-</tspan><tspan x="94.173" y="470.008" letter-spacing=".002">Dele</tspan><tspan x="127.584" y="470.008" letter-spacing="-.002">t</tspan><tspan x="132.093" y="470.008" letter-spacing=".002">e</tspan><tspan x="145.142" y="470.008" letter-spacing="-1.332">T</tspan><tspan x="151.931" y="470.008" letter-spacing=".002">ea</tspan><tspan x="170" y="470.008">m</tspan><tspan x="188.038" y="470.008">M</tspan><tspan x="201.567" y="470.008" letter-spacing=".002">e</tspan><tspan x="210.601" y="470.008">m</tspan><tspan x="224.13" y="470.008" letter-spacing=".002">be</tspan><tspan x="242.199" y="470.008">r</tspan></text><text sketch:type="MSTextLayer" font-family="Helvetica" font-size="16.241" fill="#ACB0AB" transform="translate(112 -6)"><tspan x="131.175" y="490.328">-E</tspan><tspan x="147.415" y="490.328" letter-spacing=".002">di</tspan><tspan x="160.061" y="490.328" letter-spacing="-.002">t F</tspan><tspan x="178.998" y="490.328" letter-spacing=".002">ield</tspan><tspan x="204.289" y="490.328">s</tspan></text><text sketch:type="MSTextLayer" font-family="Helvetica" font-size="16.241" fill="#ACB0AB" transform="translate(112 -6)"><tspan x="117.143" y="510.648">-</tspan><tspan x="122.551" y="510.648" letter-spacing=".002">Dele</tspan><tspan x="155.962" y="510.648" letter-spacing="-.002">t</tspan><tspan x="160.472" y="510.648" letter-spacing=".002">e</tspan><tspan x="174.016" y="510.648">Pr</tspan><tspan x="190.257" y="510.648" letter-spacing=".002">oje</tspan><tspan x="211.936" y="510.648">ct</tspan></text><text sketch:type="MSTextLayer" font-family="Helvetica" font-size="16.241" fill="#ACB0AB" transform="translate(112 -6)"><tspan x="114.725" y="530.967">-S</tspan><tspan x="130.966" y="530.967" letter-spacing=".002">a</tspan><tspan x="140" y="530.967">v</tspan><tspan x="148.121" y="530.967" letter-spacing=".002">e</tspan><tspan x="161.665" y="530.967">Pr</tspan><tspan x="177.906" y="530.967" letter-spacing=".002">og</tspan><tspan x="195.975" y="530.967">r</tspan><tspan x="201.383" y="530.967" letter-spacing=".002">e</tspan><tspan x="210.418" y="530.967">ss</tspan></text><text sketch:type="MSTextLayer" font-family="Helvetica" font-size="16.241" fill="#ACB0AB" transform="translate(112 -6)"><tspan x="115.214" y="551.287">-S</tspan><tspan x="131.454" y="551.287" letter-spacing=".002">ub</tspan><tspan x="149.524" y="551.287">m</tspan><tspan x="163.052" y="551.287" letter-spacing=".002">i</tspan><tspan x="166.663" y="551.287" letter-spacing="-.002">t</tspan><tspan x="175.682" y="551.287">Pr</tspan><tspan x="191.923" y="551.287" letter-spacing=".002">oje</tspan><tspan x="213.603" y="551.287">ct</tspan></text><path d="M511.926 469.779h-108.562" stroke="#ACB0AB" stroke-linecap="square" sketch:type="MSShapeGroup"/><path d="M151.457 585.166h156.737l-39.184 81.279h-156.737l39.184-81.279z" stroke="#ACB0AB" sketch:type="MSShapeGroup"/><path d="M151.457 585.166h156.737l-39.184 81.279h-156.737l39.184-81.279z" stroke="#ACB0AB" stroke-linecap="round" stroke-linejoin="round" sketch:type="MSShapeGroup"/><text sketch:type="MSTextLayer" font-family="Helvetica" font-size="12.133" letter-spacing="0" fill="#ACB0AB" transform="translate(112 -6)"><tspan x="56.084" y="620.777">Change in</tspan><tspan x="114.416" y="620.777" letter-spacing="-.888">T</tspan><tspan x="119.595" y="620.777">eam</tspan></text><text sketch:type="MSTextLayer" font-family="Helvetica" font-size="12.133" fill="#ACB0AB" transform="translate(112 -6)"><tspan x="54.701" y="649.805">-M</tspan><tspan x="68.849" y="649.805" letter-spacing=".002">e</tspan><tspan x="75.598" y="649.805">m</tspan><tspan x="85.706" y="649.805" letter-spacing=".002">be</tspan><tspan x="99.205" y="649.805">r</tspan><tspan x="106.615" y="649.805" letter-spacing=".002">Lea</tspan><tspan x="126.863" y="649.805">v</tspan><tspan x="132.93" y="649.805" letter-spacing=".002">e</tspan><tspan x="139.68" y="649.805">s</tspan></text><path d="M218.339 572.935l-8.106 12.231" stroke="#ACB0AB" stroke-linecap="square" sketch:type="MSShapeGroup"/><path d="M318.987 585.166h111.399l-27.85 52.251h-111.399l27.85-52.251z" stroke="#ACB0AB" sketch:type="MSShapeGroup"/><path d="M318.987 585.166h111.399l-27.85 52.251h-111.399l27.85-52.251z" stroke="#ACB0AB" stroke-linecap="round" stroke-linejoin="round" sketch:type="MSShapeGroup"/><text id="Incomplete-" sketch:type="MSTextLayer" font-family="Helvetica" font-size="12.133" letter-spacing="-.002" fill="#ACB0AB" transform="translate(112 -6)"><tspan x="220.38" y="609.777">I</tspan><tspan x="223.749" y="609.777" letter-spacing=".002">n</tspan><tspan x="230.499" y="609.777">c</tspan><tspan x="236.566" y="609.777" letter-spacing=".002">o</tspan><tspan x="243.315" y="609.777">m</tspan><tspan x="253.422" y="609.777" letter-spacing=".002">ple</tspan><tspan x="269.619" y="609.777">t</tspan><tspan x="272.988" y="609.777" letter-spacing=".002">e</tspan></text><text sketch:type="MSTextLayer" font-family="Helvetica" font-size="12.133" fill="#ACB0AB" transform="translate(112 -6)"><tspan x="218.771" y="631.291">S</tspan><tspan x="226.864" y="631.291" letter-spacing=".002">ub</tspan><tspan x="240.363" y="631.291">m</tspan><tspan x="250.47" y="631.291" letter-spacing=".002">i</tspan><tspan x="253.167" y="631.291">ss</tspan><tspan x="265.301" y="631.291" letter-spacing=".002">io</tspan><tspan x="274.747" y="631.291">n</tspan></text><path d="M352.915 572.941l7.846 12.225" stroke="#ACB0AB" stroke-linecap="square" sketch:type="MSShapeGroup"/><path d="M891.933 585.166h111.399l-27.85 52.251h-111.399l27.85-52.251z" stroke="#ACB0AB" sketch:type="MSShapeGroup"/><path d="M891.933 585.166h111.399l-27.85 52.251h-111.399l27.85-52.251z" stroke="#ACB0AB" stroke-linecap="round" stroke-linejoin="round" sketch:type="MSShapeGroup"/><text sketch:type="MSTextLayer" font-family="Helvetica" font-size="12.133" letter-spacing=".002" fill="#ACB0AB" transform="translate(112 -6)"><tspan x="790.425" y="613.777">Change</tspan><tspan x="836.306" y="613.777">P</tspan><tspan x="844.399" y="613.777" letter-spacing="-.002">W</tspan></text><text sketch:type="MSTextLayer" font-family="Helvetica" font-size="12.133" letter-spacing=".002" fill="#ACB0AB" transform="translate(112 -6)"><tspan x="788.816" y="635.291">Con</tspan><tspan x="811.079" y="635.291">firm</tspan><tspan x="831.293" y="635.291">a</tspan><tspan x="838.043" y="635.291" letter-spacing="-.002">t</tspan><tspan x="841.412" y="635.291">io</tspan><tspan x="850.859" y="635.291">n</tspan></text><path d="M967.816 537.793l-34.109 47.373" stroke="#ACB0AB" stroke-linecap="square" sketch:type="MSShapeGroup"/><path d="M1011.909 585.166h111.399l-27.85 52.251h-111.399l27.85-52.251z" stroke="#ACB0AB" sketch:type="MSShapeGroup"/><path d="M1011.909 585.166h111.399l-27.85 52.251h-111.399l27.85-52.251z" stroke="#ACB0AB" stroke-linecap="round" stroke-linejoin="round" sketch:type="MSShapeGroup"/><text sketch:type="MSTextLayer" font-family="Helvetica" font-size="12.133" letter-spacing="-.002" fill="#ACB0AB" transform="translate(112 -6)"><tspan x="913.303" y="623.777">I</tspan><tspan x="916.672" y="623.777" letter-spacing=".002">n</tspan><tspan x="923.422" y="623.777">c</tspan><tspan x="929.488" y="623.777" letter-spacing=".002">o</tspan><tspan x="936.238" y="623.777">m</tspan><tspan x="946.345" y="623.777" letter-spacing=".002">ple</tspan><tspan x="962.541" y="623.777">t</tspan><tspan x="965.911" y="623.777" letter-spacing=".002">e</tspan></text><path d="M1038.568 537.895l14.895 46.579" stroke="#ACB0AB" stroke-linecap="square" sketch:type="MSShapeGroup"/></g></g></svg>