<?xml version="1.0" encoding="UTF-8" standalone="no"?>
<svg width="400px" height="400px" viewBox="0 0 400 400" version="1.1" xmlns="http://www.w3.org/2000/svg" xmlns:xlink="http://www.w3.org/1999/xlink">
    <!-- Generator: Sketch 3.6.1 (26313) - http://www.bohemiancoding.com/sketch -->
    <title>intel</title>
    <desc>Created with Sketch.</desc>
    <defs></defs>
    <g id="Page-1" stroke="none" stroke-width="1" fill="none" fill-rule="evenodd">
        <g id="intel" fill="#FFFFFF">
            <rect id="Rectangle-1" fill-opacity="0.01" x="0" y="0" width="400" height="400"></rect>
            <path d="M345.287,158.06 C331.507,90.884 201.525,86.63 117.737,137.808 L117.737,143.46 C201.417,100.268 320.15,100.544 330.954,162.422 C334.594,182.922 323.128,204.24 302.568,216.508 L302.568,232.561 C327.318,223.481 352.618,194.091 345.288,158.061 L345.287,158.06 Z M192.928,275.671 C135.104,281.024 74.854,272.601 66.418,227.239 C62.231,204.902 72.428,181.195 85.878,166.486 L85.878,158.61 C61.624,179.957 48.45,206.96 56.058,238.843 C65.758,279.759 117.463,302.918 196.4,295.207 C227.654,292.19 268.556,282.091 296.942,266.425 L296.942,244.167 C271.145,259.617 228.479,272.379 192.926,275.67 L192.928,275.671 Z M292.31,148.348 L277.153,148.348 L277.153,216.16 C277.153,224.124 280.958,231.05 292.311,232.15 L292.31,148.348 Z M111.73,173.13 L96.57,173.13 L96.57,217.422 C96.57,225.389 100.375,232.314 111.73,233.412 L111.73,173.13 Z" id="Shape"></path>
            <path d="M96.57,150.408 L111.73,150.408 L111.73,164.834 L96.57,164.834 L96.57,150.408 Z M202.57,232.7 C190.28,232.7 185.1,224.125 185.1,215.663 L185.1,156.838 L200.092,156.838 L200.092,173.13 L211.446,173.13 L211.446,185.33 L200.092,185.33 L200.092,214.756 C200.092,218.216 201.746,220.116 205.327,220.116 L211.447,220.116 L211.447,232.7 L202.571,232.7 L202.57,232.7 Z M242.425,184.59 C237.3,184.59 233.332,187.253 231.678,190.853 C230.686,193.023 230.355,194.673 230.191,197.339 L253.401,197.339 C253.069,190.824 250.146,184.589 242.428,184.589 L242.425,184.59 Z M230.194,207.612 C230.194,215.332 235.044,221.018 243.532,221.018 C250.205,221.018 253.512,219.148 257.37,215.333 L266.63,224.263 C260.678,230.14 254.45,233.713 243.425,233.713 C229.039,233.713 215.257,225.827 215.257,202.856 C215.257,183.211 227.273,172.111 243.094,172.111 C259.134,172.111 268.338,185.107 268.338,202.171 L268.338,207.611 L230.19,207.611 L230.194,207.612 Z M152.576,185.33 C156.986,185.33 158.806,187.5 158.806,191.045 L158.806,232.781 L173.854,232.781 L173.854,190.99 C173.854,182.5 169.334,173.13 156.16,173.13 L125.125,173.13 L125.125,232.78 L140.12,232.78 L140.12,185.33 L152.576,185.33 Z" id="Shape"></path>
        </g>
    </g>
</svg>