<?xml version="1.0" encoding="UTF-8" standalone="no"?>
<svg width="400px" height="400px" viewBox="0 0 400 400" version="1.1" xmlns="http://www.w3.org/2000/svg" xmlns:xlink="http://www.w3.org/1999/xlink">
    <!-- Generator: Sketch 3.6.1 (26313) - http://www.bohemiancoding.com/sketch -->
    <title>Group 2</title>
    <desc>Created with Sketch.</desc>
    <defs></defs>
    <g id="Page-1" stroke="none" stroke-width="1" fill="none" fill-rule="evenodd">
        <g id="Group-2" fill="#FFFFFF">
            <g id="Group" transform="translate(76.444444, 42.666667)">
                <path d="M125.123127,204.900673 C80.1431077,204.900673 43.6413544,168.457008 43.6413544,123.469411 C43.6413544,78.4009974 80.1437391,41.9825872 125.123127,41.9825872 C170.14103,41.9825872 206.598587,78.4009974 206.598587,123.469411 C206.598587,168.455745 170.142293,204.900673 125.123127,204.900673 L125.123127,204.900673 Z M125.123127,1.29726277 C57.6935066,1.29726277 3.01285481,55.9905423 3.01285481,123.469411 C3.01285481,190.896507 57.6935066,245.57337 125.123127,245.57337 C192.581792,245.57337 247.34705,190.896507 247.34705,123.469411 C247.34705,55.9905423 192.581792,1.296 125.123127,1.296 L125.123127,1.29726277 Z M125.123127,81.6033929 C102.009938,81.6033929 83.2823645,100.286138 83.2823645,123.469411 C83.2823645,146.576286 102.009307,165.313963 125.123127,165.313963 C148.258415,165.313963 167.026398,146.575655 167.026398,123.469411 C167.026398,100.28677 148.259678,81.6040243 125.12439,81.6040243 L125.123127,81.6033929 Z M14.6802577,277.438848 L1.21277007,277.438848 L1.21277007,269.127267 L38.0308483,269.127267 L38.0308483,277.438848 L24.5633606,277.438848 L24.5633606,314.069404 L14.6796264,314.069404 L14.6796264,277.438848 L14.6802577,277.438848 Z M33.7513063,314.068772 L43.7537413,314.068772 L47.2819326,304.058129 L64.0875641,304.058129 L67.4875839,314.068772 L77.7450993,314.068772 L60.9394678,269.126636 L50.8063357,269.126636 L33.7494121,314.068772 L33.7513063,314.068772 Z M55.7153707,280.201166 L55.8384912,280.201166 L61.500771,296.694261 L49.867463,296.694261 L55.7172648,280.200535 L55.7153707,280.201166 Z M81.6420207,314.068772 L91.5282806,314.068772 L91.5282806,296.508633 L101.403175,296.508633 C106.381032,296.508633 108.203215,298.584003 108.893321,303.302359 C109.404745,306.891163 109.275942,311.235107 110.471789,314.069404 L120.349209,314.069404 C118.588902,311.552695 118.653935,306.259145 118.462625,303.427374 C118.146931,298.888963 116.76735,294.173764 111.917034,292.916041 L111.917034,292.791657 C116.89489,290.778795 119.032767,286.818735 119.032767,281.523922 C119.032767,274.73146 113.931159,269.129793 105.876553,269.129793 L81.6432835,269.129793 L81.6432835,314.068772 L81.6420207,314.068772 Z M91.5295433,276.805566 L102.357833,276.805566 C106.756076,276.805566 109.149664,278.694677 109.149664,283.032938 C109.149664,287.562509 106.756707,289.454145 102.357201,289.454145 L91.5289119,289.454145 L91.5289119,276.805566 L91.5295433,276.805566 Z M158.302522,308.967164 C154.837469,313.442436 150.31358,315.148444 145.968374,315.148444 C132.060178,315.148444 123.876138,304.74571 123.876138,291.778912 C123.876138,278.440859 132.058915,268.060223 145.968374,268.060223 C155.155057,268.060223 163.842944,273.723766 164.916302,283.91246 L155.47075,283.91246 C154.334253,278.935866 150.621697,276.364858 145.968374,276.364858 C137.091071,276.364858 133.751033,283.913091 133.751033,291.778281 C133.751033,299.271583 137.091071,306.821079 145.968374,306.821079 C152.389581,306.821079 156.095824,303.361078 156.664072,297.126761 L146.726038,297.126761 L146.726038,289.771101 L165.604514,289.771101 L165.604514,314.066878 L159.305164,314.066878 L158.303784,308.96527 L158.302522,308.967164 Z M172.33952,269.126005 L205.938156,269.126005 L205.938156,277.437585 L182.221361,277.437585 L182.221361,287.063082 L203.994115,287.063082 L203.994115,294.75022 L182.221992,294.75022 L182.221992,305.757824 L206.449579,305.757824 L206.449579,314.068772 L172.342046,314.068772 L172.342046,269.126636 L172.33952,269.126005 Z M224.322886,277.437585 L210.854136,277.437585 L210.854136,269.126005 L247.677897,269.126005 L247.677897,277.437585 L234.202201,277.437585 L234.202201,314.068141 L224.322886,314.068141 L224.322886,277.437585 L224.322886,277.437585 Z" id="Shape"></path>
            </g>
            <rect id="Rectangle-1" fill-opacity="0.01" opacity="0.01" x="0" y="0" width="400" height="400"></rect>
        </g>
    </g>
</svg>