<?xml version="1.0" encoding="UTF-8" standalone="no"?>
<svg width="400px" height="400px" viewBox="0 0 400 400" version="1.1" xmlns="http://www.w3.org/2000/svg" xmlns:xlink="http://www.w3.org/1999/xlink">
    <!-- Generator: Sketch 3.6.1 (26313) - http://www.bohemiancoding.com/sketch -->
    <title>Group</title>
    <desc>Created with Sketch.</desc>
    <defs></defs>
    <g id="Page-1" stroke="none" stroke-width="1" fill="none" fill-rule="evenodd">
        <g id="Group" fill="#FFFFFF">
            <rect id="Rectangle-1" fill-opacity="0.01" x="0" y="0" width="400" height="400"></rect>
            <path d="M306.664287,188.829774 C306.028532,189.719831 303.994118,189.084076 303.104062,189.465529 C303.358363,188.19402 305.392778,188.956925 306.664287,188.829774 L306.664287,188.829774 Z M228.085028,179.293456 C225.414859,188.19402 221.981784,197.476036 219.184465,206.758052 C223.634746,206.630901 228.720782,205.995146 233.806819,205.486543 C238.2571,205.10509 244.360344,205.232241 247.411965,203.197826 C249.954983,201.417714 250.082134,197.603187 251.989398,194.933018 C253.133756,199.128997 256.693981,204.850788 254.150963,208.919617 C252.2437,211.844088 246.013305,213.878502 241.944476,215.277162 C237.112742,216.930124 233.425366,218.328784 228.466481,220.363199 C223.889048,222.143311 219.820219,223.796273 214.098428,224.432028 C207.23228,225.194933 197.823113,223.796273 197.060207,217.057275 C196.805905,214.641408 197.695962,212.225541 198.713169,210.191126 C201.510489,204.469335 205.83362,200.019054 209.902449,195.823074 C212.699768,192.898603 215.624239,189.974132 218.54871,187.431114 C221.854634,184.760945 225.033406,181.963625 228.085028,179.293456 L228.085028,179.293456 Z M215.369937,198.747545 C212.95407,201.036261 210.411052,203.197826 207.740883,206.50375 C205.579318,209.173919 202.400545,212.479842 202.909149,216.29437 C203.290601,219.09169 207.35943,219.981746 210.283901,220.108897 C215.75139,220.236048 221.34603,217.82018 226.559217,216.040068 C231.899555,214.132804 237.239893,212.352692 241.944476,210.445428 C232.408159,210.445428 222.363237,211.971239 211.682561,212.225541 C212.699768,207.648108 214.479881,202.943525 215.369937,198.747545 L215.369937,198.747545 Z M76.9026023,197.984639 C78.555564,196.967432 79.4456203,195.060169 80.2085258,193.407207 C81.0985821,191.754245 82.1157893,189.846981 82.624393,187.939718 C83.3872984,184.888096 83.0058457,182.090776 82.7515439,179.420607 C81.6071857,164.162499 97.1195961,160.856575 110.088988,158.69501 C117.845194,157.29635 127.000059,157.423501 135.137717,158.313557 C136.282075,158.440708 137.680735,158.949312 138.44364,158.822161 C139.587998,158.69501 141.495262,156.914897 142.512469,156.279143 C144.928336,154.753332 147.852807,153.227521 151.158731,152.591766 C155.35471,151.828861 160.440747,152.464615 165.018179,153.354672 C178.241873,155.770539 192.228473,159.076463 202.654847,163.781046 C202.909149,164.671102 201.129036,166.324064 200.493282,167.468422 C210.538203,162.000933 219.94737,156.406294 231.518102,152.973219 C242.071627,149.794446 254.405265,149.285843 265.085941,152.718917 C266.35745,153.10037 268.137563,153.990426 269.409072,154.117577 C271.316335,154.244728 273.605052,153.481823 275.766617,153.354672 C309.97021,150.430201 341.757937,160.220821 371.002645,165.81546 C364.645099,175.987533 355.871687,183.616587 344.300955,188.575472 C345.445313,189.719831 346.843973,190.228434 347.86118,191.372792 C350.531349,194.551565 350.277047,199.764752 348.496935,203.452128 C346.716822,207.012354 342.902295,209.046768 340.86788,211.208333 C347.098275,210.826881 353.328669,211.971239 354.091574,217.82018 C354.981631,223.796273 351.675707,228.500856 348.751236,231.552478 C339.596371,241.215947 323.575357,244.39472 308.062947,247.573492 C297.25512,249.735058 287.4645,250.752265 274.622259,250.879416 C264.704488,251.006567 249.192078,250.11651 244.868947,243.758965 C243.978891,242.487456 243.597438,240.580192 243.470287,239.054382 C231.390951,244.267569 217.912955,249.607907 201.510489,249.989359 C184.599418,250.370812 169.214159,246.301983 163.365217,234.858402 C160.567898,239.817287 158.15203,244.903323 153.447447,247.700643 C147.979958,250.879416 138.316489,251.260868 131.577491,249.989359 C124.202739,248.590699 118.480948,245.411927 117.845194,237.782873 C117.209439,230.153818 120.261061,222.779066 122.295475,216.548671 C124.457041,209.809673 126.872908,203.579279 129.288775,197.603187 C125.982851,199.51045 123.821286,203.197826 121.405419,206.249448 C114.412119,215.277162 106.020159,224.304877 96.3566907,231.298176 C90.1262963,235.748458 83.1329966,240.325891 75.1224896,243.631814 C68.0020389,246.556285 56.3041557,250.625114 47.5307433,247.192039 C44.4791216,245.92053 41.4274999,242.614607 42.9533107,238.545778 C43.7162161,236.257062 46.513536,234.985553 46.7678379,232.442535 C46.8949888,230.535271 44.9877252,227.992253 43.843367,226.084989 C40.5374435,220.490349 36.8500673,213.878502 34.4342001,208.029561 C31.1282766,199.891903 27.0594476,188.448322 29.9839184,178.784853 C32.7812383,169.884289 40.4102926,164.543951 48.1664978,160.220821 C54.2697412,156.787746 60.1186828,154.371879 67.2391335,151.828861 C71.1808115,150.430201 78.1741113,148.141485 81.0985821,152.083163 C85.294562,157.804953 81.6071857,168.867082 80.2085258,174.843175 C78.3012622,182.59938 76.7754513,189.974132 76.9026023,197.984639 L76.9026023,197.984639 Z M166.289688,158.313557 C161.457954,157.29635 155.990465,156.406294 151.285881,157.550652 C149.124316,158.059255 146.962751,159.203613 145.309789,160.347972 C144.03828,161.238028 141.749564,163.653895 140.096602,163.908197 C138.189338,164.162499 135.392018,163.399593 132.976151,163.145291 C120.13391,162.000933 108.308876,162.89099 98.1368033,166.451215 C94.576578,167.722724 90.1262963,169.502837 88.4733346,172.80876 C86.566071,176.750438 88.9819382,182.217927 88.3461837,187.303963 C88.0918819,189.465529 86.9475237,191.881396 85.9303165,193.91581 C83.7687511,198.238941 81.6071857,200.90911 78.8098658,204.723637 C77.7926586,206.122297 75.6310932,209.046768 73.5966787,208.665315 C72.1980188,208.411014 71.5622643,205.995146 71.4351134,203.324977 C70.7993588,191.499943 73.7238296,181.582173 75.7582441,171.537251 C76.6483004,167.341271 77.7926586,162.382386 77.4112059,158.440708 C77.1569041,155.516237 75.885395,154.371879 73.4695278,154.49903 C69.5278498,154.626181 64.5689645,157.423501 60.6272865,159.076463 C56.4313066,160.856575 52.8710813,162.636688 49.4380069,164.925404 C42.571858,169.248535 36.0871619,174.970326 34.9428037,184.506643 C33.6712947,194.678716 37.7401236,203.579279 41.300349,210.69973 C43.0804616,214.259955 44.7334234,217.82018 47.5307433,221.380406 C49.6923087,224.177726 54.0154394,228.500856 53.5068358,232.569685 C53.1253831,235.494156 47.1492906,238.545778 48.1664978,241.5974 C48.6751014,243.123211 52.2353268,243.504663 55.2869485,243.631814 C64.4418136,243.758965 71.4351134,240.19874 76.9026023,237.40142 C85.5488638,233.078289 92.2878617,228.119404 99.0268597,222.397613 C105.893009,216.675822 112.123403,210.572579 117.590892,203.960732 C123.185532,197.221734 127.890115,189.719831 133.611906,182.726531 C137.680735,193.91581 133.484755,202.943525 130.05168,210.954032 C128.271568,215.150011 126.745757,219.09169 125.347097,223.796273 C124.075588,227.992253 122.168324,234.222647 123.312682,238.927231 C124.965644,244.903323 133.866208,246.047681 140.986658,245.539078 C146.326996,245.157625 150.268674,243.631814 153.065994,240.961645 C158.787785,235.367005 161.839407,227.356498 165.399632,219.854595 C164.636726,230.153818 168.832706,236.257062 175.571704,239.944438 C182.310702,243.631814 191.084115,245.284776 200.874734,245.284776 C220.583124,245.284776 235.586931,237.782873 247.666267,231.043875 C247.030513,234.349798 246.776211,238.037174 248.174871,240.453042 C250.84504,245.411927 257.83834,245.793379 265.467394,246.429134 C270.807732,246.810587 274.876561,246.937738 278.563937,246.937738 C288.227406,246.683436 297.127969,245.539078 306.282834,243.758965 C318.616472,241.343098 331.840166,237.655722 341.122182,231.552478 C344.300955,229.518064 347.734029,226.847895 348.496935,223.160518 C350.6585,212.861295 338.324862,215.912917 331.713015,217.311577 C326.626979,218.455935 321.540943,219.981746 317.217812,220.998953 C307.554343,223.160518 294.966404,226.084989 286.447293,222.270462 C285.175784,221.634708 283.26852,220.744651 283.26852,218.710237 C283.26852,217.438728 284.66718,215.912917 285.557237,215.150011 C288.736009,212.734144 293.949196,212.09839 299.416685,211.589786 C313.021832,210.572579 333.238826,212.734144 341.376484,204.215034 C343.410898,202.180619 345.318162,196.967432 343.029446,193.280056 C341.122182,190.228434 336.417599,189.59268 332.094468,189.719831 C320.269434,190.228434 310.224512,195.187319 299.925289,194.933018 C298.018025,194.933018 294.4578,194.933018 293.822046,193.534358 C293.05914,191.881396 294.839253,189.338378 295.85646,188.19402 C297.000818,186.668209 298.526629,185.015247 299.925289,184.506643 C302.214005,183.616587 305.901382,184.125191 309.207305,184.506643 C319.125076,185.523851 329.169997,186.413907 337.434806,185.015247 C347.86118,183.107984 354.981631,177.513344 360.830572,171.282949 C361.593478,170.392893 362.737836,169.629988 362.992138,168.358479 C338.197711,163.908197 309.97021,156.660595 282.759917,157.042048 C277.928182,157.169199 273.605052,157.804953 270.044826,159.585066 C267.120356,161.110877 262.924376,164.671102 263.432979,168.739931 C263.814432,171.155798 266.993205,172.935911 269.281921,173.825967 C272.206392,174.843175 275.258013,175.224627 277.673881,176.368986 C271.316335,177.513344 263.56013,179.420607 257.075434,180.437815 C258.346943,177.259042 259.999905,174.080269 261.525716,170.265742 C262.542923,167.595573 264.95879,161.873782 264.068734,158.567859 C263.305828,155.261935 257.075434,154.626181 252.752303,154.626181 C248.683474,154.626181 243.470287,155.261935 239.782911,156.024841 C215.242786,161.238028 196.551604,174.716024 180.53059,187.939718 C183.582211,180.819267 188.032493,174.080269 191.974171,168.104177 C192.609925,167.21412 193.499982,166.196913 193.372831,165.561159 C184.599418,162.255235 175.571704,160.09367 166.289688,158.313557 L166.289688,158.313557 Z M292.169084,217.69303 C296.492215,218.074482 302.341156,218.328784 307.172891,217.69303 C310.733116,217.311577 314.420492,216.802973 316.96351,215.277162 C308.953003,215.785766 298.65378,215.277162 292.169084,217.69303 L292.169084,217.69303 Z" id="Shape"></path>
        </g>
    </g>
</svg>