<?xml version="1.0" encoding="UTF-8" standalone="no"?>
<svg width="400px" height="400px" viewBox="0 0 400 400" version="1.1" xmlns="http://www.w3.org/2000/svg" xmlns:xlink="http://www.w3.org/1999/xlink">
    <!-- Generator: Sketch 3.6.1 (26313) - http://www.bohemiancoding.com/sketch -->
    <title>Group 2</title>
    <desc>Created with Sketch.</desc>
    <defs></defs>
    <g id="Page-1" stroke="none" stroke-width="1" fill="none" fill-rule="evenodd">
        <g id="Group-2" fill="#FFFFFF">
            <rect id="Rectangle-1" fill-opacity="0.01" x="0" y="0" width="400" height="400"></rect>
            <g id="Group" transform="translate(48.000000, 33.777778)">
                <path d="M298.133333,92.0888889 L297.066667,108.266667 C296.355556,116.977778 292.977778,132.444444 287.288889,154.488889 C280.355556,152.355556 274.488889,149.155556 268.8,144.711111 C272.711111,130.488889 275.022222,113.777778 275.733333,94.5777778 C273.244444,92.8 269.333333,91.2 264.711111,89.9555556 L252.622222,86.0444444 L249.244444,72.7111111 C248,67.5555556 245.333333,64.5333333 240.533333,64.1777778 L217.066667,59.0222222 L214.044444,46.4 C212.8,41.2444444 211.022222,37.8666667 208.177778,36.6222222 L155.733333,22.0444444 L126.577778,28.2666667 L98.3111111,35.0222222 C96.1777778,37.5111111 94.4,41.2444444 93.6888889,45.3333333 L91.2,55.2888889 L61.6888889,63.2888889 C60.4444444,64.5333333 59.2,68.4444444 57.2444444,74.8444444 C56,79.6444444 53.3333333,83.0222222 50.3111111,84.8 L39.8222222,86.9333333 C35.3777778,88.1777778 32.3555556,89.9555556 30.2222222,92.0888889 C31.4666667,114.666667 34.1333333,131.2 37.8666667,140.977778 L18.1333333,150.577778 L14.0444444,136.355556 L9.06666667,97.9555556 C8.17777778,89.0666667 8.17777778,81.7777778 9.6,75.3777778 C12.6222222,72.3555556 16.8888889,70.2222222 22.9333333,68.9777778 L38.4,65.6 C40,63.8222222 41.7777778,59.9111111 43.0222222,53.5111111 C44.2666667,47.8222222 46.4,44.9777778 49.9555556,43.9111111 L74.3111111,38.0444444 C75.9111111,35.9111111 77.6888889,32.1777778 78.9333333,25.9555556 C80.7111111,21.3333333 82.3111111,17.9555556 84.6222222,15.6444444 L151.822222,0 L226.133333,20.0888889 L230.044444,32.8888889 C231.288889,38.5777778 233.955556,41.4222222 237.688889,42.4888889 L262.044444,48.8888889 L265.955556,59.9111111 C267.2,64.5333333 268.8,68.0888889 271.822222,69.6888889 L297.066667,76.0888889 C298.311111,80.5333333 298.311111,85.6888889 298.133333,92.0888889 L298.133333,92.0888889 Z M123.2,118.577778 L124.8,50.1333333 L145.422222,40.1777778 L145.422222,79.2888889 L145.066667,117.866667 L123.2,118.577778 L123.2,118.577778 Z M245.333333,134.577778 L232.533333,131.555556 L219.911111,127.466667 L227.377778,120 C230.222222,117.155556 232,114.666667 232,111.466667 C231.466667,105.777778 227.555556,100.444444 221.155556,95.2888889 L204.444444,83.5555556 C199.111111,79.6444444 192.177778,76.0888889 184.355556,73.2444444 L183.111111,75.3777778 L182.4,119.644444 L161.244444,117.866667 L163.022222,44.0888889 L164.266667,41.6 C188.622222,50.6666667 205.511111,58.1333333 214.4,63.4666667 C232.355556,74.3111111 245.333333,87.1111111 252.444444,103.111111 C256.533333,114.488889 254.4,124.8 245.333333,134.577778 L245.333333,134.577778 Z M104.177778,62.5777778 L105.422222,91.3777778 C105.422222,103.644444 105.955556,113.422222 107.2,120 L86.0444444,125.155556 C85.3333333,118.755556 84.8,102.044444 84.8,75.5555556 C92.2666667,68.9777778 98.8444444,64.5333333 104.177778,62.5777778 L104.177778,62.5777778 Z M70.7555556,128.533333 C66.8444444,130.666667 60.2666667,133.155556 49.9555556,135.288889 C48.7111111,124.977778 47.6444444,114.666667 47.6444444,104.177778 L65.6,89.6 L68.0888889,109.333333 L70.7555556,128.533333 L70.7555556,128.533333 Z M144,155.022222 L141.511111,284.977778 C137.6,282.844444 133.866667,279.822222 129.955556,275.2 L120.177778,261.866667 C115.555556,254.222222 111.111111,245.155556 107.377778,234.311111 L98.3111111,205.155556 C94.4,207.644444 89.7777778,212.444444 84.9777778,219.377778 C82.8444444,218.844444 81.0666667,217.6 79.1111111,214.755556 L61.8666667,185.422222 L60.2666667,186.488889 L58.4888889,187.733333 C59.7333333,189.333333 59.7333333,190.577778 58.4888889,191.822222 L55.1111111,195.733333 C75.2,241.777778 106.488889,279.111111 148.444444,307.377778 L171.022222,293.155556 L192.177778,275.377778 C217.955556,249.422222 236.622222,223.111111 248.711111,196.977778 L245.333333,192.355556 C244.266667,190.577778 244.266667,188.977778 245.333333,187.2 L253.866667,188.977778 L262.933333,188.977778 L256.533333,186.488889 C254.044444,185.422222 253.511111,183.466667 255.822222,180.266667 C260.444444,181.511111 265.6,184.177778 272,187.2 L286.933333,196.8 L292.088889,189.155556 C293.866667,184.711111 295.644444,181.688889 297.244444,180.444444 C300.266667,182.755556 302.933333,184.888889 304.177778,187.911111 L301.155556,187.377778 L288.888889,205.866667 C280.711111,201.066667 274.311111,198.222222 269.511111,197.155556 L291.377778,216.533333 L285.511111,217.066667 L278.044444,216.355556 C270.044444,217.066667 264.355556,218.488889 262.4,219.733333 C231.822222,270.577778 194.488889,308.444444 150.577778,332.977778 C127.644444,320.711111 106.844444,303.822222 87.6444444,282.844444 C69.1555556,262.755556 54.2222222,240.888889 41.6,216.711111 C38.2222222,214.577778 33.6,213.333333 27.9111111,213.333333 L13.3333333,214.577778 L11.2,211.555556 L8.17777778,206.933333 L9.24444444,206.933333 C8.71111111,204.8 8,201.777778 6.22222222,198.4 L1.77777778,189.333333 L14.4,208.888889 L13.1555556,211.2 L11.3777778,211.377778 L13.5111111,213.155556 C21.6888889,206.755556 30.2222222,200.888889 38.4,195.2 L25.6,197.688889 L13.5111111,202.133333 L7.64444444,191.822222 L4.73695157e-15,182.577778 L5.15555556,176.355556 L16,193.066667 L19.0222222,193.066667 C25.4222222,188.444444 34.4888889,183.822222 46.7555556,178.666667 L48,183.288889 L44.0888889,185.066667 L41.0666667,187.2 L59.0222222,185.066667 L59.0222222,181.333333 L60.2666667,182.044444 L58.1333333,174.755556 L57.4222222,174.933333 L56.1777778,174.755556 L56.1777778,173.688889 L77.5111111,165.155556 L80.5333333,174.933333 C81.7777778,178.844444 83.3777778,181.333333 85.6888889,183.111111 C89.6,180.977778 91.0222222,177.422222 91.5555556,173.511111 L89.7777778,161.955556 L110.933333,158.044444 C113.955556,178.666667 116.8,192.711111 120,200.177778 L121.777778,197.866667 C123.022222,180.444444 123.022222,166.222222 121.777778,156.444444 L144,155.022222 L144,155.022222 Z M188.266667,158.4 L195.911111,159.644444 L181.333333,169.6 L181.155556,203.022222 L181.333333,237.155556 C188.8,230.755556 198.577778,218.311111 211.911111,199.111111 L219.555556,183.644444 C221.688889,177.244444 221.688889,171.555556 220.266667,165.866667 C228.8,167.644444 236.444444,170.311111 243.911111,173.511111 C242.133333,184.355556 237.511111,196.444444 230.044444,208.711111 L208,240.177778 C197.155556,254.577778 180.977778,270.044444 159.822222,286.755556 C159.288889,270.044444 159.288889,248.177778 159.822222,221.688889 L160.355556,155.555556 L171.377778,155.555556 L182.933333,154.844444 L188.266667,158.4 L188.266667,158.4 Z M9.6,159.822222 L10.1333333,166.222222 L15.2888889,177.777778 C17.4222222,182.222222 20.6222222,184.711111 24.5333333,185.244444 C23.8222222,186.844444 21.6888889,188.622222 17.7777778,189.866667 L10.3111111,177.777778 L4.44444444,164.622222 L6.22222222,161.6 L9.6,159.822222 L9.6,159.822222 Z M295.822222,163.555556 L298.844444,165.333333 L298.844444,169.244444 L285.155556,192.888889 C282.133333,191.822222 280,190.577778 278.755556,188.977778 L280.355556,187.733333 L282.844444,187.2 L293.688889,167.466667 C292.977778,165.333333 292.977778,163.555556 293.155556,162.311111 L295.822222,163.555556 L295.822222,163.555556 Z M289.422222,212.266667 L288.711111,211.2 L296,201.422222 L302.222222,190.577778 C298.133333,200.711111 293.688889,207.288889 289.422222,212.266667 L289.422222,212.266667 Z M51.2,147.377778 L53.6888889,154.311111 L58.3111111,152.533333 C60.0888889,151.288889 60.4444444,149.511111 59.5555556,147.377778 C58.8444444,145.244444 57.4222222,144.355556 55.1111111,145.6 L51.2,147.377778 L51.2,147.377778 Z M55.2888889,157.688889 L59.7333333,167.288889 L55.2888889,168.888889 L44.9777778,145.422222 L54.9333333,140.977778 C58.8444444,139.2 61.3333333,140.444444 63.4666667,144.888889 C64.7111111,148.266667 64.7111111,150.755556 62.9333333,152.177778 L62.9333333,152.711111 L68.0888889,156.622222 L71.6444444,161.777778 L67.7333333,163.555556 L64.1777778,158.4 C62.9333333,156.088889 61.3333333,155.377778 59.5555556,156.088889 L55.2888889,157.688889 L55.2888889,157.688889 Z M77.6888889,132.8 L92.6222222,129.422222 L93.6888889,133.688889 L83.3777778,136.355556 L84.6222222,141.511111 L94.4,139.2 L95.1111111,143.466667 L85.8666667,146.133333 L87.2888889,152.533333 L98.3111111,149.511111 L99.0222222,153.777778 L84.0888889,157.688889 L77.6888889,132.8 L77.6888889,132.8 Z M128.355556,133.333333 L123.555556,133.333333 C122.844444,130.311111 121.066667,128.888889 118.933333,129.422222 C115.022222,129.955556 113.777778,133.333333 114.311111,139.022222 C115.022222,144.355556 117.155556,147.022222 121.066667,146.666667 C123.555556,146.133333 124.977778,144.355556 124.977778,140.444444 L129.422222,140.266667 C129.955556,147.555556 127.288889,150.755556 121.777778,151.288889 C114.844444,152 110.933333,148.266667 110.222222,139.2 C109.511111,130.133333 112.355556,125.511111 118.755556,124.8 C123.555556,124.266667 127.111111,126.755556 128.355556,133.333333 L128.355556,133.333333 Z M152.711111,145.422222 C156.622222,145.422222 158.044444,142.4 158.044444,136.711111 C158.044444,130.844444 156.444444,127.644444 152.711111,127.644444 C148.8,127.644444 147.022222,130.666667 147.022222,136.711111 C147.2,142.222222 148.977778,145.422222 152.711111,145.422222 L152.711111,145.422222 Z M152.711111,123.022222 C159.466667,123.022222 163.022222,127.644444 163.022222,136.711111 C163.022222,145.777778 159.466667,150.044444 152.711111,150.044444 C146.311111,150.044444 142.755556,145.6 142.755556,136.711111 C142.755556,127.644444 146.311111,123.022222 152.711111,123.022222 L152.711111,123.022222 Z M182.4,136.533333 L187.022222,137.066667 C189.155556,137.6 190.4,136.533333 190.933333,134.044444 C191.466667,131.911111 190.4,130.133333 188.444444,129.955556 L183.288889,129.422222 L182.4,136.533333 L182.4,136.533333 Z M179.377778,124.8 L190.4,126.044444 C194.311111,126.222222 196.088889,128.888889 195.555556,133.688889 C195.377778,136.533333 193.422222,138.844444 191.466667,139.555556 C193.066667,140.266667 193.955556,142.577778 193.6,145.955556 L193.6,152.355556 L188.977778,151.644444 L189.155556,145.244444 C189.155556,142.755556 188.444444,141.333333 186.311111,140.8 L181.866667,140.266667 L180.088889,150.222222 L176,150.044444 L179.377778,124.8 L179.377778,124.8 Z M214.755556,157.155556 L205.688889,154.666667 L213.333333,130.666667 L221.511111,133.155556 C227.377778,134.933333 229.155556,139.555556 227.2,147.377778 C225.066667,155.555556 220.977778,158.933333 214.755556,157.155556 L214.755556,157.155556 Z M222.577778,146.844444 C224.355556,141.688889 223.644444,138.311111 219.733333,137.066667 L216.177778,136.355556 L211.555556,151.822222 L216,153.066667 C219.2,154.311111 221.155556,152 222.577778,146.844444 L222.577778,146.844444 Z M251.377778,155.022222 C254.4,157.511111 255.288889,160.711111 253.866667,164.622222 C251.377778,169.777778 247.466667,171.022222 242.844444,168.711111 C237.155556,166.222222 235.377778,161.955556 238.044444,156.444444 L242.488889,158.577778 C241.244444,161.066667 241.777778,163.377778 244.266667,164.8 C246.755556,166.044444 248.355556,165.511111 249.422222,163.555556 C249.6,162.311111 248.355556,160 245.511111,157.333333 C242.488889,154.488889 241.955556,150.933333 243.2,147.555556 C245.511111,142.933333 248.355556,141.866667 253.155556,144.177778 C258.311111,146.311111 259.555556,150.044444 257.244444,154.666667 L253.155556,153.066667 C254.4,150.755556 253.333333,148.622222 251.377778,147.377778 C249.244444,146.844444 248,147.377778 246.933333,149.155556 C246.755556,150.4 248.177778,152 251.377778,155.022222 L251.377778,155.022222 Z" id="Shape"></path>
            </g>
        </g>
    </g>
</svg>