<?xml version="1.0" encoding="utf-8"?>
<!-- Generator: Adobe Illustrator 18.1.1, SVG Export Plug-In . SVG Version: 6.00 Build 0)  -->
<svg version="1.1" id="Layer_1" xmlns="http://www.w3.org/2000/svg" xmlns:xlink="http://www.w3.org/1999/xlink" x="0px" y="0px"
	 viewBox="0 0 1224 565.5" enable-background="new 0 0 1224 565.5" xml:space="preserve">
<rect y="0" fill="#E9EAEC" width="1224" height="565.5"/>
<g>
	<path fill="#939598" d="M198.3,437.2c-11.1-9.7-37.8-46.1-41.8-54s-28.1-52.8-32.3-65.4l0,0c4.8,5.4,10.2,11.1,15,16.3
		c8,8.6,11.6,20.3,14.5,27.9c3,7.5,22.8,40.4,31.3,52.4c4.3,6.1,12.1,18.8,21.9,30.6C203.9,442.2,200.9,439.5,198.3,437.2
		 M409.9,460.9c0,0-3.4-19.5-2.2-27.7c1.2-8.2,4.8-28.5,13.5-40.7c8.7-12.2,49.1-49.4,56.7-52c7.6-2.6,26.6-13.4,30-20.3
		c2.4-4.9,12.1-16.8,26-25c0,0-11.4,29.9-23.5,46.2C498.1,357.7,461.7,430.7,409.9,460.9"/>
	<path fill="#FFFFFF" d="M411,459.8c0,0,15.3-0.5,36.3-16.2c21-15.8,36.2-34.5,42.8-47.5c6.6-12.9,13.7-22.7,20.9-31.3
		c7.2-8.6,41.7-49.8,40-75.7c-1.7-26-11.7-8.5-11.7-8.5l-6,11.9l-0.3,3.7c0,0-11.2,29.5-23.1,45.6C497.8,357.9,462,429.9,411,459.8"
		/>
	<path fill="none" stroke="#000000" stroke-width="2" stroke-linecap="round" stroke-linejoin="round" stroke-miterlimit="10" d="
		M411,459.8c0,0,15.3-0.5,36.3-16.2c21-15.8,36.2-34.5,42.8-47.5c6.6-12.9,13.7-22.7,20.9-31.3c7.2-8.6,41.7-49.8,40-75.7
		c-1.7-26-11.7-8.5-11.7-8.5l-6,11.9l-0.3,3.7c0,0-11.2,29.5-23.1,45.6C497.8,357.9,462,429.9,411,459.8z"/>
	<path fill="#FFFFFF" d="M89.2,291.5c0,0,2.5,13.1,9.5,21.1c7,7.9,9.7,10.6,14.3,18.7c4.6,8.1,9.9,17.7,12.5,20.3
		c2.7,2.6,14.2,16.8,20.3,29.2s26,36.6,32.3,41.7c6.2,5.2,18.9,18,21.7,22.2c2.8,4.2,20.4,15.4,26.8,19c0,0-18-17.7-28.9-27.3
		c-10.9-9.5-37.2-45.5-41.1-53.3s-27.6-52.1-31.8-64.5c-4.1-12.5-22.8-27.7-22.8-27.7L89.2,291.5z"/>
	<path fill="none" stroke="#000000" stroke-width="2" stroke-linecap="round" stroke-linejoin="round" stroke-miterlimit="10" d="
		M89.2,291.5c0,0,2.5,13.1,9.5,21.1c7,7.9,9.7,10.6,14.3,18.7c4.6,8.1,9.9,17.7,12.5,20.3c2.7,2.6,14.2,16.8,20.3,29.2
		s26,36.6,32.3,41.7c6.2,5.2,18.9,18,21.7,22.2c2.8,4.2,20.4,15.4,26.8,19c0,0-18-17.7-28.9-27.3c-10.9-9.5-37.2-45.5-41.1-53.3
		s-27.6-52.1-31.8-64.5c-4.1-12.5-22.8-27.7-22.8-27.7L89.2,291.5z"/>
	<path fill="#FFFFFF" d="M88.4,148.2c0,0-2.4,43.2-0.5,60.2c1.8,17,7.1,43.2,7.1,43.2s-6.5,23.9-5.8,38.8c0,0,21.6,9.4,27.4,17
		c5.8,7.7,15.6,17.8,23.5,26.4c7.9,8.6,11.5,20.2,14.5,27.7s22.7,40.1,31.2,52.1c8.5,12,30.3,49,54.2,55.8
		c23.9,6.8,114.7,8,135.4,3.9c20.7-4.2,34.1-13.5,34.1-13.5s-3.4-19.4-2.2-27.5c1.2-8.1,4.8-28.3,13.4-40.4
		c8.6-12.1,48.9-49.1,56.4-51.7c7.5-2.6,26.4-13.3,29.8-20.2c3.4-6.9,20.9-27.3,44.1-32c0,0-3.4-23.9-6.2-29.3c0,0,4.2-37,3.7-54.1
		c-0.4-17.1-4.1-55.7-4.1-55.7s0.7-10.7-2.9-17.1c-3.6-6.4-6-5.9-9.8-4.6c-3.8,1.3-10.1,5.4-20.8,7.9c-10.7,2.5-27.3,5.3-29.9,3.7
		c-2.6-1.6-20.8-1.8-23.2-0.9c-2.4,0.9-17.1,6-21.2,7.4c-4.1,1.3-12.8,2.3-19.8,2.4c-7,0.1-19.9-4.3-30.3-2.2
		c-10.4,2.1-17.7,1.9-23.3,6.1c-5.7,4.2-15.9,4.6-25.8,2.8c-9.9-1.8-21.6-3.1-34.1-1.9c-12.5,1.2-20.3,0.7-26.7-0.7
		c-6.4-1.3-16.8-5.5-27.6-3.7c-10.7,1.8-14.6,1.1-31.1,0.5c-16.5-0.6-42-4.7-49.3-8.7c-7.3-4.1-29.5-6.8-38.2-6.2
		c-8.7,0.6-15.5,2.9-19.9-0.6c-4.4-3.5-12.8-6.6-17.3-6.3c-4.5,0.3-5.2,3.1-5.9,7.7C86.6,139.2,85,140.4,88.4,148.2"/>
	<path fill="none" stroke="#000000" stroke-width="2" stroke-linecap="round" stroke-linejoin="round" stroke-miterlimit="10" d="
		M88.4,148.2c0,0-2.4,43.2-0.5,60.2c1.8,17,7.1,43.2,7.1,43.2s-6.5,23.9-5.8,38.8c0,0,21.6,9.4,27.4,17c5.8,7.7,15.6,17.8,23.5,26.4
		c7.9,8.6,11.5,20.2,14.5,27.7s22.7,40.1,31.2,52.1c8.5,12,30.3,49,54.2,55.8c23.9,6.8,114.7,8,135.4,3.9
		c20.7-4.2,34.1-13.5,34.1-13.5s-3.4-19.4-2.2-27.5c1.2-8.1,4.8-28.3,13.4-40.4c8.6-12.1,48.9-49.1,56.4-51.7
		c7.5-2.6,26.4-13.3,29.8-20.2c3.4-6.9,20.9-27.3,44.1-32c0,0-3.4-23.9-6.2-29.3c0,0,4.2-37,3.7-54.1c-0.4-17.1-4.1-55.7-4.1-55.7
		s0.7-10.7-2.9-17.1c-3.6-6.4-6-5.9-9.8-4.6c-3.8,1.3-10.1,5.4-20.8,7.9c-10.7,2.5-27.3,5.3-29.9,3.7c-2.6-1.6-20.8-1.8-23.2-0.9
		c-2.4,0.9-17.1,6-21.2,7.4c-4.1,1.3-12.8,2.3-19.8,2.4c-7,0.1-19.9-4.3-30.3-2.2c-10.4,2.1-17.7,1.9-23.3,6.1
		c-5.7,4.2-15.9,4.6-25.8,2.8c-9.9-1.8-21.6-3.1-34.1-1.9c-12.5,1.2-20.3,0.7-26.7-0.7c-6.4-1.3-16.8-5.5-27.6-3.7
		c-10.7,1.8-14.6,1.1-31.1,0.5c-16.5-0.6-42-4.7-49.3-8.7c-7.3-4.1-29.5-6.8-38.2-6.2c-8.7,0.6-15.5,2.9-19.9-0.6
		c-4.4-3.5-12.8-6.6-17.3-6.3c-4.5,0.3-5.2,3.1-5.9,7.7C86.6,139.2,85,140.4,88.4,148.2z"/>
	<path fill="#FFFFFF" d="M468.8,189.8c0,0,41.5-9.3,50.3-11.3c8.8-2,30.9-8.9,30.9-8.9s1.9,23.9,2.1,36.9c0.2,13-1.6,31.7-2.4,35.8
		c0,0-22.1,2.9-28.8,5.4c-6.7,2.5-35,9.6-41.5,10C479.5,257.7,474.9,223.7,468.8,189.8"/>
	<path fill="none" stroke="#000000" stroke-width="2" stroke-linecap="round" stroke-linejoin="round" stroke-miterlimit="10" d="
		M468.8,189.8c0,0,41.5-9.3,50.3-11.3c8.8-2,30.9-8.9,30.9-8.9s1.9,23.9,2.1,36.9c0.2,13-1.6,31.7-2.4,35.8c0,0-22.1,2.9-28.8,5.4
		c-6.7,2.5-35,9.6-41.5,10C479.5,257.7,474.9,223.7,468.8,189.8z"/>
	<path fill="#FFFFFF" d="M83.1,168.7c0,0,23,6.7,31.4,9.2c8.4,2.5,45.6,11.7,48.4,12.9c0,0-3.9,28.4-4,37.3c-0.1,8.9-1.6,26.5-1,31
		c0,0-40.4-10.7-45.3-12.1c-4.9-1.4-21.6-5.8-26.9-7.8C85.7,239.3,81.5,181.9,83.1,168.7"/>
	<path fill="none" stroke="#000000" stroke-width="2" stroke-linecap="round" stroke-linejoin="round" stroke-miterlimit="10" d="
		M83.1,168.7c0,0,23,6.7,31.4,9.2c8.4,2.5,45.6,11.7,48.4,12.9c0,0-3.9,28.4-4,37.3c-0.1,8.9-1.6,26.5-1,31c0,0-40.4-10.7-45.3-12.1
		c-4.9-1.4-21.6-5.8-26.9-7.8C85.7,239.3,81.5,181.9,83.1,168.7z"/>
	<path fill="#FFFFFF" d="M88.4,147.6c0,0,21.6,13.9,78.4,29.2c56.7,15.3,106.8,15.8,159.8,12c53-3.8,171.5-22,217.8-40.4
		c0,0,0.7-10.4-2.9-16.7c-3.6-6.2-6-5.7-9.8-4.5c-3.8,1.3-10.1,5.3-20.8,7.7c-10.7,2.4-27.3,5.2-29.9,3.6
		c-2.6-1.5-20.8-1.7-23.2-0.9c-2.4,0.8-17.1,5.9-21.2,7.2c-4.1,1.3-12.8,2.2-19.8,2.3c-7,0.1-19.9-4.1-30.3-2.1
		c-10.4,2-17.7,1.8-23.3,5.9c-5.7,4.1-15.9,4.4-25.8,2.7c-9.9-1.7-21.6-3-34.1-1.9c-12.5,1.2-20.3,0.6-26.7-0.6
		c-6.4-1.3-16.8-5.4-27.6-3.6c-10.7,1.7-14.6,1.1-31.1,0.5c-16.5-0.6-42-4.5-49.3-8.5c-7.3-3.9-29.5-6.6-38.2-6
		c-8.7,0.6-15.5,2.8-19.9-0.6c-4.4-3.4-12.8-6.4-17.3-6.1c-4.5,0.3-5.2,3.1-5.9,7.5S85,140,88.4,147.6"/>
	<path fill="none" stroke="#000000" stroke-width="2" stroke-linecap="round" stroke-linejoin="round" stroke-miterlimit="10" d="
		M88.4,147.6c0,0,21.6,13.9,78.4,29.2c56.7,15.3,106.8,15.8,159.8,12c53-3.8,171.5-22,217.8-40.4c0,0,0.7-10.4-2.9-16.7
		c-3.6-6.2-6-5.7-9.8-4.5c-3.8,1.3-10.1,5.3-20.8,7.7c-10.7,2.4-27.3,5.2-29.9,3.6c-2.6-1.5-20.8-1.7-23.2-0.9
		c-2.4,0.8-17.1,5.9-21.2,7.2c-4.1,1.3-12.8,2.2-19.8,2.3c-7,0.1-19.9-4.1-30.3-2.1c-10.4,2-17.7,1.8-23.3,5.9
		c-5.7,4.1-15.9,4.4-25.8,2.7c-9.9-1.7-21.6-3-34.1-1.9c-12.5,1.2-20.3,0.6-26.7-0.6c-6.4-1.3-16.8-5.4-27.6-3.6
		c-10.7,1.7-14.6,1.1-31.1,0.5c-16.5-0.6-42-4.5-49.3-8.5c-7.3-3.9-29.5-6.6-38.2-6c-8.7,0.6-15.5,2.8-19.9-0.6
		c-4.4-3.4-12.8-6.4-17.3-6.1c-4.5,0.3-5.2,3.1-5.9,7.5S85,140,88.4,147.6z"/>
	<path fill="#FFFFFF" d="M238.4,469.4c-23.7-6.8-45.2-43.6-53.6-55.6c-8.4-12-27.9-44.4-30.9-51.9c-2.9-7.5-6.5-19.1-14.3-27.6
		c-7.8-8.5-17.5-18.7-23.2-26.3c-5.7-7.6-27.1-17-27.1-17c-0.7-14.9,5.7-38.7,5.7-38.7s13.3,7.1,28.2,17.9
		c14.9,10.8,40,53.7,46.7,81.1c6.7,27.4,25.1,82.8,60,114.3L238.4,469.4z"/>
	<path fill="none" stroke="#000000" stroke-width="2" stroke-linecap="round" stroke-linejoin="round" stroke-miterlimit="10" d="
		M238.4,469.4c-23.7-6.8-45.2-43.6-53.6-55.6c-8.4-12-27.9-44.4-30.9-51.9c-2.9-7.5-6.5-19.1-14.3-27.6
		c-7.8-8.5-17.5-18.7-23.2-26.3c-5.7-7.6-27.1-17-27.1-17c-0.7-14.9,5.7-38.7,5.7-38.7s13.3,7.1,28.2,17.9
		c14.9,10.8,40,53.7,46.7,81.1c6.7,27.4,25.1,82.8,60,114.3L238.4,469.4z"/>
	<path fill="#FFFFFF" d="M410.9,459.8c0,0-3.4-19.3-2.2-27.3c1.2-8.1,4.7-28.2,13.3-40.2c8.6-12.1,48.4-48.8,55.8-51.4
		c7.5-2.6,26.2-13.2,29.5-20.1c3.4-6.8,20.7-27.1,43.6-31.8c0,0-3.3-23.8-6.1-29.2c-24,4.1-60.6,31.6-82.3,54.3
		c-21.7,22.7-57.4,74.5-60.5,101.5C399,442.5,410.9,459.8,410.9,459.8"/>
	<path fill="none" stroke="#000000" stroke-width="2" stroke-linecap="round" stroke-linejoin="round" stroke-miterlimit="10" d="
		M410.9,459.8c0,0-3.4-19.3-2.2-27.3c1.2-8.1,4.7-28.2,13.3-40.2c8.6-12.1,48.4-48.8,55.8-51.4c7.5-2.6,26.2-13.2,29.5-20.1
		c3.4-6.8,20.7-27.1,43.6-31.8c0,0-3.3-23.8-6.1-29.2c-24,4.1-60.6,31.6-82.3,54.3c-21.7,22.7-57.4,74.5-60.5,101.5
		C399,442.5,410.9,459.8,410.9,459.8z"/>
</g>
<g>
	<path fill="#939598" d="M780.9,436c-11.1-9.7-37.8-46.1-41.8-54c-4-7.9-28.1-52.8-32.3-65.4l0,0c4.8,5.4,10.2,11.1,15,16.3
		c8,8.6,11.6,20.3,14.5,27.9c3,7.5,22.8,40.4,31.3,52.4c4.3,6.1,12.1,18.8,21.9,30.6C786.5,441,783.5,438.2,780.9,436 M992.5,459.7
		c0,0-3.4-19.5-2.2-27.7c1.2-8.2,4.8-28.5,13.5-40.7c8.7-12.2,49.1-49.4,56.7-52c7.6-2.6,26.6-13.4,30-20.3c2.4-4.9,12.1-16.8,26-25
		c0,0-11.4,29.9-23.5,46.2C1080.7,356.5,1044.3,429.5,992.5,459.7"/>
	<path fill="#FFFFFF" d="M993.6,458.5c0,0,15.3-0.5,36.3-16.2c21-15.8,36.2-34.5,42.8-47.5c6.6-12.9,13.7-22.7,20.9-31.3
		c7.2-8.6,41.7-49.8,40-75.7c-1.7-26-11.7-8.5-11.7-8.5l-6,11.9l-0.3,3.7c0,0-11.2,29.5-23.1,45.6
		C1080.4,356.6,1044.6,428.7,993.6,458.5"/>
	<path fill="none" stroke="#000000" stroke-width="2" stroke-linecap="round" stroke-linejoin="round" stroke-miterlimit="10" d="
		M993.6,458.5c0,0,15.3-0.5,36.3-16.2c21-15.8,36.2-34.5,42.8-47.5c6.6-12.9,13.7-22.7,20.9-31.3c7.2-8.6,41.7-49.8,40-75.7
		c-1.7-26-11.7-8.5-11.7-8.5l-6,11.9l-0.3,3.7c0,0-11.2,29.5-23.1,45.6C1080.4,356.6,1044.6,428.7,993.6,458.5z"/>
	<path fill="#FFFFFF" d="M671.8,290.3c0,0,2.5,13.1,9.5,21.1c7,7.9,9.7,10.6,14.3,18.7c4.6,8.1,9.9,17.7,12.5,20.3
		c2.7,2.6,14.2,16.8,20.3,29.2s26,36.6,32.3,41.7c6.2,5.2,18.9,18,21.7,22.2c2.8,4.2,20.4,15.4,26.8,19c0,0-18-17.7-28.9-27.3
		c-10.9-9.5-37.2-45.5-41.1-53.3c-3.9-7.8-27.6-52.1-31.8-64.5c-4.1-12.5-22.8-27.7-22.8-27.7L671.8,290.3z"/>
	<path fill="none" stroke="#000000" stroke-width="2" stroke-linecap="round" stroke-linejoin="round" stroke-miterlimit="10" d="
		M671.8,290.3c0,0,2.5,13.1,9.5,21.1c7,7.9,9.7,10.6,14.3,18.7c4.6,8.1,9.9,17.7,12.5,20.3c2.7,2.6,14.2,16.8,20.3,29.2
		s26,36.6,32.3,41.7c6.2,5.2,18.9,18,21.7,22.2c2.8,4.2,20.4,15.4,26.8,19c0,0-18-17.7-28.9-27.3c-10.9-9.5-37.2-45.5-41.1-53.3
		c-3.9-7.8-27.6-52.1-31.8-64.5c-4.1-12.5-22.8-27.7-22.8-27.7L671.8,290.3z"/>
	<path fill="#FFFFFF" d="M671,147c0,0-2.4,43.2-0.5,60.2c1.8,17,7.1,43.2,7.1,43.2s-6.5,23.9-5.8,38.8c0,0,21.6,9.4,27.4,17
		c5.8,7.7,15.6,17.8,23.5,26.4c7.9,8.6,11.5,20.2,14.5,27.7c3,7.5,22.7,40.1,31.2,52.1c8.5,12,30.3,49,54.2,55.8
		c23.9,6.8,114.7,8,135.4,3.9c20.7-4.2,34.1-13.5,34.1-13.5s-3.4-19.4-2.2-27.5c1.2-8.1,4.8-28.3,13.4-40.4
		c8.6-12.1,48.9-49.1,56.4-51.7c7.5-2.6,26.4-13.3,29.8-20.2c3.4-6.9,20.9-27.3,44.1-32c0,0-3.4-23.9-6.2-29.3c0,0,4.2-37,3.7-54.1
		c-0.4-17.1-4.1-55.7-4.1-55.7s0.7-10.7-2.9-17.1c-3.6-6.4-6-5.9-9.8-4.6c-3.8,1.3-10.1,5.4-20.8,7.9c-10.7,2.5-27.3,5.3-29.9,3.7
		c-2.6-1.6-20.8-1.8-23.2-0.9c-2.4,0.9-17.1,6-21.2,7.4c-4.1,1.3-12.8,2.3-19.8,2.4c-7,0.1-19.9-4.3-30.3-2.2
		c-10.4,2.1-17.7,1.9-23.3,6.1c-5.7,4.2-15.9,4.6-25.8,2.8c-9.9-1.8-21.6-3.1-34.1-1.9c-12.5,1.2-20.3,0.7-26.7-0.7
		c-6.4-1.3-16.8-5.5-27.6-3.7c-10.7,1.8-14.6,1.1-31.1,0.5c-16.5-0.6-42-4.7-49.3-8.7c-7.3-4.1-29.5-6.8-38.2-6.2
		c-8.7,0.6-15.5,2.9-19.9-0.6c-4.4-3.5-12.8-6.6-17.3-6.3c-4.5,0.3-5.2,3.1-5.9,7.7C669.2,138,667.6,139.1,671,147"/>
	<path fill="none" stroke="#000000" stroke-width="2" stroke-linecap="round" stroke-linejoin="round" stroke-miterlimit="10" d="
		M671,147c0,0-2.4,43.2-0.5,60.2c1.8,17,7.1,43.2,7.1,43.2s-6.5,23.9-5.8,38.8c0,0,21.6,9.4,27.4,17c5.8,7.7,15.6,17.8,23.5,26.4
		c7.9,8.6,11.5,20.2,14.5,27.7c3,7.5,22.7,40.1,31.2,52.1c8.5,12,30.3,49,54.2,55.8c23.9,6.8,114.7,8,135.4,3.9
		c20.7-4.2,34.1-13.5,34.1-13.5s-3.4-19.4-2.2-27.5c1.2-8.1,4.8-28.3,13.4-40.4c8.6-12.1,48.9-49.1,56.4-51.7
		c7.5-2.6,26.4-13.3,29.8-20.2c3.4-6.9,20.9-27.3,44.1-32c0,0-3.4-23.9-6.2-29.3c0,0,4.2-37,3.7-54.1c-0.4-17.1-4.1-55.7-4.1-55.7
		s0.7-10.7-2.9-17.1c-3.6-6.4-6-5.9-9.8-4.6c-3.8,1.3-10.1,5.4-20.8,7.9c-10.7,2.5-27.3,5.3-29.9,3.7c-2.6-1.6-20.8-1.8-23.2-0.9
		c-2.4,0.9-17.1,6-21.2,7.4c-4.1,1.3-12.8,2.3-19.8,2.4c-7,0.1-19.9-4.3-30.3-2.2c-10.4,2.1-17.7,1.9-23.3,6.1
		c-5.7,4.2-15.9,4.6-25.8,2.8c-9.9-1.8-21.6-3.1-34.1-1.9c-12.5,1.2-20.3,0.7-26.7-0.7c-6.4-1.3-16.8-5.5-27.6-3.7
		c-10.7,1.8-14.6,1.1-31.1,0.5c-16.5-0.6-42-4.7-49.3-8.7c-7.3-4.1-29.5-6.8-38.2-6.2c-8.7,0.6-15.5,2.9-19.9-0.6
		c-4.4-3.5-12.8-6.6-17.3-6.3c-4.5,0.3-5.2,3.1-5.9,7.7C669.2,138,667.6,139.1,671,147z"/>
	<path fill="#FFFFFF" d="M671,146.3c0,0,21.6,13.9,78.4,29.2c56.7,15.3,106.8,15.8,159.8,12c53-3.8,171.5-22,217.8-40.4
		c0,0,0.7-10.4-2.9-16.7c-3.6-6.2-6-5.7-9.8-4.5c-3.8,1.3-10.1,5.3-20.8,7.7c-10.7,2.4-27.3,5.2-29.9,3.6
		c-2.6-1.5-20.8-1.7-23.2-0.9c-2.4,0.8-17.1,5.9-21.2,7.2c-4.1,1.3-12.8,2.2-19.8,2.3c-7,0.1-19.9-4.1-30.3-2.1
		c-10.4,2-17.7,1.8-23.3,5.9c-5.7,4.1-15.9,4.4-25.8,2.7c-9.9-1.7-21.6-3-34.1-1.9c-12.5,1.2-20.3,0.6-26.7-0.6
		c-6.4-1.3-16.8-5.4-27.6-3.6c-10.7,1.7-14.6,1.1-31.1,0.5c-16.5-0.6-42-4.5-49.3-8.5c-7.3-3.9-29.5-6.6-38.2-6
		c-8.7,0.6-15.5,2.8-19.9-0.6c-4.4-3.4-12.8-6.4-17.3-6.1c-4.5,0.3-5.2,3.1-5.9,7.5S667.6,138.7,671,146.3"/>
	<path fill="none" stroke="#000000" stroke-width="2" stroke-linecap="round" stroke-linejoin="round" stroke-miterlimit="10" d="
		M671,146.3c0,0,21.6,13.9,78.4,29.2c56.7,15.3,106.8,15.8,159.8,12c53-3.8,171.5-22,217.8-40.4c0,0,0.7-10.4-2.9-16.7
		c-3.6-6.2-6-5.7-9.8-4.5c-3.8,1.3-10.1,5.3-20.8,7.7c-10.7,2.4-27.3,5.2-29.9,3.6c-2.6-1.5-20.8-1.7-23.2-0.9
		c-2.4,0.8-17.1,5.9-21.2,7.2c-4.1,1.3-12.8,2.2-19.8,2.3c-7,0.1-19.9-4.1-30.3-2.1c-10.4,2-17.7,1.8-23.3,5.9
		c-5.7,4.1-15.9,4.4-25.8,2.7c-9.9-1.7-21.6-3-34.1-1.9c-12.5,1.2-20.3,0.6-26.7-0.6c-6.4-1.3-16.8-5.4-27.6-3.6
		c-10.7,1.7-14.6,1.1-31.1,0.5c-16.5-0.6-42-4.5-49.3-8.5c-7.3-3.9-29.5-6.6-38.2-6c-8.7,0.6-15.5,2.8-19.9-0.6
		c-4.4-3.4-12.8-6.4-17.3-6.1c-4.5,0.3-5.2,3.1-5.9,7.5S667.6,138.7,671,146.3z"/>
	<path fill="#FFFFFF" d="M821,468.2c-23.7-6.8-45.2-43.6-53.6-55.6c-8.4-12-27.9-44.4-30.9-51.9c-2.9-7.5-6.5-19.1-14.3-27.6
		c-7.8-8.5-17.5-18.7-23.2-26.3c-5.7-7.6-27.1-17-27.1-17c-0.7-14.9,5.7-38.7,5.7-38.7s13.3,7.1,28.2,17.9
		c14.9,10.8,40,53.7,46.7,81.1c6.7,27.4,25.1,82.8,60,114.3L821,468.2z"/>
	<path fill="none" stroke="#000000" stroke-width="2" stroke-linecap="round" stroke-linejoin="round" stroke-miterlimit="10" d="
		M821,468.2c-23.7-6.8-45.2-43.6-53.6-55.6c-8.4-12-27.9-44.4-30.9-51.9c-2.9-7.5-6.5-19.1-14.3-27.6c-7.8-8.5-17.5-18.7-23.2-26.3
		c-5.7-7.6-27.1-17-27.1-17c-0.7-14.9,5.7-38.7,5.7-38.7s13.3,7.1,28.2,17.9c14.9,10.8,40,53.7,46.7,81.1
		c6.7,27.4,25.1,82.8,60,114.3L821,468.2z"/>
	<path fill="#FFFFFF" d="M993.5,458.5c0,0-3.4-19.3-2.2-27.3c1.2-8.1,4.7-28.2,13.3-40.2c8.6-12.1,48.4-48.8,55.8-51.4
		c7.5-2.6,26.2-13.2,29.5-20.1c3.4-6.8,20.7-27.1,43.6-31.8c0,0-3.3-23.8-6.1-29.2c-24,4.1-60.6,31.6-82.3,54.3
		c-21.7,22.7-57.4,74.5-60.5,101.5C981.6,441.3,993.5,458.5,993.5,458.5"/>
	<path fill="none" stroke="#000000" stroke-width="2" stroke-linecap="round" stroke-linejoin="round" stroke-miterlimit="10" d="
		M993.5,458.5c0,0-3.4-19.3-2.2-27.3c1.2-8.1,4.7-28.2,13.3-40.2c8.6-12.1,48.4-48.8,55.8-51.4c7.5-2.6,26.2-13.2,29.5-20.1
		c3.4-6.8,20.7-27.1,43.6-31.8c0,0-3.3-23.8-6.1-29.2c-24,4.1-60.6,31.6-82.3,54.3c-21.7,22.7-57.4,74.5-60.5,101.5
		C981.6,441.3,993.5,458.5,993.5,458.5z"/>
</g>
<g>
	<path fill="#D71B32" d="M226.5,317.1c0-44,35.7-79.6,79.6-79.6c44,0,79.6,35.7,79.6,79.6c0,44-35.7,79.6-79.6,79.6
		C262.2,396.7,226.5,361.1,226.5,317.1z M306.2,370c29.2,0,52.9-23.7,52.9-52.9c0-29.2-23.7-52.9-52.9-52.9
		c-29.2,0-52.9,23.7-52.9,52.9C253.3,346.3,276.9,370,306.2,370z M306.2,344c15.2,0,27.5-12.3,27.5-27.5c0-15.2-12.3-27.5-27.5-27.5
		c-15.2,0-27.5,12.3-27.5,27.5C278.7,331.7,291,344,306.2,344z"/>
	<g>
		<path fill="#D71B32" d="M358.5,393.5c0-2.1,1.7-3.6,3.7-3.6c2,0,3.7,1.5,3.7,3.6c0,2.1-1.7,3.6-3.7,3.6
			C360.2,397.1,358.5,395.6,358.5,393.5z M362.2,396.5c1.6,0,2.9-1.3,2.9-3c0-1.7-1.3-3-2.9-3c-1.7,0-3,1.3-3,3
			C359.3,395.3,360.6,396.5,362.2,396.5z M361.5,395.6h-0.6v-4.2h1.6c1,0,1.5,0.4,1.5,1.2c0,0.8-0.5,1.1-1.1,1.2l1.2,1.8h-0.7
			l-1.1-1.8h-0.7V395.6z M362.2,393.3c0.5,0,1,0,1-0.7c0-0.5-0.5-0.6-0.9-0.6h-0.9v1.3H362.2z"/>
	</g>
</g>
<g>
	<g>
		<g>
			<g>
				<g>
					<g>
						<polygon fill="#00ACC8" points="895.3,314.6 895.3,314.6 895.3,314.6 						"/>
						<path fill="#00ACC8" d="M919.4,293.2c-14.5,0-23,7.6-24,19c0.8-1,1.5-2,2.4-2.9c1.3-1.5,2.6-2.9,4.1-4.2
							c1.4-1.3,3-2.5,4.6-3.5c1.6-1,3.4-1.8,5.3-2.2c-1.8,0.6-3.5,1.6-4.9,2.8c-1.5,1.2-2.8,2.5-4.1,3.9c-1.2,1.4-2.4,2.9-3.4,4.5
							c-0.9,1.3-1.7,2.7-2.5,4.1h6.6C920,314.6,919.4,304.4,919.4,293.2z"/>
					</g>
					<g>
						<path fill="#00ACC8" d="M878.3,306c-1.2-1.4-2.6-2.8-4.1-3.9c-1.5-1.2-3.1-2.2-4.9-2.8c1.9,0.4,3.7,1.2,5.3,2.2
							c1.6,1,3.2,2.2,4.6,3.5c1.4,1.3,2.8,2.7,4.1,4.2c0.8,1,1.6,1.9,2.4,2.9c-1-11.4-9.5-19-24-19c0,11.2-0.6,21.4,15.9,21.4h6.6
							c-0.8-1.4-1.6-2.8-2.5-4.1C880.7,309,879.6,307.5,878.3,306z"/>
					</g>
					<g>
						<path fill="#00ACC8" d="M914,334c0-8.7-1-15.2-12.3-15.2h-5.1c0.6,0.8,1.3,1.7,2,2.5c0.9,1,1.8,2,2.8,2.9
							c2,1.8,4.2,3.4,6.7,4.3c-2.7-0.5-5.1-1.9-7.4-3.5c-1.1-0.8-2.2-1.7-3.2-2.6c-0.7-0.7-1.4-1.3-2.1-2
							C895.7,327.8,899.2,334,914,334z"/>
					</g>
					<g>
						<path fill="#00ACC8" d="M883.7,322.3c-1,0.9-2.1,1.8-3.2,2.6c-2.2,1.6-4.7,2.9-7.4,3.5c2.6-0.9,4.8-2.5,6.7-4.3
							c1-0.9,1.9-1.9,2.8-2.9c0.7-0.8,1.4-1.6,2-2.5h-5c-11.4,0-12.4,6.6-12.4,15.2c14.8,0,18.3-6.2,18.6-13.7
							C885.1,321,884.4,321.7,883.7,322.3z"/>
					</g>
					<path fill="#00ACC8" d="M895,299.4c0.2-0.4,0.1-1-0.4-1.2c-0.4-0.2-1-0.1-1.2,0.4l-2.8,5.5l-2.8-5.5c-0.2-0.4-0.8-0.6-1.2-0.4
						c-0.4,0.2-0.6,0.8-0.4,1.2c0,0,3.7,7.2,3.7,7.2c-0.4,1.6-0.7,3.2-0.9,4.8c-0.3,2.4-0.5,4.8-0.4,7.1c0,2.4,0.1,4.8,0.5,7.1
						c0.3,2.4,0.8,4.8,1.6,7.1c0.9-2.4,1.3-4.8,1.6-7.1c0.3-2.4,0.4-4.8,0.4-7.1c0-2.4-0.1-4.8-0.4-7.1c-0.2-1.6-0.5-3.2-0.9-4.8
						C891.3,306.5,895,299.4,895,299.4z"/>
				</g>
			</g>
			<path fill="#00ACC8" d="M890.6,390.2c-42.2,0-76.6-34.4-76.6-76.6c0-42.2,34.4-76.6,76.6-76.6c42.2,0,76.6,34.4,76.6,76.6
				C967.2,355.9,932.8,390.2,890.6,390.2z M890.6,240.3c-40.4,0-73.3,32.9-73.3,73.3c0,40.4,32.9,73.3,73.3,73.3
				c40.4,0,73.3-32.9,73.3-73.3C963.9,273.2,931,240.3,890.6,240.3z"/>
			<path fill="#00ACC8" d="M890.6,358.3c-24.6,0-44.7-20-44.7-44.7s20-44.7,44.7-44.7c24.6,0,44.7,20,44.7,44.7
				S915.2,358.3,890.6,358.3z M890.6,272.3c-22.8,0-41.3,18.5-41.3,41.3c0,22.8,18.5,41.3,41.3,41.3c22.8,0,41.3-18.5,41.3-41.3
				C931.8,290.9,913.3,272.3,890.6,272.3z"/>
			<g>
				<g>
					<g>
						<g>
							<path fill="#00ACC8" d="M872.7,251.5c-2.9,0.9-5.3,3.7-4,8c1.3,4.3,4.8,5.3,7.7,4.5c2.9-0.9,5.3-3.6,4-7.9
								C879.2,251.7,875.7,250.6,872.7,251.5z M875.8,261.9c-1.8,0.5-4.1-0.2-4.9-3.1c-0.9-2.9,0.6-4.8,2.5-5.3
								c1.8-0.5,4.1,0.2,4.9,3.2C879.1,259.6,877.7,261.4,875.8,261.9z"/>
							<path fill="#00ACC8" d="M884.9,260.9c0,0.6,0.5,1,1.1,1c0.4,0,0.7-0.1,0.9-0.3l0.2-0.1l0-2.6l0-5.9l5.4,7.9
								c0.3,0.5,0.8,1.1,1.6,1.1l0.2,0c0.6,0,1-0.5,1-1.2l0-9l0-1.5c0-0.6-0.5-1-1.1-1c-0.4,0-0.7,0.1-0.9,0.3l-0.2,0.1l0,8.4
								l-5.4-7.9c-0.4-0.6-0.8-0.9-1.4-0.9l-0.4,0c-0.7,0-1.1,0.5-1.1,1.2l0,8.5L884.9,260.9z"/>
							<path fill="#00ACC8" d="M907.3,264.4l0.2-0.1c0.2-0.1,0.4-0.4,0.5-0.7c0.2-0.8-0.2-1.2-0.7-1.3l-5.3-1.3l0.8-3.4l2.8,0.7
								c0.6,0.1,1.1-0.1,1.2-0.7c0.2-0.6-0.1-1.1-0.7-1.2l-2.8-0.7l0.7-3l5.3,1.3c0.4,0.1,1-0.1,1.2-0.8c0.1-0.4,0.1-0.6-0.1-0.9
								l-0.1-0.2l-6.2-1.5l-0.8-0.2c-0.7-0.2-1.1,0.1-1.3,0.8l-2.5,10.3c-0.2,0.6,0.1,1.1,0.8,1.2L907.3,264.4z"/>
							<path fill="#00ACC8" d="M853.3,277.3l0-0.2c0-0.3-0.2-0.5-0.5-0.7c-0.6-0.5-1.2-0.3-1.4,0l-3.5,4.3l-2.7-2.2l1.8-2.2
								c0.4-0.5,0.4-1-0.1-1.4c-0.5-0.4-1-0.4-1.4,0.1l-1.8,2.2l-2.4-1.9l3.5-4.3c0.3-0.3,0.4-0.9-0.3-1.4c-0.3-0.2-0.5-0.3-0.8-0.3
								l-0.2,0l-4,4.9l-0.5,0.7c-0.4,0.5-0.4,1,0.1,1.5l8.2,6.7c0.5,0.4,1,0.4,1.5-0.2L853.3,277.3z"/>
							<path fill="#00ACC8" d="M826.5,304.4c-0.2,0.7,0.3,1.2,0.8,1.3c0.3,0.1,0.5,0.1,0.8,0l0.3-0.1l0.8-3.8l9.4,2.1
								c0.6,0.1,1.1-0.2,1.2-0.8l0-0.2c0.1-0.7-0.1-1.1-0.8-1.2l-9.4-2.1l0.7-3.1c0.2-0.7-0.3-1.2-0.8-1.3c-0.3-0.1-0.5-0.1-0.8,0
								l-0.3,0.1L826.5,304.4z"/>
							<path fill="#00ACC8" d="M859.5,257.4l0.1-0.2c0.2-0.3,0.5-0.6,0.7-0.6c0.6-0.3,1.1-0.2,1.4,0.3l0,0l5.9,9.6l-0.1,0.2
								c-0.2,0.3-0.5,0.6-0.7,0.6c-0.6,0.3-1.1,0.2-1.5-0.3l-2.4-3.9l-5.1,3.2l2.7,4.4l-0.1,0.2c-0.2,0.3-0.5,0.6-0.7,0.6
								c-0.6,0.3-1.1,0.2-1.5-0.3l-6-9.7l0.1-0.2c0.2-0.3,0.5-0.6,0.7-0.6c0.6-0.4,1.1-0.2,1.5,0.3l0,0l2.1,3.5l5.1-3.2L859.5,257.4
								z"/>
							<path fill="#00ACC8" d="M833.8,283.4l0-0.3c0-0.4,0.1-0.8,0.2-0.9c0.3-0.6,0.8-0.8,1.4-0.6l0,0l10.2,4.9l0,0.3
								c0,0.4-0.1,0.8-0.2,0.9c-0.3,0.6-0.8,0.8-1.4,0.6l-4.1-1.9l-2.6,5.4l4.7,2.2l0,0.3c0,0.4-0.1,0.8-0.2,0.9
								c-0.3,0.6-0.8,0.8-1.4,0.6l-10.3-4.9l0-0.3c0-0.4,0.1-0.8,0.2-0.9c0.3-0.6,0.8-0.8,1.4-0.6l0,0l3.7,1.7l2.6-5.4L833.8,283.4z
								"/>
							<path fill="#00ACC8" d="M952.1,293.9c-0.8-2.9-3.5-5.4-7.9-4.2c-4.3,1.2-5.4,4.6-4.7,7.6c0.8,2.9,3.5,5.4,7.8,4.2
								C951.8,300.3,952.9,296.8,952.1,293.9z M941.6,296.7c-0.5-1.9,0.3-4.1,3.3-4.9c2.9-0.8,4.8,0.7,5.3,2.6
								c0.5,1.9-0.3,4.1-3.3,4.9C943.9,300.1,942.1,298.6,941.6,296.7z"/>
							<path fill="#00ACC8" d="M917.8,260.8c-1.4-1.2-1.7-1.8-1.4-2.5c0.4-0.8,1.6-1,2.8-0.4c1.5,0.7,1.7,1.5,1.8,1.8l0,0.2l0.2,0.1
								c0.6,0.2,1.2,0,1.5-0.5c0.5-1-0.5-2.4-2.6-3.4c-2.4-1.2-4.9-0.7-5.8,1.2c-1,2,0.4,3.7,1.8,4.9c1.6,1.4,2.3,2.2,1.8,3.2
								c-0.4,0.7-1.5,1.1-3.2,0.2c-1.2-0.6-1.8-1.4-1.8-2.2l0-0.3l-0.3-0.1c-1-0.2-1.4,0.2-1.6,0.6c-0.6,1.1,0.6,2.7,2.8,3.8
								c2.6,1.3,5.2,0.8,6.2-1.2C921.1,264,919.5,262.3,917.8,260.8z"/>
							<path fill="#00ACC8" d="M928.2,261.2c-0.6-0.5-1.2-0.3-1.5,0.1c-0.2,0.2-0.3,0.5-0.4,0.7l-0.1,0.3l3,2.5l-6.1,7.5
								c-0.4,0.5-0.4,1,0.2,1.5l0.1,0.1c0.5,0.4,1,0.4,1.5-0.1l6.1-7.4l2.4,2c0.6,0.5,1.2,0.3,1.5-0.1c0.2-0.2,0.3-0.5,0.4-0.7
								l0.1-0.3L928.2,261.2z"/>
							<path fill="#00ACC8" d="M939.5,286.7l-0.1-0.2l-0.2,0.1c-1.3,0.3-2.3-0.3-3.2-1.7c-1-1.5-1.1-3.9,1.7-5.6
								c2.7-1.7,4.8-0.7,5.8,0.9c0.9,1.4,0.9,2.4,0.2,3.3l-0.2,0.2l0.1,0.2c0.5,0.7,1.2,0.9,1.8,0.5c1.1-0.7,1.4-3-0.2-5.4
								c-1.5-2.4-4.8-4.3-8.8-1.7c-3.8,2.4-3.8,6.1-2.1,8.7c1.5,2.4,3.8,3.2,4.9,2.4C939.8,288,939.9,287.3,939.5,286.7z"/>
							<path fill="#00ACC8" d="M944.7,306.2c0-0.9-0.6-1.5-1.5-1.5c-0.9,0-1.5,0.6-1.5,1.5c0,0.9,0.6,1.5,1.5,1.5
								C944.1,307.7,944.7,307.1,944.7,306.2z"/>
						</g>
						<g>
							<path fill="#00ACC8" d="M908.4,375.8c2.9-0.9,5.3-3.7,4-8c-1.3-4.3-4.8-5.3-7.7-4.5c-2.9,0.9-5.3,3.6-4,7.9
								C902,375.6,905.5,376.6,908.4,375.8z M905.3,365.3c1.8-0.5,4.1,0.2,4.9,3.1c0.9,2.9-0.6,4.8-2.5,5.3
								c-1.8,0.5-4.1-0.2-4.9-3.2C902,367.7,903.5,365.8,905.3,365.3z"/>
							<path fill="#00ACC8" d="M896.2,366.4c0-0.6-0.5-1-1.1-1c-0.4,0-0.7,0.1-0.9,0.3l-0.2,0.1l0,2.6l0,5.9l-5.4-7.9
								c-0.3-0.5-0.8-1.1-1.6-1.1l-0.2,0c-0.6,0-1,0.5-1,1.2l0,9l0,1.5c0,0.6,0.5,1,1.1,1c0.4,0,0.7-0.1,0.9-0.3l0.2-0.1l0-8.4
								l5.4,7.9c0.4,0.6,0.8,0.9,1.4,0.9h0.4c0.7,0,1.1-0.5,1.1-1.2l0-8.5V366.4z"/>
							<path fill="#00ACC8" d="M873.8,362.9l-0.2,0.1c-0.2,0.1-0.4,0.4-0.5,0.7c-0.2,0.8,0.2,1.2,0.7,1.3l5.3,1.3l-0.8,3.4l-2.8-0.7
								c-0.6-0.1-1.1,0.1-1.2,0.7c-0.2,0.6,0.1,1.1,0.7,1.2l2.8,0.7l-0.7,3l-5.3-1.3c-0.4-0.1-1,0.1-1.2,0.8
								c-0.1,0.4-0.1,0.6,0.1,0.9l0.1,0.2l6.2,1.5l0.8,0.2c0.7,0.2,1.1-0.1,1.3-0.8l2.5-10.3c0.2-0.6-0.1-1.1-0.8-1.2L873.8,362.9z"
								/>
							<path fill="#00ACC8" d="M927.9,349.9l0,0.2c0,0.3,0.2,0.5,0.5,0.7c0.6,0.5,1.2,0.3,1.4,0l3.5-4.3l2.7,2.2l-1.8,2.2
								c-0.4,0.5-0.4,1,0.1,1.4c0.5,0.4,1,0.4,1.4-0.1l1.8-2.2l2.4,1.9l-3.5,4.3c-0.3,0.3-0.4,0.9,0.3,1.4c0.3,0.2,0.5,0.3,0.8,0.3
								l0.2,0l4-4.9l0.5-0.7c0.4-0.5,0.4-1-0.1-1.5l-8.2-6.7c-0.5-0.4-1-0.4-1.5,0.2L927.9,349.9z"/>
							<path fill="#00ACC8" d="M954.6,322.9c0.2-0.7-0.3-1.2-0.8-1.3c-0.3-0.1-0.5-0.1-0.8,0l-0.3,0.1l-0.8,3.8l-9.4-2.1
								c-0.6-0.1-1.1,0.2-1.2,0.8l0,0.2c-0.1,0.7,0.1,1.1,0.8,1.2l9.4,2.1l-0.7,3.1c-0.2,0.7,0.3,1.2,0.8,1.3c0.3,0.1,0.5,0.1,0.8,0
								l0.3-0.1L954.6,322.9z"/>
							<path fill="#00ACC8" d="M921.6,369.8l-0.1,0.2c-0.2,0.3-0.5,0.6-0.7,0.6c-0.6,0.3-1.1,0.2-1.4-0.3l0,0l-5.9-9.6l0.1-0.2
								c0.2-0.3,0.5-0.6,0.7-0.6c0.6-0.3,1.1-0.2,1.5,0.3l2.4,3.9l5.1-3.2l-2.7-4.4l0.1-0.2c0.2-0.3,0.5-0.6,0.7-0.6
								c0.6-0.3,1.1-0.2,1.5,0.3l6,9.7l-0.1,0.2c-0.2,0.3-0.5,0.6-0.7,0.6c-0.6,0.4-1.1,0.2-1.5-0.3l0,0l-2.1-3.5l-5.1,3.2
								L921.6,369.8z"/>
							<path fill="#00ACC8" d="M947.3,343.9l0,0.3c0,0.4-0.1,0.8-0.2,0.9c-0.3,0.6-0.8,0.8-1.4,0.6l0,0l-10.2-4.9l0-0.3
								c0-0.4,0.1-0.8,0.2-0.9c0.3-0.6,0.8-0.8,1.4-0.6l4.1,1.9l2.6-5.4l-4.7-2.2l0-0.3c0-0.4,0.1-0.8,0.2-0.9
								c0.3-0.6,0.8-0.8,1.4-0.6l10.3,4.9l0,0.3c0,0.4-0.1,0.8-0.2,0.9c-0.3,0.6-0.8,0.8-1.4,0.6l0,0l-3.7-1.7l-2.6,5.4L947.3,343.9
								z"/>
							<path fill="#00ACC8" d="M829,333.3c0.8,2.9,3.5,5.4,7.9,4.2c4.3-1.2,5.4-4.6,4.7-7.6c-0.8-2.9-3.5-5.4-7.8-4.2
								C829.3,326.9,828.2,330.4,829,333.3z M839.5,330.5c0.5,1.9-0.3,4.1-3.3,4.9c-2.9,0.8-4.8-0.7-5.3-2.6
								c-0.5-1.9,0.3-4.1,3.3-4.9C837.2,327.1,839,328.7,839.5,330.5z"/>
							<path fill="#00ACC8" d="M863.3,366.4c1.4,1.2,1.7,1.8,1.4,2.5c-0.4,0.8-1.6,1-2.8,0.4c-1.5-0.7-1.7-1.5-1.8-1.8l0-0.2
								l-0.2-0.1c-0.6-0.2-1.2,0-1.5,0.5c-0.5,1,0.5,2.4,2.6,3.4c2.4,1.2,4.9,0.7,5.8-1.2c1-2-0.4-3.7-1.8-4.9
								c-1.6-1.4-2.3-2.2-1.8-3.2c0.4-0.7,1.5-1.1,3.2-0.2c1.2,0.6,1.8,1.4,1.8,2.2l0,0.3l0.3,0.1c1,0.2,1.4-0.2,1.6-0.6
								c0.6-1.1-0.6-2.7-2.8-3.8c-2.6-1.3-5.2-0.8-6.2,1.2C860,363.2,861.7,365,863.3,366.4z"/>
							<path fill="#00ACC8" d="M852.9,366.1c0.6,0.5,1.2,0.3,1.5-0.1c0.2-0.2,0.3-0.5,0.4-0.7l0.1-0.3l-3-2.5l6.1-7.5
								c0.4-0.5,0.4-1-0.2-1.5l-0.1-0.1c-0.5-0.4-1-0.4-1.5,0.1l-6.1,7.4l-2.4-2c-0.6-0.5-1.2-0.3-1.5,0.1c-0.2,0.2-0.3,0.5-0.4,0.7
								l-0.1,0.3L852.9,366.1z"/>
							<path fill="#00ACC8" d="M841.6,340.6l0.1,0.2l0.2-0.1c1.3-0.3,2.3,0.3,3.2,1.7c1,1.5,1.1,3.9-1.7,5.6
								c-2.7,1.7-4.7,0.7-5.8-0.9c-0.9-1.4-0.9-2.4-0.2-3.3l0.2-0.2l-0.1-0.2c-0.5-0.7-1.2-0.9-1.8-0.5c-1.1,0.7-1.4,3,0.2,5.4
								c1.5,2.4,4.8,4.3,8.8,1.7c3.8-2.4,3.8-6.1,2.1-8.7c-1.5-2.4-3.8-3.2-4.9-2.4C841.4,339.2,841.2,339.9,841.6,340.6z"/>
							<path fill="#00ACC8" d="M836.4,321c0,0.9,0.6,1.5,1.5,1.5c0.9,0,1.5-0.6,1.5-1.5c0-0.9-0.6-1.5-1.5-1.5
								C837.1,319.5,836.4,320.2,836.4,321z"/>
						</g>
					</g>
				</g>
			</g>
		</g>
	</g>
	<g>
		<path fill="#00ACC8" d="M950.9,378.7c-2.6,0-4.7-2.1-4.7-4.7c0-2.6,2.1-4.7,4.7-4.7s4.7,2.1,4.7,4.7
			C955.6,376.5,953.5,378.7,950.9,378.7z M950.9,369.8c-2.4,0-4.2,1.9-4.2,4.2s1.8,4.2,4.1,4.2c2.4,0,4.2-1.9,4.2-4.2
			C955.1,371.7,953.3,369.8,950.9,369.8z M952.1,374.6l1.2,1.8H952l-1.1-1.6h-0.9v1.6H949v-5h2.2c1.2,0,2,0.6,2,1.6
			C953.2,373.8,952.7,374.3,952.1,374.6z M951.2,372.3h-1.1v1.5h1.1c0.6,0,0.9-0.3,0.9-0.7C952.1,372.6,951.7,372.3,951.2,372.3z"/>
	</g>
</g>
</svg>
