<?xml version="1.0" encoding="utf-8"?>
<!-- Generator: Adobe Illustrator 18.1.1, SVG Export Plug-In . SVG Version: 6.00 Build 0)  -->
<svg version="1.1" id="Layer_1" xmlns="http://www.w3.org/2000/svg" xmlns:xlink="http://www.w3.org/1999/xlink" x="0px" y="0px"
	 viewBox="0 0 1191 560" enable-background="new 0 0 1191 560" xml:space="preserve">
<rect x="24" y="43" fill="#E6E6E6" width="352" height="105"/>
<rect x="25" y="157" fill="#F2F2F2" width="352" height="49"/>
<rect x="25" y="219" fill="#F2F2F2" width="352" height="49"/>
<rect x="25" y="281" fill="#F2F2F2" width="352" height="49"/>
<rect x="25" y="344" fill="#F2F2F2" width="352" height="49"/>
<rect x="25" y="406" fill="#F2F2F2" width="352" height="49"/>
<rect x="25" y="468" fill="#F2F2F2" width="352" height="49"/>
<text transform="matrix(1 0 0 1 101.418 103.9707)" font-family="'HelveticaNeue'" font-size="25">1. First Time User</text>
<rect x="423" y="43" fill="#E6E6E6" width="352" height="105"/>
<text transform="matrix(1 0 0 1 451.765 103.9707)"><tspan x="0" y="0" font-family="'HelveticaNeue'" font-size="25">2. Returning User </tspan><tspan x="202.3" y="0" font-family="'HelveticaNeue'" font-size="19">(same day)</tspan></text>
<rect x="814" y="43" fill="#E6E6E6" width="352" height="105"/>
<line fill="#F2F2F2" x1="814" y1="545" x2="1166" y2="545"/>
<text transform="matrix(1 0 0 1 847.5245 103.9707)"><tspan x="0" y="0" font-family="'HelveticaNeue'" font-size="25">3. Returning User </tspan><tspan x="202.3" y="0" font-family="'HelveticaNeue'" font-size="19">(next day)</tspan></text>
<g>
	<text transform="matrix(1 0 0 1 148.9203 185.0088)" font-family="'HelveticaNeue'" font-size="21">Enters App</text>
</g>
<g>
	<text transform="matrix(1 0 0 1 136.7302 250.0088)" font-family="'HelveticaNeue'" font-size="21">Authenticates</text>
</g>
<g>
	<text transform="matrix(1 0 0 1 117.2317 311.6328)" font-family="'HelveticaNeue'" font-size="21">Chooses Patterns</text>
</g>
<g>
	<text transform="matrix(1 0 0 1 55.7762 375.6328)" font-family="'HelveticaNeue'" font-size="21">Enters Email / Agrees to Terms</text>
</g>
<g>
	<text transform="matrix(1 0 0 1 113.5361 436.6328)" font-family="'HelveticaNeue'" font-size="21">Confirmation Page</text>
</g>
<g>
	<text transform="matrix(1 0 0 1 104.0019 499.6328)" font-family="'HelveticaNeue'" font-size="21">Shares on Facebook</text>
</g>
<rect x="424" y="157" fill="#F2F2F2" width="352" height="49"/>
<rect x="424" y="219" fill="#F2F2F2" width="352" height="49"/>
<rect x="424" y="281" fill="#F2F2F2" width="352" height="49"/>
<rect x="424" y="344" fill="#F2F2F2" width="352" height="49"/>
<rect x="424" y="406" fill="#F2F2F2" width="352" height="49"/>
<rect x="424" y="468" fill="#F2F2F2" width="352" height="49"/>
<g>
	<text transform="matrix(1 0 0 1 547.9203 185.0088)" font-family="'HelveticaNeue'" font-size="21">Enters App</text>
</g>
<g>
	<text transform="matrix(1 0 0 1 535.7302 250.0088)" fill="#B3B3B3" font-family="'HelveticaNeue'" font-size="21">Authenticates</text>
</g>
<g>
	<text transform="matrix(1 0 0 1 516.2317 311.6328)" fill="#B3B3B3" font-family="'HelveticaNeue'" font-size="21">Chooses Patterns</text>
</g>
<g>
	<text transform="matrix(1 0 0 1 454.7762 375.6328)" fill="#B3B3B3" font-family="'HelveticaNeue'" font-size="21">Enters Email / Agrees to Terms</text>
</g>
<g>
	<text transform="matrix(1 0 0 1 512.5361 436.6328)" font-family="'HelveticaNeue'" font-size="21">Confirmation Page</text>
</g>
<g>
	<text transform="matrix(1 0 0 1 503.0019 499.6328)" font-family="'HelveticaNeue'" font-size="21">Shares on Facebook</text>
</g>
<rect x="815" y="157" fill="#F2F2F2" width="352" height="49"/>
<rect x="815" y="219" fill="#F2F2F2" width="352" height="49"/>
<rect x="815" y="281" fill="#F2F2F2" width="352" height="49"/>
<rect x="815" y="344" fill="#F2F2F2" width="352" height="49"/>
<rect x="815" y="406" fill="#F2F2F2" width="352" height="49"/>
<rect x="815" y="468" fill="#F2F2F2" width="352" height="49"/>
<g>
	<text transform="matrix(1 0 0 1 938.9203 185.0088)" font-family="'HelveticaNeue'" font-size="21">Enters App</text>
</g>
<g>
	<text transform="matrix(1 0 0 1 926.7302 250.0088)" fill="#B3B3B3" font-family="'HelveticaNeue'" font-size="21">Authenticates</text>
</g>
<g>
	<text transform="matrix(1 0 0 1 907.2317 311.6328)" font-family="'HelveticaNeue'" font-size="21">Chooses Patterns</text>
</g>
<g>
	<text transform="matrix(1 0 0 1 845.7762 375.6328)" fill="#B3B3B3" font-family="'HelveticaNeue'" font-size="21">Enters Email / Agrees to Terms</text>
</g>
<g>
	<text transform="matrix(1 0 0 1 903.5361 436.6328)" font-family="'HelveticaNeue'" font-size="21">Confirmation Page</text>
</g>
<g>
	<text transform="matrix(1 0 0 1 894.0019 499.6328)" font-family="'HelveticaNeue'" font-size="21">Shares on Facebook</text>
</g>
<line fill="#B3B3B3" stroke="#B3B3B3" stroke-width="2" stroke-miterlimit="10" x1="447" y1="244.6" x2="750" y2="244.6"/>
<line fill="#B3B3B3" stroke="#B3B3B3" stroke-width="2" stroke-miterlimit="10" x1="843" y1="244.6" x2="1146" y2="244.6"/>
<line fill="#B3B3B3" stroke="#B3B3B3" stroke-width="2" stroke-miterlimit="10" x1="447" y1="305.6" x2="750" y2="305.6"/>
<line fill="#B3B3B3" stroke="#B3B3B3" stroke-width="2" stroke-miterlimit="10" x1="447" y1="369.6" x2="750" y2="369.6"/>
<line fill="#B3B3B3" stroke="#B3B3B3" stroke-width="2" stroke-miterlimit="10" x1="838" y1="369.6" x2="1141" y2="369.6"/>
<g>
	<g>
		<polyline fill="none" stroke="#B3B3B3" stroke-width="2" stroke-miterlimit="10" points="437,185 414,185 414,430 435,430 		"/>
		<g>
			<polygon fill="#B3B3B3" points="430.8,433 434.2,429.5 430.8,426 433.7,426 437,429.5 433.7,433 			"/>
		</g>
	</g>
</g>
<g>
	<g>
		<polyline fill="none" stroke="#B3B3B3" stroke-width="2" stroke-miterlimit="10" points="827,185 804,185 804,300 825,300 		"/>
		<g>
			<polygon fill="#B3B3B3" points="820.8,303 824.2,299.5 820.8,296 823.7,296 827,299.5 823.7,303 			"/>
		</g>
	</g>
</g>
<g>
	<g>
		<polyline fill="none" stroke="#B3B3B3" stroke-width="2" stroke-miterlimit="10" points="827,316 804,316 804,431 825,431 		"/>
		<g>
			<polygon fill="#B3B3B3" points="820.8,434 824.2,430.5 820.8,427 823.7,427 827,430.5 823.7,434 			"/>
		</g>
	</g>
</g>
</svg>
